<ttFont>
<head>
    <!-- Most of this table will be recalculated by the compiler -->
    <tableVersion value="1.0"/>
    <fontRevision value="3.0"/>
    <checkSumAdjustment value="0x96f8084d"/>
    <magicNumber value="0x5f0f3cf5"/>
    <flags value="00000000 00000011"/>
    <unitsPerEm value="2000"/>
    <created value="Fri Dec 23 10:14:22 2016"/>
    <modified value="Fri Nov 30 19:12:57 2018"/>
    <xMin value="-300"/>
    <yMin value="-460"/>
    <xMax value="2122"/>
    <yMax value="2120"/>
    <macStyle value="00000000 00000000"/>
    <lowestRecPPEM value="6"/>
    <fontDirectionHint value="2"/>
    <indexToLocFormat value="0"/>
    <glyphDataFormat value="0"/>
  </head>
    <TTGlyph name=".notdef" xMin="100" yMin="-440" xMax="900" yMax="1616">
      <contour>
        <pt x="100" y="-440" on="1"/>
        <pt x="900" y="-440" on="1"/>
        <pt x="900" y="1616" on="1"/>
        <pt x="100" y="1616" on="1"/>
      </contour>
      <contour>
        <pt x="200" y="-340" on="1"/>
        <pt x="200" y="1516" on="1"/>
        <pt x="800" y="1516" on="1"/>
        <pt x="800" y="-340" on="1"/>
      </contour>
    </TTGlyph>
    <TTGlyph name="A" xMin="26" yMin="0" xMax="1104" yMax="1480">
      <contour>
        <pt x="26" y="0" on="1"/>
        <pt x="522" y="1480" on="1"/>
        <pt x="608" y="1480" on="1"/>
        <pt x="1104" y="0" on="1"/>
        <pt x="1030" y="0" on="1"/>
        <pt x="552" y="1440" on="1"/>
        <pt x="576" y="1440" on="1"/>
        <pt x="98" y="0" on="1"/>
      </contour>
      <contour>
        <pt x="246" y="528" on="1"/>
        <pt x="266" y="594" on="1"/>
        <pt x="864" y="594" on="1"/>
        <pt x="884" y="528" on="1"/>
      </contour>
    </TTGlyph>
    <TTGlyph name="AE" xMin="26" yMin="0" xMax="1512" yMax="1480">
      <contour>
        <pt x="26" y="0" on="1"/>
        <pt x="534" y="1480" on="1"/>
        <pt x="798" y="1480" on="1"/>
        <pt x="798" y="1414" on="1"/>
        <pt x="580" y="1414" on="1"/>
        <pt x="98" y="0" on="1"/>
      </contour>
      <contour>
        <pt x="248" y="528" on="1"/>
        <pt x="268" y="594" on="1"/>
        <pt x="824" y="594" on="1"/>
        <pt x="824" y="528" on="1"/>
      </contour>
      <contour>
        <pt x="818" y="0" on="1"/>
        <pt x="754" y="1480" on="1"/>
        <pt x="1502" y="1480" on="1"/>
        <pt x="1502" y="1414" on="1"/>
        <pt x="824" y="1414" on="1"/>
        <pt x="884" y="66" on="1"/>
        <pt x="1512" y="66" on="1"/>
        <pt x="1512" y="0" on="1"/>
      </contour>
      <contour>
        <pt x="836" y="728" on="1"/>
        <pt x="836" y="794" on="1"/>
        <pt x="1412" y="794" on="1"/>
        <pt x="1412" y="728" on="1"/>
      </contour>
    </TTGlyph>
    <TTGlyph name="AEacute" xMin="26" yMin="0" xMax="1512" yMax="1888">
      <component glyphName="AE" x="0" y="0" flags="0x204"/>
      <component glyphName="acutecomb.case" x="390" y="0" flags="0x4"/>
    </TTGlyph>
    <TTGlyph name="Aacute" xMin="26" yMin="0" xMax="1104" yMax="1888">
      <component glyphName="A" x="0" y="0" flags="0x204"/>
      <component glyphName="acutecomb.case" x="166" y="0" flags="0x4"/>
    </TTGlyph>
    <TTGlyph name="Abreve" xMin="26" yMin="0" xMax="1104" yMax="1860">
      <component glyphName="A" x="0" y="0" flags="0x204"/>
      <component glyphName="uni0306.case" x="166" y="0" flags="0x4"/>
    </TTGlyph>
    <TTGlyph name="Acircumflex" xMin="26" yMin="0" xMax="1104" yMax="1888">
      <component glyphName="A" x="0" y="0" flags="0x204"/>
      <component glyphName="uni0302.case" x="166" y="0" flags="0x4"/>
    </TTGlyph>
    <TTGlyph name="Adieresis" xMin="26" yMin="0" xMax="1104" yMax="1816">
      <component glyphName="A" x="0" y="0" flags="0x204"/>
      <component glyphName="uni0308.case" x="166" y="0" flags="0x4"/>
    </TTGlyph>
    <TTGlyph name="Agrave" xMin="26" yMin="0" xMax="1104" yMax="1888">
      <component glyphName="A" x="0" y="0" flags="0x204"/>
      <component glyphName="gravecomb.case" x="166" y="0" flags="0x4"/>
    </TTGlyph>
    <TTGlyph name="Amacron" xMin="26" yMin="0" xMax="1104" yMax="1782">
      <component glyphName="A" x="0" y="0" flags="0x204"/>
      <component glyphName="uni0304.case" x="166" y="0" flags="0x4"/>
    </TTGlyph>
    <TTGlyph name="Aogonek" xMin="26" yMin="-400" xMax="1216" yMax="1480">
      <component glyphName="A" x="0" y="0" flags="0x204"/>
      <component glyphName="uni0328.case" x="704" y="0" flags="0x4"/>
    </TTGlyph>
    <TTGlyph name="Aring" xMin="26" yMin="0" xMax="1104" yMax="1798">
      <component glyphName="A" x="0" y="0" flags="0x204"/>
      <component glyphName="uni030A.case" x="170" y="-180" flags="0x4"/>
    </TTGlyph>
    <TTGlyph name="Aringacute" xMin="26" yMin="0" xMax="1104" yMax="1908">
      <component glyphName="A" x="0" y="0" flags="0x204"/>
      <component glyphName="uni030A0301.case" x="170" y="-180" flags="0x4"/>
    </TTGlyph>
    <TTGlyph name="Atilde" xMin="26" yMin="0" xMax="1104" yMax="1830">
      <component glyphName="A" x="0" y="0" flags="0x204"/>
      <component glyphName="tildecomb.case" x="166" y="0" flags="0x4"/>
    </TTGlyph>
    <TTGlyph name="B" xMin="164" yMin="-10" xMax="1014" yMax="1494">
      <contour>
        <pt x="448" y="-10" on="1"/>
        <pt x="399" y="-10" on="0"/>
        <pt x="304" y="-7" on="0"/>
        <pt x="211" y="-1" on="0"/>
        <pt x="164" y="4" on="1"/>
        <pt x="164" y="1466" on="1"/>
        <pt x="207" y="1474" on="0"/>
        <pt x="302" y="1487" on="0"/>
        <pt x="412" y="1494" on="0"/>
        <pt x="476" y="1494" on="1"/>
        <pt x="650" y="1494" on="0"/>
        <pt x="869" y="1412" on="0"/>
        <pt x="972" y="1244" on="0"/>
        <pt x="972" y="1114" on="1"/>
        <pt x="972" y="1032" on="0"/>
        <pt x="916" y="882" on="0"/>
        <pt x="782" y="775" on="0"/>
        <pt x="664" y="758" on="1"/>
        <pt x="664" y="772" on="1"/>
        <pt x="846" y="751" on="0"/>
        <pt x="1014" y="545" on="0"/>
        <pt x="1014" y="390" on="1"/>
        <pt x="1014" y="291" on="0"/>
        <pt x="950" y="141" on="0"/>
        <pt x="814" y="41" on="0"/>
        <pt x="599" y="-10" on="0"/>
      </contour>
      <contour>
        <pt x="450" y="56" on="1"/>
        <pt x="630" y="56" on="0"/>
        <pt x="847" y="127" on="0"/>
        <pt x="944" y="273" on="0"/>
        <pt x="944" y="386" on="1"/>
        <pt x="944" y="556" on="0"/>
        <pt x="744" y="728" on="0"/>
        <pt x="526" y="728" on="1"/>
        <pt x="216" y="728" on="1"/>
        <pt x="216" y="794" on="1"/>
        <pt x="486" y="794" on="1"/>
        <pt x="646" y="794" on="0"/>
        <pt x="827" y="870" on="0"/>
        <pt x="902" y="1013" on="0"/>
        <pt x="902" y="1114" on="1"/>
        <pt x="902" y="1282" on="0"/>
        <pt x="708" y="1428" on="0"/>
        <pt x="472" y="1428" on="1"/>
        <pt x="399" y="1428" on="0"/>
        <pt x="285" y="1419" on="0"/>
        <pt x="232" y="1410" on="1"/>
        <pt x="232" y="66" on="1"/>
        <pt x="285" y="60" on="0"/>
        <pt x="396" y="56" on="0"/>
      </contour>
    </TTGlyph>
    <TTGlyph name="C" xMin="98" yMin="-18" xMax="912" yMax="1498">
      <contour>
        <pt x="634" y="-18" on="1"/>
        <pt x="511" y="-18" on="0"/>
        <pt x="313" y="58" on="0"/>
        <pt x="173" y="232" on="0"/>
        <pt x="98" y="523" on="0"/>
        <pt x="98" y="738" on="1"/>
        <pt x="98" y="1021" on="0"/>
        <pt x="228" y="1354" on="0"/>
        <pt x="474" y="1498" on="0"/>
        <pt x="648" y="1498" on="1"/>
        <pt x="713" y="1498" on="0"/>
        <pt x="848" y="1478" on="0"/>
        <pt x="912" y="1458" on="1"/>
        <pt x="912" y="1390" on="1"/>
        <pt x="837" y="1416" on="0"/>
        <pt x="708" y="1432" on="0"/>
        <pt x="640" y="1432" on="1"/>
        <pt x="489" y="1432" on="0"/>
        <pt x="279" y="1307" on="0"/>
        <pt x="170" y="1006" on="0"/>
        <pt x="170" y="742" on="1"/>
        <pt x="170" y="471" on="0"/>
        <pt x="282" y="169" on="0"/>
        <pt x="489" y="48" on="0"/>
        <pt x="632" y="48" on="1"/>
        <pt x="704" y="48" on="0"/>
        <pt x="836" y="73" on="0"/>
        <pt x="912" y="100" on="1"/>
        <pt x="912" y="32" on="1"/>
        <pt x="854" y="11" on="0"/>
        <pt x="714" y="-18" on="0"/>
      </contour>
    </TTGlyph>
    <TTGlyph name="Cacute" xMin="98" yMin="-18" xMax="912" yMax="1888">
      <component glyphName="C" x="0" y="0" flags="0x204"/>
      <component glyphName="acutecomb.case" x="188" y="0" flags="0x4"/>
    </TTGlyph>
    <TTGlyph name="Ccaron" xMin="98" yMin="-18" xMax="912" yMax="1888">
      <component glyphName="C" x="0" y="0" flags="0x204"/>
      <component glyphName="uni030C.case" x="188" y="0" flags="0x4"/>
    </TTGlyph>
    <TTGlyph name="Ccedilla" xMin="98" yMin="-400" xMax="912" yMax="1498">
      <component glyphName="C" x="0" y="0" flags="0x204"/>
      <component glyphName="uni0327.case" x="198" y="0" flags="0x4"/>
    </TTGlyph>
    <TTGlyph name="Ccircumflex" xMin="98" yMin="-18" xMax="912" yMax="1888">
      <component glyphName="C" x="0" y="0" flags="0x204"/>
      <component glyphName="uni0302.case" x="188" y="0" flags="0x4"/>
    </TTGlyph>
    <TTGlyph name="Cdotaccent" xMin="98" yMin="-18" xMax="912" yMax="1816">
      <component glyphName="C" x="0" y="0" flags="0x204"/>
      <component glyphName="uni0307.case" x="188" y="0" flags="0x4"/>
    </TTGlyph>
    <TTGlyph name="D" xMin="164" yMin="-10" xMax="1058" yMax="1494">
      <contour>
        <pt x="414" y="-10" on="1"/>
        <pt x="376" y="-10" on="0"/>
        <pt x="301" y="-7" on="0"/>
        <pt x="216" y="-1" on="0"/>
        <pt x="164" y="4" on="1"/>
        <pt x="164" y="1468" on="1"/>
        <pt x="207" y="1475" on="0"/>
        <pt x="300" y="1487" on="0"/>
        <pt x="395" y="1494" on="0"/>
        <pt x="442" y="1494" on="1"/>
        <pt x="750" y="1494" on="0"/>
        <pt x="1058" y="1129" on="0"/>
        <pt x="1058" y="740" on="1"/>
        <pt x="1058" y="473" on="0"/>
        <pt x="911" y="143" on="0"/>
        <pt x="624" y="-10" on="0"/>
      </contour>
      <contour>
        <pt x="416" y="56" on="1"/>
        <pt x="607" y="56" on="0"/>
        <pt x="860" y="192" on="0"/>
        <pt x="986" y="493" on="0"/>
        <pt x="986" y="740" on="1"/>
        <pt x="986" y="982" on="0"/>
        <pt x="870" y="1286" on="0"/>
        <pt x="627" y="1428" on="0"/>
        <pt x="438" y="1428" on="1"/>
        <pt x="390" y="1428" on="0"/>
        <pt x="285" y="1420" on="0"/>
        <pt x="232" y="1412" on="1"/>
        <pt x="232" y="66" on="1"/>
        <pt x="282" y="60" on="0"/>
        <pt x="370" y="56" on="0"/>
      </contour>
    </TTGlyph>
    <TTGlyph name="Dcaron" xMin="164" yMin="-10" xMax="1058" yMax="1888">
      <component glyphName="D" x="0" y="0" flags="0x204"/>
      <component glyphName="uni030C.case" x="116" y="0" flags="0x4"/>
    </TTGlyph>
    <TTGlyph name="Dcroat" xMin="-4" yMin="-10" xMax="1058" yMax="1494">
      <component glyphName="Eth" x="0" y="0" flags="0x204"/>
    </TTGlyph>
    <TTGlyph name="E" xMin="164" yMin="0" xMax="912" yMax="1480">
      <contour>
        <pt x="164" y="0" on="1"/>
        <pt x="164" y="1480" on="1"/>
        <pt x="902" y="1480" on="1"/>
        <pt x="902" y="1414" on="1"/>
        <pt x="232" y="1414" on="1"/>
        <pt x="232" y="66" on="1"/>
        <pt x="912" y="66" on="1"/>
        <pt x="912" y="0" on="1"/>
      </contour>
      <contour>
        <pt x="224" y="728" on="1"/>
        <pt x="224" y="794" on="1"/>
        <pt x="812" y="794" on="1"/>
        <pt x="812" y="728" on="1"/>
      </contour>
    </TTGlyph>
    <TTGlyph name="Eacute" xMin="164" yMin="0" xMax="912" yMax="1888">
      <component glyphName="E" x="0" y="0" flags="0x204"/>
      <component glyphName="acutecomb.case" x="156" y="0" flags="0x4"/>
    </TTGlyph>
    <TTGlyph name="Ebreve" xMin="164" yMin="0" xMax="912" yMax="1860">
      <component glyphName="E" x="0" y="0" flags="0x204"/>
      <component glyphName="uni0306.case" x="156" y="0" flags="0x4"/>
    </TTGlyph>
    <TTGlyph name="Ecaron" xMin="164" yMin="0" xMax="912" yMax="1888">
      <component glyphName="E" x="0" y="0" flags="0x204"/>
      <component glyphName="uni030C.case" x="156" y="0" flags="0x4"/>
    </TTGlyph>
    <TTGlyph name="Ecircumflex" xMin="164" yMin="0" xMax="912" yMax="1888">
      <component glyphName="E" x="0" y="0" flags="0x204"/>
      <component glyphName="uni0302.case" x="156" y="0" flags="0x4"/>
    </TTGlyph>
    <TTGlyph name="Edieresis" xMin="164" yMin="0" xMax="912" yMax="1816">
      <component glyphName="E" x="0" y="0" flags="0x204"/>
      <component glyphName="uni0308.case" x="156" y="0" flags="0x4"/>
    </TTGlyph>
    <TTGlyph name="Edotaccent" xMin="164" yMin="0" xMax="912" yMax="1816">
      <component glyphName="E" x="0" y="0" flags="0x204"/>
      <component glyphName="uni0307.case" x="156" y="0" flags="0x4"/>
    </TTGlyph>
    <TTGlyph name="Egrave" xMin="164" yMin="0" xMax="912" yMax="1888">
      <component glyphName="E" x="0" y="0" flags="0x204"/>
      <component glyphName="gravecomb.case" x="156" y="0" flags="0x4"/>
    </TTGlyph>
    <TTGlyph name="Emacron" xMin="164" yMin="0" xMax="912" yMax="1782">
      <component glyphName="E" x="0" y="0" flags="0x204"/>
      <component glyphName="uni0304.case" x="156" y="0" flags="0x4"/>
    </TTGlyph>
    <TTGlyph name="Eng" xMin="164" yMin="-460" xMax="1084" yMax="1480">
      <contour>
        <pt x="1026" y="-32" on="1"/>
        <pt x="198" y="1420" on="1"/>
        <pt x="230" y="1420" on="1"/>
        <pt x="230" y="0" on="1"/>
        <pt x="164" y="0" on="1"/>
        <pt x="164" y="1480" on="1"/>
        <pt x="240" y="1480" on="1"/>
        <pt x="1068" y="28" on="1"/>
      </contour>
      <contour>
        <pt x="896" y="-460" on="1"/>
        <pt x="846" y="-426" on="1"/>
        <pt x="906" y="-331" on="0"/>
        <pt x="982" y="-155" on="0"/>
        <pt x="1018" y="41" on="0"/>
        <pt x="1018" y="166" on="1"/>
        <pt x="1018" y="1480" on="1"/>
        <pt x="1084" y="1480" on="1"/>
        <pt x="1084" y="176" on="1"/>
        <pt x="1084" y="39" on="0"/>
        <pt x="1044" y="-171" on="0"/>
        <pt x="961" y="-358" on="0"/>
      </contour>
    </TTGlyph>
    <TTGlyph name="Eogonek" xMin="164" yMin="-400" xMax="1024" yMax="1480">
      <component glyphName="E" x="0" y="0" flags="0x204"/>
      <component glyphName="uni0328.case" x="512" y="0" flags="0x4"/>
    </TTGlyph>
    <TTGlyph name="Eth" xMin="-4" yMin="-10" xMax="1058" yMax="1494">
      <component glyphName="D" x="0" y="0" flags="0x204"/>
      <component glyphName="uni0335.D" x="-296" y="-318" flags="0x4"/>
    </TTGlyph>
    <TTGlyph name="Euro" xMin="80" yMin="-18" xMax="1034" yMax="1498">
      <contour>
        <pt x="756" y="-18" on="1"/>
        <pt x="633" y="-18" on="0"/>
        <pt x="435" y="58" on="0"/>
        <pt x="295" y="232" on="0"/>
        <pt x="220" y="523" on="0"/>
        <pt x="220" y="738" on="1"/>
        <pt x="220" y="1021" on="0"/>
        <pt x="350" y="1354" on="0"/>
        <pt x="596" y="1498" on="0"/>
        <pt x="770" y="1498" on="1"/>
        <pt x="835" y="1498" on="0"/>
        <pt x="970" y="1478" on="0"/>
        <pt x="1034" y="1458" on="1"/>
        <pt x="1034" y="1390" on="1"/>
        <pt x="959" y="1416" on="0"/>
        <pt x="830" y="1432" on="0"/>
        <pt x="762" y="1432" on="1"/>
        <pt x="611" y="1432" on="0"/>
        <pt x="401" y="1307" on="0"/>
        <pt x="292" y="1006" on="0"/>
        <pt x="292" y="742" on="1"/>
        <pt x="292" y="471" on="0"/>
        <pt x="404" y="169" on="0"/>
        <pt x="611" y="48" on="0"/>
        <pt x="754" y="48" on="1"/>
        <pt x="826" y="48" on="0"/>
        <pt x="958" y="73" on="0"/>
        <pt x="1034" y="100" on="1"/>
        <pt x="1034" y="32" on="1"/>
        <pt x="976" y="11" on="0"/>
        <pt x="836" y="-18" on="0"/>
      </contour>
      <contour>
        <pt x="80" y="546" on="1"/>
        <pt x="80" y="610" on="1"/>
        <pt x="894" y="610" on="1"/>
        <pt x="894" y="546" on="1"/>
      </contour>
      <contour>
        <pt x="80" y="890" on="1"/>
        <pt x="80" y="954" on="1"/>
        <pt x="894" y="954" on="1"/>
        <pt x="894" y="890" on="1"/>
      </contour>
    </TTGlyph>
    <TTGlyph name="Euro.tf" xMin="56" yMin="-18" xMax="986" yMax="1498">
      <contour>
        <pt x="712" y="-18" on="1"/>
        <pt x="537" y="-18" on="0"/>
        <pt x="308" y="146" on="0"/>
        <pt x="196" y="481" on="0"/>
        <pt x="196" y="738" on="1"/>
        <pt x="196" y="998" on="0"/>
        <pt x="310" y="1335" on="0"/>
        <pt x="545" y="1498" on="0"/>
        <pt x="726" y="1498" on="1"/>
        <pt x="789" y="1498" on="0"/>
        <pt x="925" y="1478" on="0"/>
        <pt x="986" y="1458" on="1"/>
        <pt x="986" y="1390" on="1"/>
        <pt x="922" y="1413" on="0"/>
        <pt x="793" y="1432" on="0"/>
        <pt x="718" y="1432" on="1"/>
        <pt x="562" y="1432" on="0"/>
        <pt x="363" y="1287" on="0"/>
        <pt x="268" y="982" on="0"/>
        <pt x="268" y="742" on="1"/>
        <pt x="268" y="502" on="0"/>
        <pt x="362" y="195" on="0"/>
        <pt x="557" y="48" on="0"/>
        <pt x="710" y="48" on="1"/>
        <pt x="776" y="48" on="0"/>
        <pt x="910" y="73" on="0"/>
        <pt x="986" y="100" on="1"/>
        <pt x="986" y="32" on="1"/>
        <pt x="917" y="8" on="0"/>
        <pt x="777" y="-18" on="0"/>
      </contour>
      <contour>
        <pt x="56" y="546" on="1"/>
        <pt x="56" y="610" on="1"/>
        <pt x="846" y="610" on="1"/>
        <pt x="846" y="546" on="1"/>
      </contour>
      <contour>
        <pt x="56" y="890" on="1"/>
        <pt x="56" y="954" on="1"/>
        <pt x="846" y="954" on="1"/>
        <pt x="846" y="890" on="1"/>
      </contour>
    </TTGlyph>
    <TTGlyph name="F" xMin="164" yMin="0" xMax="892" yMax="1480">
      <contour>
        <pt x="164" y="0" on="1"/>
        <pt x="164" y="1480" on="1"/>
        <pt x="892" y="1480" on="1"/>
        <pt x="892" y="1414" on="1"/>
        <pt x="232" y="1414" on="1"/>
        <pt x="232" y="0" on="1"/>
      </contour>
      <contour>
        <pt x="224" y="728" on="1"/>
        <pt x="224" y="794" on="1"/>
        <pt x="802" y="794" on="1"/>
        <pt x="802" y="728" on="1"/>
      </contour>
    </TTGlyph>
    <TTGlyph name="G" xMin="98" yMin="-10" xMax="978" yMax="1498">
      <contour>
        <pt x="732" y="-10" on="1"/>
        <pt x="525" y="-10" on="0"/>
        <pt x="243" y="132" on="0"/>
        <pt x="98" y="459" on="0"/>
        <pt x="98" y="738" on="1"/>
        <pt x="98" y="1023" on="0"/>
        <pt x="240" y="1355" on="0"/>
        <pt x="503" y="1498" on="0"/>
        <pt x="684" y="1498" on="1"/>
        <pt x="752" y="1498" on="0"/>
        <pt x="896" y="1478" on="0"/>
        <pt x="960" y="1458" on="1"/>
        <pt x="960" y="1390" on="1"/>
        <pt x="885" y="1414" on="0"/>
        <pt x="747" y="1432" on="0"/>
        <pt x="678" y="1432" on="1"/>
        <pt x="519" y="1432" on="0"/>
        <pt x="292" y="1307" on="0"/>
        <pt x="170" y="1005" on="0"/>
        <pt x="170" y="738" on="1"/>
        <pt x="170" y="478" on="0"/>
        <pt x="294" y="180" on="0"/>
        <pt x="544" y="56" on="0"/>
        <pt x="732" y="56" on="1"/>
        <pt x="785" y="56" on="0"/>
        <pt x="884" y="66" on="0"/>
        <pt x="932" y="76" on="1"/>
        <pt x="910" y="40" on="1"/>
        <pt x="910" y="720" on="1"/>
        <pt x="978" y="720" on="1"/>
        <pt x="978" y="14" on="1"/>
        <pt x="905" y="1" on="0"/>
        <pt x="791" y="-10" on="0"/>
      </contour>
    </TTGlyph>
    <TTGlyph name="Gbreve" xMin="98" yMin="-10" xMax="978" yMax="1860">
      <component glyphName="G" x="0" y="0" flags="0x204"/>
      <component glyphName="uni0306.case" x="218" y="0" flags="0x4"/>
    </TTGlyph>
    <TTGlyph name="Gcaron" xMin="98" yMin="-10" xMax="978" yMax="1888">
      <component glyphName="G" x="0" y="0" flags="0x204"/>
      <component glyphName="uni030C.case" x="218" y="0" flags="0x4"/>
    </TTGlyph>
    <TTGlyph name="Gcircumflex" xMin="98" yMin="-10" xMax="978" yMax="1888">
      <component glyphName="G" x="0" y="0" flags="0x204"/>
      <component glyphName="uni0302.case" x="218" y="0" flags="0x4"/>
    </TTGlyph>
    <TTGlyph name="Gdotaccent" xMin="98" yMin="-10" xMax="978" yMax="1816">
      <component glyphName="G" x="0" y="0" flags="0x204"/>
      <component glyphName="uni0307.case" x="218" y="0" flags="0x4"/>
    </TTGlyph>
    <TTGlyph name="H" xMin="164" yMin="0" xMax="1056" yMax="1480">
      <contour>
        <pt x="164" y="0" on="1"/>
        <pt x="164" y="1480" on="1"/>
        <pt x="232" y="1480" on="1"/>
        <pt x="232" y="794" on="1"/>
        <pt x="988" y="794" on="1"/>
        <pt x="988" y="1480" on="1"/>
        <pt x="1056" y="1480" on="1"/>
        <pt x="1056" y="0" on="1"/>
        <pt x="988" y="0" on="1"/>
        <pt x="988" y="728" on="1"/>
        <pt x="232" y="728" on="1"/>
        <pt x="232" y="0" on="1"/>
      </contour>
    </TTGlyph>
    <TTGlyph name="Hbar" xMin="-4" yMin="0" xMax="1224" yMax="1480">
      <component glyphName="H" x="0" y="0" flags="0x204"/>
      <component glyphName="uni0336.case" x="-8" y="60" flags="0x4"/>
    </TTGlyph>
    <TTGlyph name="Hcircumflex" xMin="164" yMin="0" xMax="1056" yMax="1888">
      <component glyphName="H" x="0" y="0" flags="0x204"/>
      <component glyphName="uni0302.case" x="210" y="0" flags="0x4"/>
    </TTGlyph>
    <TTGlyph name="I" xMin="164" yMin="0" xMax="232" yMax="1480">
      <contour>
        <pt x="164" y="0" on="1"/>
        <pt x="164" y="1480" on="1"/>
        <pt x="232" y="1480" on="1"/>
        <pt x="232" y="0" on="1"/>
      </contour>
    </TTGlyph>
    <TTGlyph name="I_J.loclNLD" xMin="164" yMin="-340" xMax="628" yMax="1480">
      <component glyphName="I" x="0" y="0" flags="0x4"/>
      <component glyphName="J" x="396" y="0" flags="0x4"/>
    </TTGlyph>
    <TTGlyph name="Iacute" xMin="164" yMin="0" xMax="370" yMax="1888">
      <component glyphName="I" x="0" y="0" flags="0x204"/>
      <component glyphName="acutecomb.case" x="-202" y="0" flags="0x4"/>
    </TTGlyph>
    <TTGlyph name="Iacute_J.loclNLD" xMin="164" yMin="-340" xMax="766" yMax="1888">
      <component glyphName="I" x="0" y="0" flags="0x4"/>
      <component glyphName="acutecomb.case" x="-202" y="0" flags="0x4"/>
      <component glyphName="J" x="396" y="0" flags="0x4"/>
      <component glyphName="acutecomb.case" x="194" y="0" flags="0x4"/>
    </TTGlyph>
    <TTGlyph name="Ibreve" xMin="-44" yMin="0" xMax="440" yMax="1860">
      <component glyphName="I" x="0" y="0" flags="0x204"/>
      <component glyphName="uni0306.case" x="-202" y="0" flags="0x4"/>
    </TTGlyph>
    <TTGlyph name="Icircumflex" xMin="-36" yMin="0" xMax="432" yMax="1888">
      <component glyphName="I" x="0" y="0" flags="0x204"/>
      <component glyphName="uni0302.case" x="-202" y="0" flags="0x4"/>
    </TTGlyph>
    <TTGlyph name="Idieresis" xMin="-44" yMin="0" xMax="440" yMax="1816">
      <component glyphName="I" x="0" y="0" flags="0x204"/>
      <component glyphName="uni0308.case" x="-202" y="0" flags="0x4"/>
    </TTGlyph>
    <TTGlyph name="Idotaccent" xMin="136" yMin="0" xMax="260" yMax="1816">
      <component glyphName="I" x="0" y="0" flags="0x204"/>
      <component glyphName="uni0307.case" x="-202" y="0" flags="0x4"/>
    </TTGlyph>
    <TTGlyph name="Igrave" xMin="26" yMin="0" xMax="232" yMax="1888">
      <component glyphName="I" x="0" y="0" flags="0x204"/>
      <component glyphName="gravecomb.case" x="-202" y="0" flags="0x4"/>
    </TTGlyph>
    <TTGlyph name="Imacron" xMin="-42" yMin="0" xMax="438" yMax="1782">
      <component glyphName="I" x="0" y="0" flags="0x204"/>
      <component glyphName="uni0304.case" x="-202" y="0" flags="0x4"/>
    </TTGlyph>
    <TTGlyph name="Iogonek" xMin="0" yMin="-400" xMax="344" yMax="1480">
      <component glyphName="I" x="0" y="0" flags="0x204"/>
      <component glyphName="uni0328.case" x="-168" y="0" flags="0x4"/>
    </TTGlyph>
    <TTGlyph name="Itilde" xMin="-64" yMin="0" xMax="460" yMax="1830">
      <component glyphName="I" x="0" y="0" flags="0x204"/>
      <component glyphName="tildecomb.case" x="-202" y="0" flags="0x4"/>
    </TTGlyph>
    <TTGlyph name="J" xMin="-6" yMin="-340" xMax="232" yMax="1480">
      <contour>
        <pt x="44" y="-340" on="1"/>
        <pt x="-6" y="-306" on="1"/>
        <pt x="54" y="-211" on="0"/>
        <pt x="129" y="-35" on="0"/>
        <pt x="164" y="161" on="0"/>
        <pt x="164" y="286" on="1"/>
        <pt x="164" y="1480" on="1"/>
        <pt x="232" y="1480" on="1"/>
        <pt x="232" y="256" on="1"/>
        <pt x="228" y="139" on="0"/>
        <pt x="189" y="-54" on="0"/>
        <pt x="109" y="-238" on="0"/>
      </contour>
    </TTGlyph>
    <TTGlyph name="Jcircumflex" xMin="-36" yMin="-340" xMax="432" yMax="1888">
      <component glyphName="J" x="0" y="0" flags="0x204"/>
      <component glyphName="uni0302.case" x="-202" y="0" flags="0x4"/>
    </TTGlyph>
    <TTGlyph name="K" xMin="164" yMin="0" xMax="1078" yMax="1480">
      <contour>
        <pt x="996" y="0" on="1"/>
        <pt x="402" y="758" on="1"/>
        <pt x="956" y="1480" on="1"/>
        <pt x="1036" y="1480" on="1"/>
        <pt x="472" y="750" on="1"/>
        <pt x="472" y="774" on="1"/>
        <pt x="1078" y="0" on="1"/>
      </contour>
      <contour>
        <pt x="164" y="0" on="1"/>
        <pt x="164" y="1480" on="1"/>
        <pt x="232" y="1480" on="1"/>
        <pt x="232" y="0" on="1"/>
      </contour>
      <contour>
        <pt x="216" y="728" on="1"/>
        <pt x="216" y="792" on="1"/>
        <pt x="444" y="792" on="1"/>
        <pt x="444" y="728" on="1"/>
      </contour>
    </TTGlyph>
    <TTGlyph name="L" xMin="164" yMin="0" xMax="886" yMax="1480">
      <contour>
        <pt x="164" y="0" on="1"/>
        <pt x="164" y="1480" on="1"/>
        <pt x="232" y="1480" on="1"/>
        <pt x="232" y="66" on="1"/>
        <pt x="886" y="66" on="1"/>
        <pt x="886" y="0" on="1"/>
      </contour>
    </TTGlyph>
    <TTGlyph name="Lacute" xMin="164" yMin="0" xMax="886" yMax="1888">
      <component glyphName="L" x="0" y="0" flags="0x204"/>
      <component glyphName="acutecomb.case" x="-202" y="0" flags="0x4"/>
    </TTGlyph>
    <TTGlyph name="Lcaron" xMin="164" yMin="0" xMax="886" yMax="1616">
      <component glyphName="L" x="0" y="0" flags="0x204"/>
      <component glyphName="uni030C.alt.case" x="178" y="0" flags="0x4"/>
    </TTGlyph>
    <TTGlyph name="Ldot" xMin="164" yMin="0" xMax="886" yMax="1480">
      <component glyphName="L" x="0" y="0" flags="0x204"/>
      <component glyphName="periodcentered.CAT" x="460" y="214" flags="0x4"/>
    </TTGlyph>
    <TTGlyph name="Lslash" xMin="-4" yMin="0" xMax="886" yMax="1480">
      <component glyphName="L" x="0" y="0" flags="0x204"/>
      <component glyphName="uni0337.case" x="-202" y="0" flags="0x4"/>
    </TTGlyph>
    <TTGlyph name="M" xMin="168" yMin="0" xMax="1348" yMax="1480">
      <contour>
        <pt x="168" y="0" on="1"/>
        <pt x="168" y="1480" on="1"/>
        <pt x="244" y="1480" on="1"/>
        <pt x="776" y="232" on="1"/>
        <pt x="744" y="232" on="1"/>
        <pt x="1272" y="1480" on="1"/>
        <pt x="1348" y="1480" on="1"/>
        <pt x="1348" y="0" on="1"/>
        <pt x="1282" y="0" on="1"/>
        <pt x="1282" y="1420" on="1"/>
        <pt x="1316" y="1420" on="1"/>
        <pt x="796" y="200" on="1"/>
        <pt x="720" y="200" on="1"/>
        <pt x="198" y="1420" on="1"/>
        <pt x="234" y="1420" on="1"/>
        <pt x="234" y="0" on="1"/>
      </contour>
    </TTGlyph>
    <TTGlyph name="N" xMin="164" yMin="0" xMax="1084" yMax="1480">
      <contour>
        <pt x="164" y="0" on="1"/>
        <pt x="164" y="1480" on="1"/>
        <pt x="240" y="1480" on="1"/>
        <pt x="1050" y="60" on="1"/>
        <pt x="1018" y="60" on="1"/>
        <pt x="1018" y="1480" on="1"/>
        <pt x="1084" y="1480" on="1"/>
        <pt x="1084" y="0" on="1"/>
        <pt x="1008" y="0" on="1"/>
        <pt x="198" y="1420" on="1"/>
        <pt x="230" y="1420" on="1"/>
        <pt x="230" y="0" on="1"/>
      </contour>
    </TTGlyph>
    <TTGlyph name="Nacute" xMin="164" yMin="0" xMax="1084" yMax="1888">
      <component glyphName="N" x="0" y="0" flags="0x204"/>
      <component glyphName="acutecomb.case" x="224" y="0" flags="0x4"/>
    </TTGlyph>
    <TTGlyph name="Ncaron" xMin="164" yMin="0" xMax="1084" yMax="1888">
      <component glyphName="N" x="0" y="0" flags="0x204"/>
      <component glyphName="uni030C.case" x="224" y="0" flags="0x4"/>
    </TTGlyph>
    <TTGlyph name="Ntilde" xMin="164" yMin="0" xMax="1084" yMax="1830">
      <component glyphName="N" x="0" y="0" flags="0x204"/>
      <component glyphName="tildecomb.case" x="224" y="0" flags="0x4"/>
    </TTGlyph>
    <TTGlyph name="O" xMin="98" yMin="-18" xMax="1066" yMax="1498">
      <contour>
        <pt x="582" y="-18" on="1"/>
        <pt x="434" y="-18" on="0"/>
        <pt x="217" y="128" on="0"/>
        <pt x="98" y="461" on="0"/>
        <pt x="98" y="740" on="1"/>
        <pt x="98" y="1019" on="0"/>
        <pt x="217" y="1352" on="0"/>
        <pt x="434" y="1498" on="0"/>
        <pt x="582" y="1498" on="1"/>
        <pt x="730" y="1498" on="0"/>
        <pt x="947" y="1352" on="0"/>
        <pt x="1066" y="1019" on="0"/>
        <pt x="1066" y="740" on="1"/>
        <pt x="1066" y="461" on="0"/>
        <pt x="947" y="128" on="0"/>
        <pt x="730" y="-18" on="0"/>
      </contour>
      <contour>
        <pt x="582" y="48" on="1"/>
        <pt x="706" y="48" on="0"/>
        <pt x="891" y="171" on="0"/>
        <pt x="994" y="471" on="0"/>
        <pt x="994" y="736" on="1"/>
        <pt x="994" y="1005" on="0"/>
        <pt x="891" y="1308" on="0"/>
        <pt x="706" y="1432" on="0"/>
        <pt x="582" y="1432" on="1"/>
        <pt x="458" y="1432" on="0"/>
        <pt x="273" y="1309" on="0"/>
        <pt x="170" y="1009" on="0"/>
        <pt x="170" y="744" on="1"/>
        <pt x="170" y="475" on="0"/>
        <pt x="273" y="172" on="0"/>
        <pt x="458" y="48" on="0"/>
      </contour>
    </TTGlyph>
    <TTGlyph name="OE" xMin="98" yMin="-10" xMax="1624" yMax="1494">
      <contour>
        <pt x="728" y="-10" on="1"/>
        <pt x="525" y="-10" on="0"/>
        <pt x="244" y="143" on="0"/>
        <pt x="98" y="473" on="0"/>
        <pt x="98" y="740" on="1"/>
        <pt x="98" y="999" on="0"/>
        <pt x="234" y="1333" on="0"/>
        <pt x="502" y="1494" on="0"/>
        <pt x="700" y="1494" on="1"/>
        <pt x="783" y="1494" on="0"/>
        <pt x="897" y="1480" on="0"/>
        <pt x="940" y="1480" on="1"/>
        <pt x="1614" y="1480" on="1"/>
        <pt x="1614" y="1414" on="1"/>
        <pt x="968" y="1414" on="1"/>
        <pt x="968" y="66" on="1"/>
        <pt x="1624" y="66" on="1"/>
        <pt x="1624" y="0" on="1"/>
        <pt x="946" y="0" on="1"/>
        <pt x="916" y="0" on="0"/>
        <pt x="855" y="-5" on="0"/>
        <pt x="780" y="-10" on="0"/>
      </contour>
      <contour>
        <pt x="726" y="56" on="1"/>
        <pt x="773" y="56" on="0"/>
        <pt x="858" y="60" on="0"/>
        <pt x="900" y="66" on="1"/>
        <pt x="900" y="1414" on="1"/>
        <pt x="851" y="1422" on="0"/>
        <pt x="752" y="1428" on="0"/>
        <pt x="704" y="1428" on="1"/>
        <pt x="522" y="1428" on="0"/>
        <pt x="285" y="1286" on="0"/>
        <pt x="170" y="982" on="0"/>
        <pt x="170" y="740" on="1"/>
        <pt x="170" y="493" on="0"/>
        <pt x="295" y="192" on="0"/>
        <pt x="542" y="56" on="0"/>
      </contour>
      <contour>
        <pt x="960" y="728" on="1"/>
        <pt x="960" y="794" on="1"/>
        <pt x="1524" y="794" on="1"/>
        <pt x="1524" y="728" on="1"/>
      </contour>
    </TTGlyph>
    <TTGlyph name="Oacute" xMin="98" yMin="-18" xMax="1066" yMax="1888">
      <component glyphName="O" x="0" y="0" flags="0x204"/>
      <component glyphName="acutecomb.case" x="182" y="0" flags="0x4"/>
    </TTGlyph>
    <TTGlyph name="Obreve" xMin="98" yMin="-18" xMax="1066" yMax="1860">
      <component glyphName="O" x="0" y="0" flags="0x204"/>
      <component glyphName="uni0306.case" x="182" y="0" flags="0x4"/>
    </TTGlyph>
    <TTGlyph name="Ocircumflex" xMin="98" yMin="-18" xMax="1066" yMax="1888">
      <component glyphName="O" x="0" y="0" flags="0x204"/>
      <component glyphName="uni0302.case" x="182" y="0" flags="0x4"/>
    </TTGlyph>
    <TTGlyph name="Odieresis" xMin="98" yMin="-18" xMax="1066" yMax="1816">
      <component glyphName="O" x="0" y="0" flags="0x204"/>
      <component glyphName="uni0308.case" x="182" y="0" flags="0x4"/>
    </TTGlyph>
    <TTGlyph name="Ograve" xMin="98" yMin="-18" xMax="1066" yMax="1888">
      <component glyphName="O" x="0" y="0" flags="0x204"/>
      <component glyphName="gravecomb.case" x="182" y="0" flags="0x4"/>
    </TTGlyph>
    <TTGlyph name="Ohorn" xMin="98" yMin="-18" xMax="1066" yMax="1776">
      <contour>
        <pt x="582" y="-18" on="1"/>
        <pt x="436" y="-18" on="0"/>
        <pt x="218" y="128" on="0"/>
        <pt x="98" y="461" on="0"/>
        <pt x="98" y="740" on="1"/>
        <pt x="98" y="1019" on="0"/>
        <pt x="217" y="1352" on="0"/>
        <pt x="434" y="1498" on="0"/>
        <pt x="582" y="1498" on="1"/>
        <pt x="636" y="1498" on="0"/>
        <pt x="715" y="1487" on="0"/>
        <pt x="783" y="1476" on="0"/>
        <pt x="822" y="1476" on="1"/>
        <pt x="897" y="1476" on="0"/>
        <pt x="1000" y="1552" on="0"/>
        <pt x="1000" y="1634" on="1"/>
        <pt x="1000" y="1676" on="0"/>
        <pt x="987" y="1742" on="0"/>
        <pt x="976" y="1776" on="1"/>
        <pt x="1042" y="1776" on="1"/>
        <pt x="1054" y="1742" on="0"/>
        <pt x="1066" y="1677" on="0"/>
        <pt x="1066" y="1632" on="1"/>
        <pt x="1066" y="1561" on="0"/>
        <pt x="1005" y="1462" on="0"/>
        <pt x="899" y="1410" on="0"/>
        <pt x="832" y="1410" on="1"/>
        <pt x="842" y="1422" on="1"/>
        <pt x="949" y="1347" on="0"/>
        <pt x="1066" y="1016" on="0"/>
        <pt x="1066" y="740" on="1"/>
        <pt x="1066" y="461" on="0"/>
        <pt x="946" y="128" on="0"/>
        <pt x="728" y="-18" on="0"/>
      </contour>
      <contour>
        <pt x="582" y="48" on="1"/>
        <pt x="706" y="48" on="0"/>
        <pt x="891" y="171" on="0"/>
        <pt x="994" y="471" on="0"/>
        <pt x="994" y="736" on="1"/>
        <pt x="994" y="1005" on="0"/>
        <pt x="891" y="1308" on="0"/>
        <pt x="706" y="1432" on="0"/>
        <pt x="582" y="1432" on="1"/>
        <pt x="458" y="1432" on="0"/>
        <pt x="273" y="1309" on="0"/>
        <pt x="170" y="1009" on="0"/>
        <pt x="170" y="744" on="1"/>
        <pt x="170" y="475" on="0"/>
        <pt x="273" y="172" on="0"/>
        <pt x="458" y="48" on="0"/>
      </contour>
    </TTGlyph>
    <TTGlyph name="Ohungarumlaut" xMin="98" yMin="-18" xMax="1066" yMax="1888">
      <component glyphName="O" x="0" y="0" flags="0x204"/>
      <component glyphName="uni030B.case" x="182" y="0" flags="0x4"/>
    </TTGlyph>
    <TTGlyph name="Omacron" xMin="98" yMin="-18" xMax="1066" yMax="1782">
      <component glyphName="O" x="0" y="0" flags="0x204"/>
      <component glyphName="uni0304.case" x="182" y="0" flags="0x4"/>
    </TTGlyph>
    <TTGlyph name="Oslash" xMin="98" yMin="-18" xMax="1066" yMax="1498">
      <component glyphName="O" x="0" y="0" flags="0x204"/>
      <component glyphName="slashcomb.case" x="-18" y="0" flags="0x4"/>
    </TTGlyph>
    <TTGlyph name="Oslashacute" xMin="98" yMin="-18" xMax="1066" yMax="1888">
      <component glyphName="Oslash" x="0" y="0" flags="0x204"/>
      <component glyphName="acutecomb.case" x="184" y="0" flags="0x4"/>
    </TTGlyph>
    <TTGlyph name="Otilde" xMin="98" yMin="-18" xMax="1066" yMax="1830">
      <component glyphName="O" x="0" y="0" flags="0x204"/>
      <component glyphName="tildecomb.case" x="182" y="0" flags="0x4"/>
    </TTGlyph>
    <TTGlyph name="P" xMin="164" yMin="0" xMax="962" yMax="1494">
      <contour>
        <pt x="164" y="0" on="1"/>
        <pt x="164" y="1468" on="1"/>
        <pt x="229" y="1479" on="0"/>
        <pt x="374" y="1494" on="0"/>
        <pt x="450" y="1494" on="1"/>
        <pt x="705" y="1494" on="0"/>
        <pt x="962" y="1256" on="0"/>
        <pt x="962" y="1004" on="1"/>
        <pt x="962" y="766" on="0"/>
        <pt x="695" y="518" on="0"/>
        <pt x="408" y="518" on="1"/>
        <pt x="362" y="518" on="0"/>
        <pt x="276" y="522" on="0"/>
        <pt x="232" y="526" on="1"/>
        <pt x="232" y="0" on="1"/>
      </contour>
      <contour>
        <pt x="414" y="584" on="1"/>
        <pt x="659" y="584" on="0"/>
        <pt x="890" y="789" on="0"/>
        <pt x="890" y="1000" on="1"/>
        <pt x="890" y="1225" on="0"/>
        <pt x="675" y="1428" on="0"/>
        <pt x="450" y="1428" on="1"/>
        <pt x="393" y="1428" on="0"/>
        <pt x="285" y="1420" on="0"/>
        <pt x="232" y="1412" on="1"/>
        <pt x="232" y="594" on="1"/>
        <pt x="277" y="588" on="0"/>
        <pt x="368" y="584" on="0"/>
      </contour>
    </TTGlyph>
    <TTGlyph name="Q" xMin="98" yMin="-180" xMax="1066" yMax="1498">
      <contour>
        <pt x="1032" y="-180" on="1"/>
        <pt x="817" y="-153" on="0"/>
        <pt x="501" y="-67" on="0"/>
        <pt x="285" y="69" on="0"/>
        <pt x="155" y="269" on="0"/>
        <pt x="98" y="550" on="0"/>
        <pt x="98" y="740" on="1"/>
        <pt x="98" y="1019" on="0"/>
        <pt x="217" y="1352" on="0"/>
        <pt x="434" y="1498" on="0"/>
        <pt x="582" y="1498" on="1"/>
        <pt x="730" y="1498" on="0"/>
        <pt x="947" y="1352" on="0"/>
        <pt x="1066" y="1019" on="0"/>
        <pt x="1066" y="740" on="1"/>
        <pt x="1066" y="538" on="0"/>
        <pt x="997" y="240" on="0"/>
        <pt x="860" y="50" on="0"/>
        <pt x="652" y="-27" on="0"/>
        <pt x="512" y="-8" on="1"/>
        <pt x="492" y="22" on="1"/>
        <pt x="569" y="-18" on="0"/>
        <pt x="755" y="-72" on="0"/>
        <pt x="951" y="-105" on="0"/>
        <pt x="1044" y="-114" on="1"/>
      </contour>
      <contour>
        <pt x="582" y="48" on="1"/>
        <pt x="706" y="48" on="0"/>
        <pt x="891" y="171" on="0"/>
        <pt x="994" y="471" on="0"/>
        <pt x="994" y="736" on="1"/>
        <pt x="994" y="1005" on="0"/>
        <pt x="891" y="1308" on="0"/>
        <pt x="706" y="1432" on="0"/>
        <pt x="582" y="1432" on="1"/>
        <pt x="458" y="1432" on="0"/>
        <pt x="273" y="1309" on="0"/>
        <pt x="170" y="1009" on="0"/>
        <pt x="170" y="744" on="1"/>
        <pt x="170" y="475" on="0"/>
        <pt x="273" y="172" on="0"/>
        <pt x="458" y="48" on="0"/>
      </contour>
    </TTGlyph>
    <TTGlyph name="R" xMin="164" yMin="0" xMax="1080" yMax="1494">
      <contour>
        <pt x="164" y="0" on="1"/>
        <pt x="164" y="1468" on="1"/>
        <pt x="209" y="1475" on="0"/>
        <pt x="304" y="1487" on="0"/>
        <pt x="408" y="1494" on="0"/>
        <pt x="468" y="1494" on="1"/>
        <pt x="717" y="1494" on="0"/>
        <pt x="960" y="1286" on="0"/>
        <pt x="960" y="1080" on="1"/>
        <pt x="962" y="938" on="0"/>
        <pt x="838" y="748" on="0"/>
        <pt x="590" y="652" on="0"/>
        <pt x="406" y="652" on="1"/>
        <pt x="348" y="652" on="0"/>
        <pt x="268" y="655" on="0"/>
        <pt x="232" y="658" on="1"/>
        <pt x="232" y="0" on="1"/>
      </contour>
      <contour>
        <pt x="994" y="0" on="1"/>
        <pt x="495" y="698" on="1"/>
        <pt x="578" y="698" on="1"/>
        <pt x="1080" y="0" on="1"/>
      </contour>
      <contour>
        <pt x="400" y="716" on="1"/>
        <pt x="660" y="716" on="0"/>
        <pt x="892" y="894" on="0"/>
        <pt x="892" y="1078" on="1"/>
        <pt x="892" y="1196" on="0"/>
        <pt x="805" y="1351" on="0"/>
        <pt x="616" y="1428" on="0"/>
        <pt x="462" y="1428" on="1"/>
        <pt x="396" y="1428" on="0"/>
        <pt x="289" y="1419" on="0"/>
        <pt x="232" y="1410" on="1"/>
        <pt x="232" y="722" on="1"/>
        <pt x="266" y="720" on="0"/>
        <pt x="320" y="717" on="0"/>
        <pt x="371" y="716" on="0"/>
      </contour>
    </TTGlyph>
    <TTGlyph name="Racute" xMin="164" yMin="0" xMax="1080" yMax="1888">
      <component glyphName="R" x="0" y="0" flags="0x204"/>
      <component glyphName="acutecomb.case" x="126" y="0" flags="0x4"/>
    </TTGlyph>
    <TTGlyph name="Rcaron" xMin="164" yMin="0" xMax="1080" yMax="1888">
      <component glyphName="R" x="0" y="0" flags="0x204"/>
      <component glyphName="uni030C.case" x="126" y="0" flags="0x4"/>
    </TTGlyph>
    <TTGlyph name="S" xMin="68" yMin="-18" xMax="798" yMax="1498">
      <contour>
        <pt x="364" y="-18" on="1"/>
        <pt x="301" y="-18" on="0"/>
        <pt x="153" y="7" on="0"/>
        <pt x="82" y="32" on="1"/>
        <pt x="82" y="100" on="1"/>
        <pt x="134" y="82" on="0"/>
        <pt x="232" y="59" on="0"/>
        <pt x="325" y="48" on="0"/>
        <pt x="370" y="48" on="1"/>
        <pt x="544" y="48" on="0"/>
        <pt x="726" y="210" on="0"/>
        <pt x="726" y="372" on="1"/>
        <pt x="726" y="510" on="0"/>
        <pt x="591" y="658" on="0"/>
        <pt x="436" y="712" on="1"/>
        <pt x="384" y="730" on="1"/>
        <pt x="230" y="784" on="0"/>
        <pt x="68" y="969" on="0"/>
        <pt x="68" y="1120" on="1"/>
        <pt x="68" y="1297" on="0"/>
        <pt x="288" y="1498" on="0"/>
        <pt x="498" y="1498" on="1"/>
        <pt x="557" y="1498" on="0"/>
        <pt x="693" y="1480" on="0"/>
        <pt x="744" y="1462" on="1"/>
        <pt x="744" y="1394" on="1"/>
        <pt x="680" y="1415" on="0"/>
        <pt x="557" y="1432" on="0"/>
        <pt x="494" y="1432" on="1"/>
        <pt x="375" y="1432" on="0"/>
        <pt x="218" y="1361" on="0"/>
        <pt x="140" y="1223" on="0"/>
        <pt x="140" y="1124" on="1"/>
        <pt x="140" y="992" on="0"/>
        <pt x="270" y="847" on="0"/>
        <pt x="420" y="794" on="1"/>
        <pt x="472" y="776" on="1"/>
        <pt x="579" y="739" on="0"/>
        <pt x="724" y="631" on="0"/>
        <pt x="798" y="479" on="0"/>
        <pt x="798" y="376" on="1"/>
        <pt x="798" y="249" on="0"/>
        <pt x="697" y="73" on="0"/>
        <pt x="503" y="-18" on="0"/>
      </contour>
    </TTGlyph>
    <TTGlyph name="Sacute" xMin="68" yMin="-18" xMax="798" yMax="1888">
      <component glyphName="S" x="0" y="0" flags="0x204"/>
      <component glyphName="acutecomb.case" x="40" y="0" flags="0x4"/>
    </TTGlyph>
    <TTGlyph name="Scaron" xMin="68" yMin="-18" xMax="798" yMax="1888">
      <component glyphName="S" x="0" y="0" flags="0x204"/>
      <component glyphName="uni030C.case" x="40" y="0" flags="0x4"/>
    </TTGlyph>
    <TTGlyph name="Scedilla" xMin="68" yMin="-400" xMax="798" yMax="1498">
      <component glyphName="S" x="0" y="0" flags="0x204"/>
      <component glyphName="uni0327.case" x="40" y="0" flags="0x4"/>
    </TTGlyph>
    <TTGlyph name="Scircumflex" xMin="68" yMin="-18" xMax="798" yMax="1888">
      <component glyphName="S" x="0" y="0" flags="0x204"/>
      <component glyphName="uni0302.case" x="40" y="0" flags="0x4"/>
    </TTGlyph>
    <TTGlyph name="T" xMin="8" yMin="0" xMax="972" yMax="1480">
      <contour>
        <pt x="456" y="0" on="1"/>
        <pt x="456" y="1414" on="1"/>
        <pt x="8" y="1414" on="1"/>
        <pt x="8" y="1480" on="1"/>
        <pt x="972" y="1480" on="1"/>
        <pt x="972" y="1414" on="1"/>
        <pt x="524" y="1414" on="1"/>
        <pt x="524" y="0" on="1"/>
      </contour>
    </TTGlyph>
    <TTGlyph name="Tbar" xMin="8" yMin="0" xMax="972" yMax="1480">
      <component glyphName="T" x="0" y="0" flags="0x204"/>
      <component glyphName="uni0335.case" x="90" y="-280" flags="0x4"/>
    </TTGlyph>
    <TTGlyph name="Tcaron" xMin="8" yMin="0" xMax="972" yMax="1888">
      <component glyphName="T" x="0" y="0" flags="0x204"/>
      <component glyphName="uni030C.case" x="90" y="0" flags="0x4"/>
    </TTGlyph>
    <TTGlyph name="Thorn" xMin="164" yMin="0" xMax="962" yMax="1480">
      <contour>
        <pt x="164" y="0" on="1"/>
        <pt x="164" y="1480" on="1"/>
        <pt x="232" y="1480" on="1"/>
        <pt x="232" y="1232" on="1"/>
        <pt x="271" y="1238" on="0"/>
        <pt x="389" y="1248" on="0"/>
        <pt x="450" y="1248" on="1"/>
        <pt x="705" y="1248" on="0"/>
        <pt x="962" y="1010" on="0"/>
        <pt x="962" y="758" on="1"/>
        <pt x="962" y="520" on="0"/>
        <pt x="695" y="272" on="0"/>
        <pt x="408" y="272" on="1"/>
        <pt x="362" y="272" on="0"/>
        <pt x="276" y="276" on="0"/>
        <pt x="232" y="280" on="1"/>
        <pt x="232" y="0" on="1"/>
      </contour>
      <contour>
        <pt x="414" y="338" on="1"/>
        <pt x="659" y="338" on="0"/>
        <pt x="890" y="543" on="0"/>
        <pt x="890" y="754" on="1"/>
        <pt x="890" y="979" on="0"/>
        <pt x="675" y="1182" on="0"/>
        <pt x="450" y="1182" on="1"/>
        <pt x="393" y="1182" on="0"/>
        <pt x="285" y="1174" on="0"/>
        <pt x="232" y="1166" on="1"/>
        <pt x="232" y="348" on="1"/>
        <pt x="277" y="342" on="0"/>
        <pt x="368" y="338" on="0"/>
      </contour>
    </TTGlyph>
    <TTGlyph name="U" xMin="156" yMin="-18" xMax="1042" yMax="1480">
      <contour>
        <pt x="600" y="-18" on="1"/>
        <pt x="444" y="-18" on="0"/>
        <pt x="248" y="93" on="0"/>
        <pt x="156" y="319" on="0"/>
        <pt x="156" y="492" on="1"/>
        <pt x="156" y="1480" on="1"/>
        <pt x="224" y="1480" on="1"/>
        <pt x="224" y="482" on="1"/>
        <pt x="224" y="263" on="0"/>
        <pt x="398" y="48" on="0"/>
        <pt x="600" y="48" on="1"/>
        <pt x="803" y="48" on="0"/>
        <pt x="976" y="263" on="0"/>
        <pt x="976" y="482" on="1"/>
        <pt x="976" y="1480" on="1"/>
        <pt x="1042" y="1480" on="1"/>
        <pt x="1042" y="492" on="1"/>
        <pt x="1042" y="319" on="0"/>
        <pt x="951" y="93" on="0"/>
        <pt x="756" y="-18" on="0"/>
      </contour>
    </TTGlyph>
    <TTGlyph name="Uacute" xMin="156" yMin="-18" xMax="1042" yMax="1888">
      <component glyphName="U" x="0" y="0" flags="0x204"/>
      <component glyphName="acutecomb.case" x="200" y="0" flags="0x4"/>
    </TTGlyph>
    <TTGlyph name="Ubreve" xMin="156" yMin="-18" xMax="1042" yMax="1860">
      <component glyphName="U" x="0" y="0" flags="0x204"/>
      <component glyphName="uni0306.case" x="200" y="0" flags="0x4"/>
    </TTGlyph>
    <TTGlyph name="Ucircumflex" xMin="156" yMin="-18" xMax="1042" yMax="1888">
      <component glyphName="U" x="0" y="0" flags="0x204"/>
      <component glyphName="uni0302.case" x="200" y="0" flags="0x4"/>
    </TTGlyph>
    <TTGlyph name="Udieresis" xMin="156" yMin="-18" xMax="1042" yMax="1816">
      <component glyphName="U" x="0" y="0" flags="0x204"/>
      <component glyphName="uni0308.case" x="200" y="0" flags="0x4"/>
    </TTGlyph>
    <TTGlyph name="Ugrave" xMin="156" yMin="-18" xMax="1042" yMax="1888">
      <component glyphName="U" x="0" y="0" flags="0x204"/>
      <component glyphName="gravecomb.case" x="200" y="0" flags="0x4"/>
    </TTGlyph>
    <TTGlyph name="Uhorn" xMin="156" yMin="-18" xMax="1252" yMax="1776">
      <contour>
        <pt x="600" y="-18" on="1"/>
        <pt x="444" y="-18" on="0"/>
        <pt x="248" y="93" on="0"/>
        <pt x="156" y="319" on="0"/>
        <pt x="156" y="492" on="1"/>
        <pt x="156" y="1480" on="1"/>
        <pt x="224" y="1480" on="1"/>
        <pt x="224" y="482" on="1"/>
        <pt x="224" y="263" on="0"/>
        <pt x="398" y="48" on="0"/>
        <pt x="600" y="48" on="1"/>
        <pt x="803" y="48" on="0"/>
        <pt x="976" y="263" on="0"/>
        <pt x="976" y="482" on="1"/>
        <pt x="976" y="1480" on="1"/>
        <pt x="1008" y="1480" on="1"/>
        <pt x="1083" y="1480" on="0"/>
        <pt x="1186" y="1552" on="0"/>
        <pt x="1186" y="1634" on="1"/>
        <pt x="1186" y="1676" on="0"/>
        <pt x="1173" y="1742" on="0"/>
        <pt x="1162" y="1776" on="1"/>
        <pt x="1228" y="1776" on="1"/>
        <pt x="1240" y="1742" on="0"/>
        <pt x="1252" y="1677" on="0"/>
        <pt x="1252" y="1632" on="1"/>
        <pt x="1252" y="1530" on="0"/>
        <pt x="1132" y="1423" on="0"/>
        <pt x="1042" y="1418" on="1"/>
        <pt x="1042" y="492" on="1"/>
        <pt x="1042" y="319" on="0"/>
        <pt x="951" y="93" on="0"/>
        <pt x="756" y="-18" on="0"/>
      </contour>
    </TTGlyph>
    <TTGlyph name="Uhungarumlaut" xMin="156" yMin="-18" xMax="1042" yMax="1888">
      <component glyphName="U" x="0" y="0" flags="0x204"/>
      <component glyphName="uni030B.case" x="200" y="0" flags="0x4"/>
    </TTGlyph>
    <TTGlyph name="Umacron" xMin="156" yMin="-18" xMax="1042" yMax="1782">
      <component glyphName="U" x="0" y="0" flags="0x204"/>
      <component glyphName="uni0304.case" x="200" y="0" flags="0x4"/>
    </TTGlyph>
    <TTGlyph name="Uogonek" xMin="156" yMin="-400" xMax="1042" yMax="1480">
      <contour>
        <pt x="684" y="-400" on="1"/>
        <pt x="590" y="-400" on="0"/>
        <pt x="486" y="-314" on="0"/>
        <pt x="486" y="-232" on="1"/>
        <pt x="486" y="-166" on="0"/>
        <pt x="554" y="-50" on="0"/>
        <pt x="632" y="-4" on="1"/>
        <pt x="640" y="-18" on="1"/>
        <pt x="600" y="-18" on="1"/>
        <pt x="444" y="-18" on="0"/>
        <pt x="248" y="93" on="0"/>
        <pt x="156" y="319" on="0"/>
        <pt x="156" y="492" on="1"/>
        <pt x="156" y="1480" on="1"/>
        <pt x="224" y="1480" on="1"/>
        <pt x="224" y="482" on="1"/>
        <pt x="224" y="263" on="0"/>
        <pt x="398" y="48" on="0"/>
        <pt x="600" y="48" on="1"/>
        <pt x="803" y="48" on="0"/>
        <pt x="976" y="263" on="0"/>
        <pt x="976" y="482" on="1"/>
        <pt x="976" y="1480" on="1"/>
        <pt x="1042" y="1480" on="1"/>
        <pt x="1042" y="492" on="1"/>
        <pt x="1042" y="312" on="0"/>
        <pt x="932" y="56" on="0"/>
        <pt x="780" y="6" on="1"/>
        <pt x="683" y="-26" on="0"/>
        <pt x="580" y="-105" on="0"/>
        <pt x="542" y="-189" on="0"/>
        <pt x="542" y="-228" on="1"/>
        <pt x="542" y="-289" on="0"/>
        <pt x="613" y="-348" on="0"/>
        <pt x="682" y="-348" on="1"/>
        <pt x="714" y="-348" on="0"/>
        <pt x="784" y="-330" on="0"/>
        <pt x="830" y="-308" on="1"/>
        <pt x="830" y="-362" on="1"/>
        <pt x="793" y="-381" on="0"/>
        <pt x="720" y="-400" on="0"/>
      </contour>
    </TTGlyph>
    <TTGlyph name="Uring" xMin="156" yMin="-18" xMax="1042" yMax="1978">
      <component glyphName="U" x="0" y="0" flags="0x204"/>
      <component glyphName="uni030A.case" x="200" y="0" flags="0x4"/>
    </TTGlyph>
    <TTGlyph name="Utilde" xMin="156" yMin="-18" xMax="1042" yMax="1830">
      <component glyphName="U" x="0" y="0" flags="0x204"/>
      <component glyphName="tildecomb.case" x="200" y="0" flags="0x4"/>
    </TTGlyph>
    <TTGlyph name="V" xMin="10" yMin="0" xMax="1088" yMax="1480">
      <contour>
        <pt x="502" y="0" on="1"/>
        <pt x="10" y="1480" on="1"/>
        <pt x="84" y="1480" on="1"/>
        <pt x="558" y="40" on="1"/>
        <pt x="542" y="40" on="1"/>
        <pt x="1018" y="1480" on="1"/>
        <pt x="1088" y="1480" on="1"/>
        <pt x="596" y="0" on="1"/>
      </contour>
    </TTGlyph>
    <TTGlyph name="W" xMin="56" yMin="0" xMax="1716" yMax="1480">
      <contour>
        <pt x="434" y="0" on="1"/>
        <pt x="56" y="1480" on="1"/>
        <pt x="128" y="1480" on="1"/>
        <pt x="490" y="40" on="1"/>
        <pt x="474" y="40" on="1"/>
        <pt x="840" y="1480" on="1"/>
        <pt x="934" y="1480" on="1"/>
        <pt x="1300" y="40" on="1"/>
        <pt x="1284" y="40" on="1"/>
        <pt x="1648" y="1480" on="1"/>
        <pt x="1716" y="1480" on="1"/>
        <pt x="1338" y="0" on="1"/>
        <pt x="1244" y="0" on="1"/>
        <pt x="880" y="1430" on="1"/>
        <pt x="894" y="1430" on="1"/>
        <pt x="528" y="0" on="1"/>
      </contour>
    </TTGlyph>
    <TTGlyph name="Wacute" xMin="56" yMin="0" xMax="1716" yMax="1888">
      <component glyphName="W" x="0" y="0" flags="0x204"/>
      <component glyphName="acutecomb.case" x="488" y="0" flags="0x4"/>
    </TTGlyph>
    <TTGlyph name="Wcircumflex" xMin="56" yMin="0" xMax="1716" yMax="1888">
      <component glyphName="W" x="0" y="0" flags="0x204"/>
      <component glyphName="uni0302.case" x="488" y="0" flags="0x4"/>
    </TTGlyph>
    <TTGlyph name="Wdieresis" xMin="56" yMin="0" xMax="1716" yMax="1816">
      <component glyphName="W" x="0" y="0" flags="0x204"/>
      <component glyphName="uni0308.case" x="488" y="0" flags="0x4"/>
    </TTGlyph>
    <TTGlyph name="Wgrave" xMin="56" yMin="0" xMax="1716" yMax="1888">
      <component glyphName="W" x="0" y="0" flags="0x204"/>
      <component glyphName="gravecomb.case" x="488" y="0" flags="0x4"/>
    </TTGlyph>
    <TTGlyph name="X" xMin="32" yMin="0" xMax="1044" yMax="1480">
      <contour>
        <pt x="962" y="0" on="1"/>
        <pt x="538" y="684" on="1"/>
        <pt x="498" y="748" on="1"/>
        <pt x="42" y="1480" on="1"/>
        <pt x="122" y="1480" on="1"/>
        <pt x="538" y="810" on="1"/>
        <pt x="578" y="748" on="1"/>
        <pt x="1044" y="0" on="1"/>
      </contour>
      <contour>
        <pt x="32" y="0" on="1"/>
        <pt x="498" y="748" on="1"/>
        <pt x="538" y="810" on="1"/>
        <pt x="954" y="1480" on="1"/>
        <pt x="1034" y="1480" on="1"/>
        <pt x="578" y="748" on="1"/>
        <pt x="538" y="684" on="1"/>
        <pt x="112" y="0" on="1"/>
      </contour>
    </TTGlyph>
    <TTGlyph name="Y" xMin="-22" yMin="0" xMax="994" yMax="1480">
      <contour>
        <pt x="456" y="0" on="1"/>
        <pt x="456" y="708" on="1"/>
        <pt x="472" y="652" on="1"/>
        <pt x="-22" y="1480" on="1"/>
        <pt x="56" y="1480" on="1"/>
        <pt x="504" y="724" on="1"/>
        <pt x="476" y="724" on="1"/>
        <pt x="918" y="1480" on="1"/>
        <pt x="994" y="1480" on="1"/>
        <pt x="508" y="652" on="1"/>
        <pt x="524" y="708" on="1"/>
        <pt x="524" y="0" on="1"/>
      </contour>
    </TTGlyph>
    <TTGlyph name="Yacute" xMin="-22" yMin="0" xMax="994" yMax="1888">
      <component glyphName="Y" x="0" y="0" flags="0x204"/>
      <component glyphName="acutecomb.case" x="90" y="0" flags="0x4"/>
    </TTGlyph>
    <TTGlyph name="Ycircumflex" xMin="-22" yMin="0" xMax="994" yMax="1888">
      <component glyphName="Y" x="0" y="0" flags="0x204"/>
      <component glyphName="uni0302.case" x="90" y="0" flags="0x4"/>
    </TTGlyph>
    <TTGlyph name="Ydieresis" xMin="-22" yMin="0" xMax="994" yMax="1816">
      <component glyphName="Y" x="0" y="0" flags="0x204"/>
      <component glyphName="uni0308.case" x="90" y="0" flags="0x4"/>
    </TTGlyph>
    <TTGlyph name="Ygrave" xMin="-22" yMin="0" xMax="994" yMax="1888">
      <component glyphName="Y" x="0" y="0" flags="0x204"/>
      <component glyphName="gravecomb.case" x="90" y="0" flags="0x4"/>
    </TTGlyph>
    <TTGlyph name="Z" xMin="56" yMin="0" xMax="894" yMax="1480">
      <contour>
        <pt x="56" y="0" on="1"/>
        <pt x="56" y="40" on="1"/>
        <pt x="810" y="1442" on="1"/>
        <pt x="826" y="1416" on="1"/>
        <pt x="66" y="1416" on="1"/>
        <pt x="66" y="1480" on="1"/>
        <pt x="884" y="1480" on="1"/>
        <pt x="884" y="1440" on="1"/>
        <pt x="130" y="38" on="1"/>
        <pt x="114" y="64" on="1"/>
        <pt x="894" y="64" on="1"/>
        <pt x="894" y="0" on="1"/>
      </contour>
    </TTGlyph>
    <TTGlyph name="Zacute" xMin="56" yMin="0" xMax="894" yMax="1888">
      <component glyphName="Z" x="0" y="0" flags="0x204"/>
      <component glyphName="acutecomb.case" x="76" y="0" flags="0x4"/>
    </TTGlyph>
    <TTGlyph name="Zcaron" xMin="56" yMin="0" xMax="894" yMax="1888">
      <component glyphName="Z" x="0" y="0" flags="0x204"/>
      <component glyphName="uni030C.case" x="76" y="0" flags="0x4"/>
    </TTGlyph>
    <TTGlyph name="Zdotaccent" xMin="56" yMin="0" xMax="894" yMax="1816">
      <component glyphName="Z" x="0" y="0" flags="0x204"/>
      <component glyphName="uni0307.case" x="76" y="0" flags="0x4"/>
    </TTGlyph>
    <TTGlyph name="a" xMin="82" yMin="-16" xMax="718" yMax="1096">
      <contour>
        <pt x="366" y="-16" on="1"/>
        <pt x="240" y="-16" on="0"/>
        <pt x="82" y="128" on="0"/>
        <pt x="82" y="266" on="1"/>
        <pt x="82" y="404" on="0"/>
        <pt x="244" y="558" on="0"/>
        <pt x="410" y="576" on="1"/>
        <pt x="686" y="608" on="1"/>
        <pt x="696" y="542" on="1"/>
        <pt x="408" y="510" on="1"/>
        <pt x="278" y="497" on="0"/>
        <pt x="156" y="379" on="0"/>
        <pt x="156" y="274" on="1"/>
        <pt x="156" y="159" on="0"/>
        <pt x="269" y="50" on="0"/>
        <pt x="372" y="50" on="1"/>
        <pt x="441" y="50" on="0"/>
        <pt x="592" y="123" on="0"/>
        <pt x="650" y="222" on="1"/>
        <pt x="650" y="756" on="1"/>
        <pt x="650" y="864" on="0"/>
        <pt x="589" y="983" on="0"/>
        <pt x="472" y="1030" on="0"/>
        <pt x="388" y="1030" on="1"/>
        <pt x="336" y="1030" on="0"/>
        <pt x="204" y="1008" on="0"/>
        <pt x="136" y="984" on="1"/>
        <pt x="136" y="1052" on="1"/>
        <pt x="190" y="1073" on="0"/>
        <pt x="330" y="1096" on="0"/>
        <pt x="390" y="1096" on="1"/>
        <pt x="495" y="1096" on="0"/>
        <pt x="642" y="1033" on="0"/>
        <pt x="718" y="883" on="0"/>
        <pt x="718" y="754" on="1"/>
        <pt x="718" y="0" on="1"/>
        <pt x="658" y="0" on="1"/>
        <pt x="652" y="122" on="1"/>
        <pt x="644" y="122" on="1"/>
        <pt x="595" y="53" on="0"/>
        <pt x="452" y="-16" on="0"/>
      </contour>
    </TTGlyph>
    <TTGlyph name="a.sc" xMin="28" yMin="0" xMax="956" yMax="1190">
      <contour>
        <pt x="28" y="0" on="1"/>
        <pt x="446" y="1190" on="1"/>
        <pt x="536" y="1190" on="1"/>
        <pt x="956" y="0" on="1"/>
        <pt x="882" y="0" on="1"/>
        <pt x="480" y="1150" on="1"/>
        <pt x="500" y="1150" on="1"/>
        <pt x="98" y="0" on="1"/>
      </contour>
      <contour>
        <pt x="216" y="416" on="1"/>
        <pt x="234" y="480" on="1"/>
        <pt x="748" y="480" on="1"/>
        <pt x="766" y="416" on="1"/>
      </contour>
    </TTGlyph>
    <TTGlyph name="aacute" xMin="82" yMin="-16" xMax="718" yMax="1616">
      <component glyphName="a" x="0" y="0" flags="0x204"/>
      <component glyphName="acutecomb" x="20" y="0" flags="0x4"/>
    </TTGlyph>
    <TTGlyph name="aacute.sc" xMin="28" yMin="0" xMax="956" yMax="1598">
      <component glyphName="a.sc" x="0" y="0" flags="0x204"/>
      <component glyphName="acutecomb.sc" x="92" y="-290" flags="0x4"/>
    </TTGlyph>
    <TTGlyph name="abreve" xMin="82" yMin="-16" xMax="718" yMax="1588">
      <component glyphName="a" x="0" y="0" flags="0x204"/>
      <component glyphName="uni0306" x="20" y="0" flags="0x4"/>
    </TTGlyph>
    <TTGlyph name="abreve.sc" xMin="28" yMin="0" xMax="956" yMax="1570">
      <component glyphName="a.sc" x="0" y="0" flags="0x204"/>
      <component glyphName="uni0306.sc" x="92" y="-290" flags="0x4"/>
    </TTGlyph>
    <TTGlyph name="acircumflex" xMin="82" yMin="-16" xMax="718" yMax="1616">
      <component glyphName="a" x="0" y="0" flags="0x204"/>
      <component glyphName="uni0302" x="20" y="0" flags="0x4"/>
    </TTGlyph>
    <TTGlyph name="acircumflex.sc" xMin="28" yMin="0" xMax="956" yMax="1598">
      <component glyphName="a.sc" x="0" y="0" flags="0x204"/>
      <component glyphName="uni0302.sc" x="92" y="-290" flags="0x4"/>
    </TTGlyph>
    <TTGlyph name="acute" xMin="372" yMin="1264" xMax="592" yMax="1616">
      <component glyphName="acutecomb" x="0" y="0" flags="0x4"/>
    </TTGlyph>
    <TTGlyph name="acutecomb" xMin="372" yMin="1264" xMax="592" yMax="1616">
      <contour>
        <pt x="372" y="1264" on="1"/>
        <pt x="520" y="1616" on="1"/>
        <pt x="592" y="1616" on="1"/>
        <pt x="428" y="1264" on="1"/>
      </contour>
    </TTGlyph>
    <TTGlyph name="acutecomb.case" xMin="372" yMin="1616" xMax="572" yMax="1888">
      <contour>
        <pt x="372" y="1616" on="1"/>
        <pt x="500" y="1888" on="1"/>
        <pt x="572" y="1888" on="1"/>
        <pt x="428" y="1616" on="1"/>
      </contour>
    </TTGlyph>
    <TTGlyph name="acutecomb.sc" xMin="372" yMin="1616" xMax="572" yMax="1888">
      <component glyphName="acutecomb.case" x="0" y="0" flags="0x204"/>
    </TTGlyph>
    <TTGlyph name="adieresis" xMin="82" yMin="-16" xMax="718" yMax="1486">
      <component glyphName="a" x="0" y="0" flags="0x204"/>
      <component glyphName="uni0308" x="20" y="0" flags="0x4"/>
    </TTGlyph>
    <TTGlyph name="adieresis.sc" xMin="28" yMin="0" xMax="956" yMax="1526">
      <component glyphName="a.sc" x="0" y="0" flags="0x204"/>
      <component glyphName="uni0308.sc" x="92" y="-290" flags="0x4"/>
    </TTGlyph>
    <TTGlyph name="ae" xMin="82" yMin="-18" xMax="1322" yMax="1098">
      <contour>
        <pt x="1050" y="-18" on="1"/>
        <pt x="920" y="-18" on="0"/>
        <pt x="742" y="89" on="0"/>
        <pt x="650" y="333" on="0"/>
        <pt x="650" y="540" on="1"/>
        <pt x="656" y="550" on="1"/>
        <pt x="656" y="755" on="0"/>
        <pt x="740" y="995" on="0"/>
        <pt x="890" y="1098" on="0"/>
        <pt x="988" y="1098" on="1"/>
        <pt x="1089" y="1098" on="0"/>
        <pt x="1239" y="995" on="0"/>
        <pt x="1322" y="751" on="0"/>
        <pt x="1322" y="540" on="1"/>
        <pt x="1322" y="510" on="1"/>
        <pt x="690" y="510" on="1"/>
        <pt x="690" y="576" on="1"/>
        <pt x="1266" y="576" on="1"/>
        <pt x="1250" y="540" on="1"/>
        <pt x="1250" y="737" on="0"/>
        <pt x="1183" y="950" on="0"/>
        <pt x="1065" y="1032" on="0"/>
        <pt x="988" y="1032" on="1"/>
        <pt x="911" y="1032" on="0"/>
        <pt x="789" y="949" on="0"/>
        <pt x="718" y="740" on="0"/>
        <pt x="718" y="552" on="1"/>
        <pt x="718" y="534" on="1"/>
        <pt x="718" y="349" on="0"/>
        <pt x="794" y="137" on="0"/>
        <pt x="944" y="48" on="0"/>
        <pt x="1054" y="48" on="1"/>
        <pt x="1098" y="48" on="0"/>
        <pt x="1204" y="68" on="0"/>
        <pt x="1274" y="90" on="1"/>
        <pt x="1274" y="22" on="1"/>
        <pt x="1210" y="0" on="0"/>
        <pt x="1100" y="-18" on="0"/>
      </contour>
      <contour>
        <pt x="368" y="-16" on="1"/>
        <pt x="285" y="-16" on="0"/>
        <pt x="156" y="47" on="0"/>
        <pt x="82" y="171" on="0"/>
        <pt x="82" y="262" on="1"/>
        <pt x="82" y="354" on="0"/>
        <pt x="153" y="496" on="0"/>
        <pt x="311" y="576" on="0"/>
        <pt x="442" y="576" on="1"/>
        <pt x="686" y="576" on="1"/>
        <pt x="686" y="510" on="1"/>
        <pt x="440" y="510" on="1"/>
        <pt x="335" y="510" on="0"/>
        <pt x="211" y="448" on="0"/>
        <pt x="156" y="340" on="0"/>
        <pt x="156" y="270" on="1"/>
        <pt x="156" y="158" on="0"/>
        <pt x="272" y="50" on="0"/>
        <pt x="374" y="50" on="1"/>
        <pt x="461" y="50" on="0"/>
        <pt x="628" y="151" on="0"/>
        <pt x="682" y="286" on="1"/>
        <pt x="720" y="222" on="1"/>
        <pt x="651" y="84" on="0"/>
        <pt x="467" y="-16" on="0"/>
      </contour>
      <contour>
        <pt x="650" y="540" on="1"/>
        <pt x="650" y="762" on="1"/>
        <pt x="650" y="867" on="0"/>
        <pt x="589" y="984" on="0"/>
        <pt x="472" y="1030" on="0"/>
        <pt x="388" y="1030" on="1"/>
        <pt x="336" y="1030" on="0"/>
        <pt x="204" y="1008" on="0"/>
        <pt x="136" y="984" on="1"/>
        <pt x="136" y="1052" on="1"/>
        <pt x="190" y="1073" on="0"/>
        <pt x="330" y="1096" on="0"/>
        <pt x="390" y="1096" on="1"/>
        <pt x="494" y="1096" on="0"/>
        <pt x="638" y="1033" on="0"/>
        <pt x="712" y="886" on="0"/>
        <pt x="712" y="760" on="1"/>
        <pt x="712" y="530" on="1"/>
      </contour>
    </TTGlyph>
    <TTGlyph name="ae.sc" xMin="28" yMin="0" xMax="1306" yMax="1190">
      <contour>
        <pt x="28" y="0" on="1"/>
        <pt x="456" y="1190" on="1"/>
        <pt x="692" y="1190" on="1"/>
        <pt x="692" y="1126" on="1"/>
        <pt x="502" y="1126" on="1"/>
        <pt x="98" y="0" on="1"/>
      </contour>
      <contour>
        <pt x="218" y="416" on="1"/>
        <pt x="236" y="480" on="1"/>
        <pt x="714" y="480" on="1"/>
        <pt x="714" y="416" on="1"/>
      </contour>
      <contour>
        <pt x="706" y="0" on="1"/>
        <pt x="650" y="1190" on="1"/>
        <pt x="1298" y="1190" on="1"/>
        <pt x="1298" y="1126" on="1"/>
        <pt x="720" y="1126" on="1"/>
        <pt x="772" y="64" on="1"/>
        <pt x="1306" y="64" on="1"/>
        <pt x="1306" y="0" on="1"/>
      </contour>
      <contour>
        <pt x="728" y="578" on="1"/>
        <pt x="728" y="642" on="1"/>
        <pt x="1220" y="642" on="1"/>
        <pt x="1220" y="578" on="1"/>
      </contour>
    </TTGlyph>
    <TTGlyph name="aeacute" xMin="82" yMin="-18" xMax="1322" yMax="1616">
      <component glyphName="ae" x="0" y="0" flags="0x204"/>
      <component glyphName="acutecomb" x="284" y="0" flags="0x4"/>
    </TTGlyph>
    <TTGlyph name="aeacute.sc" xMin="28" yMin="0" xMax="1306" yMax="1598">
      <component glyphName="ae.sc" x="0" y="0" flags="0x204"/>
      <component glyphName="acutecomb.sc" x="286" y="-290" flags="0x4"/>
    </TTGlyph>
    <TTGlyph name="agrave" xMin="82" yMin="-16" xMax="718" yMax="1616">
      <component glyphName="a" x="0" y="0" flags="0x204"/>
      <component glyphName="gravecomb" x="20" y="0" flags="0x4"/>
    </TTGlyph>
    <TTGlyph name="agrave.sc" xMin="28" yMin="0" xMax="956" yMax="1598">
      <component glyphName="a.sc" x="0" y="0" flags="0x204"/>
      <component glyphName="gravecomb.sc" x="92" y="-290" flags="0x4"/>
    </TTGlyph>
    <TTGlyph name="amacron" xMin="82" yMin="-16" xMax="718" yMax="1452">
      <component glyphName="a" x="0" y="0" flags="0x204"/>
      <component glyphName="uni0304" x="20" y="0" flags="0x4"/>
    </TTGlyph>
    <TTGlyph name="amacron.sc" xMin="28" yMin="0" xMax="956" yMax="1492">
      <component glyphName="a.sc" x="0" y="0" flags="0x204"/>
      <component glyphName="uni0304.sc" x="92" y="-290" flags="0x4"/>
    </TTGlyph>
    <TTGlyph name="ampersand" xMin="140" yMin="-20" xMax="1248" yMax="1498">
      <contour>
        <pt x="1202" y="-20" on="1"/>
        <pt x="556" y="598" on="1"/>
        <pt x="451" y="699" on="0"/>
        <pt x="330" y="860" on="0"/>
        <pt x="280" y="1011" on="0"/>
        <pt x="280" y="1098" on="1"/>
        <pt x="280" y="1293" on="0"/>
        <pt x="497" y="1498" on="0"/>
        <pt x="708" y="1498" on="1"/>
        <pt x="753" y="1498" on="0"/>
        <pt x="845" y="1487" on="0"/>
        <pt x="888" y="1476" on="1"/>
        <pt x="888" y="1408" on="1"/>
        <pt x="833" y="1423" on="0"/>
        <pt x="746" y="1432" on="0"/>
        <pt x="704" y="1432" on="1"/>
        <pt x="586" y="1432" on="0"/>
        <pt x="430" y="1358" on="0"/>
        <pt x="352" y="1210" on="0"/>
        <pt x="352" y="1100" on="1"/>
        <pt x="352" y="1023" on="0"/>
        <pt x="395" y="888" on="0"/>
        <pt x="503" y="742" on="0"/>
        <pt x="602" y="648" on="1"/>
        <pt x="1248" y="30" on="1"/>
      </contour>
      <contour>
        <pt x="580" y="-18" on="1"/>
        <pt x="445" y="-18" on="0"/>
        <pt x="248" y="86" on="0"/>
        <pt x="140" y="276" on="0"/>
        <pt x="140" y="404" on="1"/>
        <pt x="140" y="496" on="0"/>
        <pt x="196" y="652" on="0"/>
        <pt x="304" y="775" on="0"/>
        <pt x="382" y="818" on="1"/>
        <pt x="416" y="762" on="1"/>
        <pt x="316" y="707" on="0"/>
        <pt x="212" y="529" on="0"/>
        <pt x="212" y="410" on="1"/>
        <pt x="212" y="299" on="0"/>
        <pt x="300" y="137" on="0"/>
        <pt x="465" y="48" on="0"/>
        <pt x="582" y="48" on="1"/>
        <pt x="702" y="48" on="0"/>
        <pt x="878" y="137" on="0"/>
        <pt x="974" y="329" on="0"/>
        <pt x="974" y="484" on="1"/>
        <pt x="974" y="549" on="0"/>
        <pt x="956" y="693" on="0"/>
        <pt x="936" y="760" on="1"/>
        <pt x="1006" y="760" on="1"/>
        <pt x="1024" y="693" on="0"/>
        <pt x="1040" y="549" on="0"/>
        <pt x="1040" y="486" on="1"/>
        <pt x="1040" y="317" on="0"/>
        <pt x="927" y="93" on="0"/>
        <pt x="720" y="-18" on="0"/>
      </contour>
    </TTGlyph>
    <TTGlyph name="ampersand.sc" xMin="92" yMin="-16" xMax="1048" yMax="1204">
      <contour>
        <pt x="1004" y="-16" on="1"/>
        <pt x="446" y="480" on="1"/>
        <pt x="356" y="560" on="0"/>
        <pt x="253" y="688" on="0"/>
        <pt x="210" y="810" on="0"/>
        <pt x="210" y="880" on="1"/>
        <pt x="210" y="1038" on="0"/>
        <pt x="398" y="1204" on="0"/>
        <pt x="582" y="1204" on="1"/>
        <pt x="621" y="1204" on="0"/>
        <pt x="701" y="1195" on="0"/>
        <pt x="738" y="1186" on="1"/>
        <pt x="738" y="1120" on="1"/>
        <pt x="690" y="1131" on="0"/>
        <pt x="616" y="1138" on="0"/>
        <pt x="580" y="1138" on="1"/>
        <pt x="479" y="1138" on="0"/>
        <pt x="347" y="1081" on="0"/>
        <pt x="282" y="966" on="0"/>
        <pt x="282" y="880" on="1"/>
        <pt x="282" y="821" on="0"/>
        <pt x="318" y="717" on="0"/>
        <pt x="408" y="603" on="0"/>
        <pt x="490" y="530" on="1"/>
        <pt x="1048" y="34" on="1"/>
      </contour>
      <contour>
        <pt x="470" y="-14" on="1"/>
        <pt x="295" y="-14" on="0"/>
        <pt x="92" y="170" on="0"/>
        <pt x="92" y="324" on="1"/>
        <pt x="92" y="399" on="0"/>
        <pt x="140" y="524" on="0"/>
        <pt x="232" y="622" on="0"/>
        <pt x="298" y="656" on="1"/>
        <pt x="332" y="606" on="1"/>
        <pt x="248" y="563" on="0"/>
        <pt x="162" y="424" on="0"/>
        <pt x="162" y="332" on="1"/>
        <pt x="162" y="245" on="0"/>
        <pt x="236" y="119" on="0"/>
        <pt x="375" y="50" on="0"/>
        <pt x="474" y="50" on="1"/>
        <pt x="626" y="50" on="0"/>
        <pt x="806" y="212" on="0"/>
        <pt x="806" y="398" on="1"/>
        <pt x="806" y="449" on="0"/>
        <pt x="791" y="564" on="0"/>
        <pt x="774" y="618" on="1"/>
        <pt x="840" y="618" on="1"/>
        <pt x="855" y="564" on="0"/>
        <pt x="870" y="450" on="0"/>
        <pt x="870" y="400" on="1"/>
        <pt x="870" y="192" on="0"/>
        <pt x="653" y="-14" on="0"/>
      </contour>
    </TTGlyph>
    <TTGlyph name="aogonek" xMin="82" yMin="-400" xMax="816" yMax="1096">
      <contour>
        <pt x="366" y="-16" on="1"/>
        <pt x="240" y="-16" on="0"/>
        <pt x="82" y="128" on="0"/>
        <pt x="82" y="266" on="1"/>
        <pt x="82" y="404" on="0"/>
        <pt x="244" y="558" on="0"/>
        <pt x="410" y="576" on="1"/>
        <pt x="686" y="608" on="1"/>
        <pt x="696" y="542" on="1"/>
        <pt x="408" y="510" on="1"/>
        <pt x="278" y="497" on="0"/>
        <pt x="156" y="379" on="0"/>
        <pt x="156" y="274" on="1"/>
        <pt x="156" y="159" on="0"/>
        <pt x="269" y="50" on="0"/>
        <pt x="372" y="50" on="1"/>
        <pt x="441" y="50" on="0"/>
        <pt x="592" y="123" on="0"/>
        <pt x="650" y="222" on="1"/>
        <pt x="650" y="756" on="1"/>
        <pt x="650" y="864" on="0"/>
        <pt x="589" y="983" on="0"/>
        <pt x="472" y="1030" on="0"/>
        <pt x="388" y="1030" on="1"/>
        <pt x="336" y="1030" on="0"/>
        <pt x="204" y="1008" on="0"/>
        <pt x="136" y="984" on="1"/>
        <pt x="136" y="1052" on="1"/>
        <pt x="190" y="1073" on="0"/>
        <pt x="330" y="1096" on="0"/>
        <pt x="390" y="1096" on="1"/>
        <pt x="495" y="1096" on="0"/>
        <pt x="642" y="1033" on="0"/>
        <pt x="718" y="883" on="0"/>
        <pt x="718" y="754" on="1"/>
        <pt x="718" y="0" on="1"/>
        <pt x="658" y="0" on="1"/>
        <pt x="652" y="122" on="1"/>
        <pt x="644" y="122" on="1"/>
        <pt x="595" y="53" on="0"/>
        <pt x="452" y="-16" on="0"/>
      </contour>
      <contour>
        <pt x="684" y="-400" on="1"/>
        <pt x="600" y="-400" on="0"/>
        <pt x="506" y="-311" on="0"/>
        <pt x="506" y="-232" on="1"/>
        <pt x="506" y="-182" on="0"/>
        <pt x="545" y="-90" on="0"/>
        <pt x="626" y="0" on="0"/>
        <pt x="690" y="46" on="1"/>
        <pt x="718" y="0" on="1"/>
        <pt x="663" y="-40" on="0"/>
        <pt x="594" y="-114" on="0"/>
        <pt x="562" y="-188" on="0"/>
        <pt x="562" y="-228" on="1"/>
        <pt x="562" y="-286" on="0"/>
        <pt x="625" y="-348" on="0"/>
        <pt x="682" y="-348" on="1"/>
        <pt x="718" y="-348" on="0"/>
        <pt x="786" y="-325" on="0"/>
        <pt x="816" y="-304" on="1"/>
        <pt x="816" y="-360" on="1"/>
        <pt x="789" y="-379" on="0"/>
        <pt x="719" y="-400" on="0"/>
      </contour>
    </TTGlyph>
    <TTGlyph name="aogonek.sc" xMin="28" yMin="-400" xMax="1068" yMax="1190">
      <component glyphName="a.sc" x="0" y="0" flags="0x204"/>
      <component glyphName="uni0328.sc" x="556" y="0" flags="0x4"/>
    </TTGlyph>
    <TTGlyph name="approxequal" xMin="144" yMin="490" xMax="872" yMax="1030">
      <contour>
        <pt x="680" y="852" on="1"/>
        <pt x="614" y="852" on="0"/>
        <pt x="497" y="910" on="0"/>
        <pt x="390" y="968" on="0"/>
        <pt x="338" y="968" on="1"/>
        <pt x="281" y="968" on="0"/>
        <pt x="185" y="914" on="0"/>
        <pt x="144" y="860" on="1"/>
        <pt x="144" y="940" on="1"/>
        <pt x="212" y="1030" on="0"/>
        <pt x="336" y="1030" on="1"/>
        <pt x="402" y="1030" on="0"/>
        <pt x="519" y="972" on="0"/>
        <pt x="626" y="914" on="0"/>
        <pt x="678" y="914" on="1"/>
        <pt x="735" y="914" on="0"/>
        <pt x="832" y="968" on="0"/>
        <pt x="872" y="1022" on="1"/>
        <pt x="872" y="942" on="1"/>
        <pt x="804" y="852" on="0"/>
      </contour>
      <contour>
        <pt x="680" y="490" on="1"/>
        <pt x="614" y="490" on="0"/>
        <pt x="497" y="548" on="0"/>
        <pt x="390" y="606" on="0"/>
        <pt x="338" y="606" on="1"/>
        <pt x="281" y="606" on="0"/>
        <pt x="185" y="552" on="0"/>
        <pt x="144" y="498" on="1"/>
        <pt x="144" y="578" on="1"/>
        <pt x="212" y="668" on="0"/>
        <pt x="336" y="668" on="1"/>
        <pt x="402" y="668" on="0"/>
        <pt x="519" y="610" on="0"/>
        <pt x="626" y="552" on="0"/>
        <pt x="678" y="552" on="1"/>
        <pt x="735" y="552" on="0"/>
        <pt x="832" y="606" on="0"/>
        <pt x="872" y="660" on="1"/>
        <pt x="872" y="580" on="1"/>
        <pt x="804" y="490" on="0"/>
      </contour>
    </TTGlyph>
    <TTGlyph name="approxequal.osf" xMin="144" yMin="290" xMax="872" yMax="830">
      <contour>
        <pt x="680" y="652" on="1"/>
        <pt x="614" y="652" on="0"/>
        <pt x="497" y="710" on="0"/>
        <pt x="390" y="768" on="0"/>
        <pt x="338" y="768" on="1"/>
        <pt x="281" y="768" on="0"/>
        <pt x="185" y="714" on="0"/>
        <pt x="144" y="660" on="1"/>
        <pt x="144" y="740" on="1"/>
        <pt x="212" y="830" on="0"/>
        <pt x="336" y="830" on="1"/>
        <pt x="402" y="830" on="0"/>
        <pt x="519" y="772" on="0"/>
        <pt x="626" y="714" on="0"/>
        <pt x="678" y="714" on="1"/>
        <pt x="735" y="714" on="0"/>
        <pt x="832" y="768" on="0"/>
        <pt x="872" y="822" on="1"/>
        <pt x="872" y="742" on="1"/>
        <pt x="804" y="652" on="0"/>
      </contour>
      <contour>
        <pt x="680" y="290" on="1"/>
        <pt x="614" y="290" on="0"/>
        <pt x="497" y="348" on="0"/>
        <pt x="390" y="406" on="0"/>
        <pt x="338" y="406" on="1"/>
        <pt x="281" y="406" on="0"/>
        <pt x="185" y="352" on="0"/>
        <pt x="144" y="298" on="1"/>
        <pt x="144" y="378" on="1"/>
        <pt x="212" y="468" on="0"/>
        <pt x="336" y="468" on="1"/>
        <pt x="402" y="468" on="0"/>
        <pt x="519" y="410" on="0"/>
        <pt x="626" y="352" on="0"/>
        <pt x="678" y="352" on="1"/>
        <pt x="735" y="352" on="0"/>
        <pt x="832" y="406" on="0"/>
        <pt x="872" y="460" on="1"/>
        <pt x="872" y="380" on="1"/>
        <pt x="804" y="290" on="0"/>
      </contour>
    </TTGlyph>
    <TTGlyph name="approxequal.tf" xMin="136" yMin="490" xMax="864" yMax="1030">
      <contour>
        <pt x="672" y="852" on="1"/>
        <pt x="606" y="852" on="0"/>
        <pt x="489" y="910" on="0"/>
        <pt x="382" y="968" on="0"/>
        <pt x="330" y="968" on="1"/>
        <pt x="273" y="968" on="0"/>
        <pt x="177" y="914" on="0"/>
        <pt x="136" y="860" on="1"/>
        <pt x="136" y="940" on="1"/>
        <pt x="204" y="1030" on="0"/>
        <pt x="328" y="1030" on="1"/>
        <pt x="394" y="1030" on="0"/>
        <pt x="511" y="972" on="0"/>
        <pt x="618" y="914" on="0"/>
        <pt x="670" y="914" on="1"/>
        <pt x="727" y="914" on="0"/>
        <pt x="824" y="968" on="0"/>
        <pt x="864" y="1022" on="1"/>
        <pt x="864" y="942" on="1"/>
        <pt x="796" y="852" on="0"/>
      </contour>
      <contour>
        <pt x="672" y="490" on="1"/>
        <pt x="606" y="490" on="0"/>
        <pt x="489" y="548" on="0"/>
        <pt x="382" y="606" on="0"/>
        <pt x="330" y="606" on="1"/>
        <pt x="273" y="606" on="0"/>
        <pt x="177" y="552" on="0"/>
        <pt x="136" y="498" on="1"/>
        <pt x="136" y="578" on="1"/>
        <pt x="204" y="668" on="0"/>
        <pt x="328" y="668" on="1"/>
        <pt x="394" y="668" on="0"/>
        <pt x="511" y="610" on="0"/>
        <pt x="618" y="552" on="0"/>
        <pt x="670" y="552" on="1"/>
        <pt x="727" y="552" on="0"/>
        <pt x="824" y="606" on="0"/>
        <pt x="864" y="660" on="1"/>
        <pt x="864" y="580" on="1"/>
        <pt x="796" y="490" on="0"/>
      </contour>
    </TTGlyph>
    <TTGlyph name="approxequal.tosf" xMin="136" yMin="290" xMax="864" yMax="830">
      <contour>
        <pt x="672" y="652" on="1"/>
        <pt x="606" y="652" on="0"/>
        <pt x="489" y="710" on="0"/>
        <pt x="382" y="768" on="0"/>
        <pt x="330" y="768" on="1"/>
        <pt x="273" y="768" on="0"/>
        <pt x="177" y="714" on="0"/>
        <pt x="136" y="660" on="1"/>
        <pt x="136" y="740" on="1"/>
        <pt x="204" y="830" on="0"/>
        <pt x="328" y="830" on="1"/>
        <pt x="394" y="830" on="0"/>
        <pt x="511" y="772" on="0"/>
        <pt x="618" y="714" on="0"/>
        <pt x="670" y="714" on="1"/>
        <pt x="727" y="714" on="0"/>
        <pt x="824" y="768" on="0"/>
        <pt x="864" y="822" on="1"/>
        <pt x="864" y="742" on="1"/>
        <pt x="796" y="652" on="0"/>
      </contour>
      <contour>
        <pt x="672" y="290" on="1"/>
        <pt x="606" y="290" on="0"/>
        <pt x="489" y="348" on="0"/>
        <pt x="382" y="406" on="0"/>
        <pt x="330" y="406" on="1"/>
        <pt x="273" y="406" on="0"/>
        <pt x="177" y="352" on="0"/>
        <pt x="136" y="298" on="1"/>
        <pt x="136" y="378" on="1"/>
        <pt x="204" y="468" on="0"/>
        <pt x="328" y="468" on="1"/>
        <pt x="394" y="468" on="0"/>
        <pt x="511" y="410" on="0"/>
        <pt x="618" y="352" on="0"/>
        <pt x="670" y="352" on="1"/>
        <pt x="727" y="352" on="0"/>
        <pt x="824" y="406" on="0"/>
        <pt x="864" y="460" on="1"/>
        <pt x="864" y="380" on="1"/>
        <pt x="796" y="290" on="0"/>
      </contour>
    </TTGlyph>
    <TTGlyph name="aring" xMin="82" yMin="-16" xMax="718" yMax="1628">
      <component glyphName="a" x="0" y="0" flags="0x204"/>
      <component glyphName="uni030A" x="20" y="0" flags="0x4"/>
    </TTGlyph>
    <TTGlyph name="aring.sc" xMin="28" yMin="0" xMax="956" yMax="1688">
      <component glyphName="a.sc" x="0" y="0" flags="0x204"/>
      <component glyphName="uni030A.sc" x="92" y="-290" flags="0x4"/>
    </TTGlyph>
    <TTGlyph name="aringacute" xMin="82" yMin="-16" xMax="724" yMax="1780">
      <component glyphName="a" x="0" y="0" flags="0x204"/>
      <component glyphName="uni030A0301" x="20" y="0" flags="0x4"/>
    </TTGlyph>
    <TTGlyph name="aringacute.sc" xMin="28" yMin="0" xMax="956" yMax="1798">
      <component glyphName="a.sc" x="0" y="0" flags="0x204"/>
      <component glyphName="uni030A0301.case.sc" x="92" y="-290" flags="0x4"/>
    </TTGlyph>
    <TTGlyph name="arrowdown" xMin="144" yMin="250" xMax="1096" yMax="1272">
      <contour>
        <pt x="620" y="250" on="1"/>
        <pt x="144" y="726" on="1"/>
        <pt x="188" y="770" on="1"/>
        <pt x="586" y="372" on="1"/>
        <pt x="586" y="1272" on="1"/>
        <pt x="654" y="1272" on="1"/>
        <pt x="654" y="372" on="1"/>
        <pt x="1052" y="770" on="1"/>
        <pt x="1096" y="726" on="1"/>
      </contour>
    </TTGlyph>
    <TTGlyph name="arrowleft" xMin="144" yMin="284" xMax="1166" yMax="1236">
      <contour>
        <pt x="620" y="284" on="1"/>
        <pt x="144" y="760" on="1"/>
        <pt x="620" y="1236" on="1"/>
        <pt x="664" y="1192" on="1"/>
        <pt x="266" y="794" on="1"/>
        <pt x="1166" y="794" on="1"/>
        <pt x="1166" y="726" on="1"/>
        <pt x="266" y="726" on="1"/>
        <pt x="664" y="328" on="1"/>
      </contour>
    </TTGlyph>
    <TTGlyph name="arrowright" xMin="144" yMin="284" xMax="1166" yMax="1236">
      <contour>
        <pt x="690" y="284" on="1"/>
        <pt x="646" y="328" on="1"/>
        <pt x="1044" y="726" on="1"/>
        <pt x="144" y="726" on="1"/>
        <pt x="144" y="794" on="1"/>
        <pt x="1044" y="794" on="1"/>
        <pt x="646" y="1192" on="1"/>
        <pt x="690" y="1236" on="1"/>
        <pt x="1166" y="760" on="1"/>
      </contour>
    </TTGlyph>
    <TTGlyph name="arrowup" xMin="144" yMin="250" xMax="1096" yMax="1272">
      <contour>
        <pt x="586" y="250" on="1"/>
        <pt x="586" y="1150" on="1"/>
        <pt x="188" y="752" on="1"/>
        <pt x="144" y="796" on="1"/>
        <pt x="620" y="1272" on="1"/>
        <pt x="1096" y="796" on="1"/>
        <pt x="1052" y="752" on="1"/>
        <pt x="654" y="1150" on="1"/>
        <pt x="654" y="250" on="1"/>
      </contour>
    </TTGlyph>
    <TTGlyph name="asciicircum" xMin="114" yMin="740" xMax="886" yMax="1480">
      <contour>
        <pt x="114" y="740" on="1"/>
        <pt x="452" y="1480" on="1"/>
        <pt x="546" y="1480" on="1"/>
        <pt x="886" y="740" on="1"/>
        <pt x="810" y="740" on="1"/>
        <pt x="496" y="1438" on="1"/>
        <pt x="504" y="1438" on="1"/>
        <pt x="190" y="740" on="1"/>
      </contour>
    </TTGlyph>
    <TTGlyph name="asciicircum.osf" xMin="114" yMin="340" xMax="886" yMax="1080">
      <contour>
        <pt x="114" y="340" on="1"/>
        <pt x="452" y="1080" on="1"/>
        <pt x="546" y="1080" on="1"/>
        <pt x="886" y="340" on="1"/>
        <pt x="810" y="340" on="1"/>
        <pt x="496" y="1038" on="1"/>
        <pt x="504" y="1038" on="1"/>
        <pt x="190" y="340" on="1"/>
      </contour>
    </TTGlyph>
    <TTGlyph name="asciicircum.tf" xMin="114" yMin="740" xMax="886" yMax="1480">
      <contour>
        <pt x="114" y="740" on="1"/>
        <pt x="452" y="1480" on="1"/>
        <pt x="546" y="1480" on="1"/>
        <pt x="886" y="740" on="1"/>
        <pt x="810" y="740" on="1"/>
        <pt x="496" y="1438" on="1"/>
        <pt x="504" y="1438" on="1"/>
        <pt x="190" y="740" on="1"/>
      </contour>
    </TTGlyph>
    <TTGlyph name="asciicircum.tosf" xMin="114" yMin="340" xMax="886" yMax="1080">
      <contour>
        <pt x="114" y="340" on="1"/>
        <pt x="452" y="1080" on="1"/>
        <pt x="546" y="1080" on="1"/>
        <pt x="886" y="340" on="1"/>
        <pt x="810" y="340" on="1"/>
        <pt x="496" y="1038" on="1"/>
        <pt x="504" y="1038" on="1"/>
        <pt x="190" y="340" on="1"/>
      </contour>
    </TTGlyph>
    <TTGlyph name="asciitilde" xMin="144" yMin="664" xMax="872" yMax="844">
      <contour>
        <pt x="680" y="664" on="1"/>
        <pt x="614" y="664" on="0"/>
        <pt x="497" y="722" on="0"/>
        <pt x="390" y="780" on="0"/>
        <pt x="338" y="780" on="1"/>
        <pt x="281" y="780" on="0"/>
        <pt x="185" y="726" on="0"/>
        <pt x="144" y="672" on="1"/>
        <pt x="144" y="754" on="1"/>
        <pt x="212" y="844" on="0"/>
        <pt x="336" y="844" on="1"/>
        <pt x="402" y="844" on="0"/>
        <pt x="519" y="786" on="0"/>
        <pt x="626" y="728" on="0"/>
        <pt x="678" y="728" on="1"/>
        <pt x="735" y="728" on="0"/>
        <pt x="832" y="782" on="0"/>
        <pt x="872" y="836" on="1"/>
        <pt x="872" y="754" on="1"/>
        <pt x="804" y="664" on="0"/>
      </contour>
    </TTGlyph>
    <TTGlyph name="asciitilde.osf" xMin="144" yMin="464" xMax="872" yMax="644">
      <contour>
        <pt x="680" y="464" on="1"/>
        <pt x="614" y="464" on="0"/>
        <pt x="497" y="522" on="0"/>
        <pt x="390" y="580" on="0"/>
        <pt x="338" y="580" on="1"/>
        <pt x="281" y="580" on="0"/>
        <pt x="185" y="526" on="0"/>
        <pt x="144" y="472" on="1"/>
        <pt x="144" y="554" on="1"/>
        <pt x="212" y="644" on="0"/>
        <pt x="336" y="644" on="1"/>
        <pt x="402" y="644" on="0"/>
        <pt x="519" y="586" on="0"/>
        <pt x="626" y="528" on="0"/>
        <pt x="678" y="528" on="1"/>
        <pt x="735" y="528" on="0"/>
        <pt x="832" y="582" on="0"/>
        <pt x="872" y="636" on="1"/>
        <pt x="872" y="554" on="1"/>
        <pt x="804" y="464" on="0"/>
      </contour>
    </TTGlyph>
    <TTGlyph name="asciitilde.tf" xMin="136" yMin="664" xMax="864" yMax="844">
      <contour>
        <pt x="672" y="664" on="1"/>
        <pt x="606" y="664" on="0"/>
        <pt x="489" y="722" on="0"/>
        <pt x="382" y="780" on="0"/>
        <pt x="330" y="780" on="1"/>
        <pt x="273" y="780" on="0"/>
        <pt x="177" y="726" on="0"/>
        <pt x="136" y="672" on="1"/>
        <pt x="136" y="754" on="1"/>
        <pt x="204" y="844" on="0"/>
        <pt x="328" y="844" on="1"/>
        <pt x="394" y="844" on="0"/>
        <pt x="511" y="786" on="0"/>
        <pt x="618" y="728" on="0"/>
        <pt x="670" y="728" on="1"/>
        <pt x="727" y="728" on="0"/>
        <pt x="824" y="782" on="0"/>
        <pt x="864" y="836" on="1"/>
        <pt x="864" y="754" on="1"/>
        <pt x="796" y="664" on="0"/>
      </contour>
    </TTGlyph>
    <TTGlyph name="asciitilde.tosf" xMin="136" yMin="464" xMax="864" yMax="644">
      <contour>
        <pt x="672" y="464" on="1"/>
        <pt x="606" y="464" on="0"/>
        <pt x="489" y="522" on="0"/>
        <pt x="382" y="580" on="0"/>
        <pt x="330" y="580" on="1"/>
        <pt x="273" y="580" on="0"/>
        <pt x="177" y="526" on="0"/>
        <pt x="136" y="472" on="1"/>
        <pt x="136" y="554" on="1"/>
        <pt x="204" y="644" on="0"/>
        <pt x="328" y="644" on="1"/>
        <pt x="394" y="644" on="0"/>
        <pt x="511" y="586" on="0"/>
        <pt x="618" y="528" on="0"/>
        <pt x="670" y="528" on="1"/>
        <pt x="727" y="528" on="0"/>
        <pt x="824" y="582" on="0"/>
        <pt x="864" y="636" on="1"/>
        <pt x="864" y="554" on="1"/>
        <pt x="796" y="464" on="0"/>
      </contour>
    </TTGlyph>
    <TTGlyph name="asterisk" xMin="30" yMin="884" xMax="798" yMax="1616">
      <contour>
        <pt x="440" y="1214" on="1"/>
        <pt x="572" y="1058" on="1"/>
        <pt x="672" y="922" on="1"/>
        <pt x="620" y="884" on="1"/>
        <pt x="520" y="1020" on="1"/>
        <pt x="414" y="1194" on="1"/>
        <pt x="308" y="1020" on="1"/>
        <pt x="208" y="884" on="1"/>
        <pt x="156" y="922" on="1"/>
        <pt x="256" y="1058" on="1"/>
        <pt x="388" y="1214" on="1"/>
        <pt x="190" y="1262" on="1"/>
        <pt x="30" y="1314" on="1"/>
        <pt x="50" y="1374" on="1"/>
        <pt x="208" y="1322" on="1"/>
        <pt x="398" y="1244" on="1"/>
        <pt x="382" y="1448" on="1"/>
        <pt x="382" y="1616" on="1"/>
        <pt x="446" y="1616" on="1"/>
        <pt x="446" y="1448" on="1"/>
        <pt x="430" y="1244" on="1"/>
        <pt x="620" y="1322" on="1"/>
        <pt x="778" y="1374" on="1"/>
        <pt x="798" y="1314" on="1"/>
        <pt x="638" y="1262" on="1"/>
      </contour>
    </TTGlyph>
    <TTGlyph name="at" xMin="98" yMin="-460" xMax="1448" yMax="1498">
      <contour>
        <pt x="814" y="-460" on="1"/>
        <pt x="586" y="-460" on="0"/>
        <pt x="266" y="-275" on="0"/>
        <pt x="98" y="154" on="0"/>
        <pt x="98" y="520" on="1"/>
        <pt x="98" y="882" on="0"/>
        <pt x="261" y="1311" on="0"/>
        <pt x="566" y="1498" on="0"/>
        <pt x="778" y="1498" on="1"/>
        <pt x="989" y="1498" on="0"/>
        <pt x="1289" y="1314" on="0"/>
        <pt x="1448" y="902" on="0"/>
        <pt x="1448" y="560" on="1"/>
        <pt x="1448" y="353" on="0"/>
        <pt x="1376" y="99" on="0"/>
        <pt x="1257" y="-16" on="0"/>
        <pt x="1186" y="-16" on="1"/>
        <pt x="1114" y="-16" on="0"/>
        <pt x="1031" y="61" on="0"/>
        <pt x="1020" y="122" on="1"/>
        <pt x="1012" y="122" on="1"/>
        <pt x="961" y="53" on="0"/>
        <pt x="816" y="-16" on="0"/>
        <pt x="730" y="-16" on="1"/>
        <pt x="604" y="-16" on="0"/>
        <pt x="446" y="127" on="0"/>
        <pt x="446" y="266" on="1"/>
        <pt x="446" y="404" on="0"/>
        <pt x="608" y="557" on="0"/>
        <pt x="774" y="576" on="1"/>
        <pt x="1050" y="608" on="1"/>
        <pt x="1060" y="542" on="1"/>
        <pt x="772" y="510" on="1"/>
        <pt x="642" y="495" on="0"/>
        <pt x="520" y="379" on="0"/>
        <pt x="520" y="274" on="1"/>
        <pt x="520" y="159" on="0"/>
        <pt x="633" y="50" on="0"/>
        <pt x="736" y="50" on="1"/>
        <pt x="805" y="50" on="0"/>
        <pt x="956" y="123" on="0"/>
        <pt x="1014" y="222" on="1"/>
        <pt x="1014" y="762" on="1"/>
        <pt x="1014" y="867" on="0"/>
        <pt x="953" y="984" on="0"/>
        <pt x="837" y="1030" on="0"/>
        <pt x="754" y="1030" on="1"/>
        <pt x="703" y="1030" on="0"/>
        <pt x="572" y="1008" on="0"/>
        <pt x="504" y="984" on="1"/>
        <pt x="504" y="1052" on="1"/>
        <pt x="558" y="1073" on="0"/>
        <pt x="698" y="1096" on="0"/>
        <pt x="756" y="1096" on="1"/>
        <pt x="860" y="1096" on="0"/>
        <pt x="1006" y="1033" on="0"/>
        <pt x="1082" y="886" on="0"/>
        <pt x="1082" y="760" on="1"/>
        <pt x="1082" y="206" on="1"/>
        <pt x="1082" y="128" on="0"/>
        <pt x="1130" y="48" on="0"/>
        <pt x="1190" y="48" on="1"/>
        <pt x="1235" y="48" on="0"/>
        <pt x="1323" y="140" on="0"/>
        <pt x="1380" y="361" on="0"/>
        <pt x="1380" y="554" on="1"/>
        <pt x="1380" y="805" on="0"/>
        <pt x="1297" y="1144" on="0"/>
        <pt x="1140" y="1345" on="0"/>
        <pt x="918" y="1432" on="0"/>
        <pt x="778" y="1432" on="1"/>
        <pt x="639" y="1432" on="0"/>
        <pt x="414" y="1344" on="0"/>
        <pt x="255" y="1137" on="0"/>
        <pt x="170" y="787" on="0"/>
        <pt x="170" y="524" on="1"/>
        <pt x="170" y="258" on="0"/>
        <pt x="256" y="-97" on="0"/>
        <pt x="422" y="-305" on="0"/>
        <pt x="661" y="-394" on="0"/>
        <pt x="814" y="-394" on="1"/>
        <pt x="897" y="-394" on="0"/>
        <pt x="1046" y="-364" on="0"/>
        <pt x="1124" y="-336" on="1"/>
        <pt x="1124" y="-404" on="1"/>
        <pt x="1061" y="-428" on="0"/>
        <pt x="903" y="-460" on="0"/>
      </contour>
    </TTGlyph>
    <TTGlyph name="atilde" xMin="82" yMin="-16" xMax="718" yMax="1514">
      <component glyphName="a" x="0" y="0" flags="0x204"/>
      <component glyphName="tildecomb" x="20" y="0" flags="0x4"/>
    </TTGlyph>
    <TTGlyph name="atilde.sc" xMin="28" yMin="0" xMax="956" yMax="1540">
      <component glyphName="a.sc" x="0" y="0" flags="0x204"/>
      <component glyphName="tildecomb.sc" x="92" y="-290" flags="0x4"/>
    </TTGlyph>
    <TTGlyph name="b" xMin="144" yMin="-18" xMax="826" yMax="1616">
      <contour>
        <pt x="372" y="-18" on="1"/>
        <pt x="315" y="-18" on="0"/>
        <pt x="189" y="2" on="0"/>
        <pt x="144" y="18" on="1"/>
        <pt x="144" y="1616" on="1"/>
        <pt x="212" y="1616" on="1"/>
        <pt x="212" y="978" on="1"/>
        <pt x="218" y="978" on="1"/>
        <pt x="254" y="1023" on="0"/>
        <pt x="384" y="1096" on="0"/>
        <pt x="472" y="1096" on="1"/>
        <pt x="566" y="1096" on="0"/>
        <pt x="727" y="1001" on="0"/>
        <pt x="826" y="768" on="0"/>
        <pt x="826" y="560" on="1"/>
        <pt x="826" y="256" on="0"/>
        <pt x="585" y="-18" on="0"/>
      </contour>
      <contour>
        <pt x="372" y="48" on="1"/>
        <pt x="555" y="48" on="0"/>
        <pt x="754" y="278" on="0"/>
        <pt x="754" y="552" on="1"/>
        <pt x="754" y="747" on="0"/>
        <pt x="677" y="953" on="0"/>
        <pt x="547" y="1030" on="0"/>
        <pt x="468" y="1030" on="1"/>
        <pt x="393" y="1030" on="0"/>
        <pt x="251" y="951" on="0"/>
        <pt x="212" y="874" on="1"/>
        <pt x="212" y="70" on="1"/>
        <pt x="242" y="61" on="0"/>
        <pt x="332" y="48" on="0"/>
      </contour>
    </TTGlyph>
    <TTGlyph name="b.sc" xMin="166" yMin="-8" xMax="900" yMax="1202">
      <contour>
        <pt x="416" y="-8" on="1"/>
        <pt x="372" y="-8" on="0"/>
        <pt x="288" y="-5" on="0"/>
        <pt x="206" y="0" on="0"/>
        <pt x="166" y="4" on="1"/>
        <pt x="166" y="1178" on="1"/>
        <pt x="203" y="1185" on="0"/>
        <pt x="286" y="1196" on="0"/>
        <pt x="381" y="1202" on="0"/>
        <pt x="436" y="1202" on="1"/>
        <pt x="661" y="1202" on="0"/>
        <pt x="864" y="1050" on="0"/>
        <pt x="864" y="894" on="1"/>
        <pt x="864" y="828" on="0"/>
        <pt x="817" y="708" on="0"/>
        <pt x="705" y="624" on="0"/>
        <pt x="608" y="612" on="1"/>
        <pt x="608" y="622" on="1"/>
        <pt x="708" y="610" on="0"/>
        <pt x="837" y="527" on="0"/>
        <pt x="900" y="397" on="0"/>
        <pt x="900" y="314" on="1"/>
        <pt x="900" y="208" on="0"/>
        <pt x="800" y="65" on="0"/>
        <pt x="586" y="-8" on="0"/>
      </contour>
      <contour>
        <pt x="418" y="54" on="1"/>
        <pt x="568" y="54" on="0"/>
        <pt x="750" y="111" on="0"/>
        <pt x="832" y="226" on="0"/>
        <pt x="832" y="314" on="1"/>
        <pt x="832" y="446" on="0"/>
        <pt x="663" y="580" on="0"/>
        <pt x="480" y="580" on="1"/>
        <pt x="220" y="580" on="1"/>
        <pt x="220" y="644" on="1"/>
        <pt x="446" y="644" on="1"/>
        <pt x="647" y="644" on="0"/>
        <pt x="796" y="775" on="0"/>
        <pt x="796" y="892" on="1"/>
        <pt x="796" y="1023" on="0"/>
        <pt x="633" y="1138" on="0"/>
        <pt x="436" y="1138" on="1"/>
        <pt x="375" y="1138" on="0"/>
        <pt x="278" y="1130" on="0"/>
        <pt x="234" y="1122" on="1"/>
        <pt x="234" y="62" on="1"/>
        <pt x="278" y="58" on="0"/>
        <pt x="372" y="54" on="0"/>
      </contour>
    </TTGlyph>
    <TTGlyph name="backslash" xMin="0" yMin="-240" xMax="418" yMax="1616">
      <contour>
        <pt x="348" y="-240" on="1"/>
        <pt x="0" y="1616" on="1"/>
        <pt x="70" y="1616" on="1"/>
        <pt x="418" y="-240" on="1"/>
      </contour>
    </TTGlyph>
    <TTGlyph name="bar" xMin="164" yMin="-440" xMax="232" yMax="1616">
      <contour>
        <pt x="164" y="-440" on="1"/>
        <pt x="164" y="1616" on="1"/>
        <pt x="232" y="1616" on="1"/>
        <pt x="232" y="-440" on="1"/>
      </contour>
    </TTGlyph>
    <TTGlyph name="bar.tf" xMin="466" yMin="-440" xMax="534" yMax="1616">
      <contour>
        <pt x="466" y="-440" on="1"/>
        <pt x="466" y="1616" on="1"/>
        <pt x="534" y="1616" on="1"/>
        <pt x="534" y="-440" on="1"/>
      </contour>
    </TTGlyph>
    <TTGlyph name="braceleft" xMin="46" yMin="-460" xMax="626" yMax="1636">
      <contour>
        <pt x="506" y="-460" on="1"/>
        <pt x="367" y="-460" on="0"/>
        <pt x="224" y="-317" on="0"/>
        <pt x="224" y="-176" on="1"/>
        <pt x="224" y="414" on="1"/>
        <pt x="224" y="506" on="0"/>
        <pt x="134" y="590" on="0"/>
        <pt x="50" y="590" on="1"/>
        <pt x="46" y="590" on="1"/>
        <pt x="46" y="654" on="1"/>
        <pt x="50" y="654" on="1"/>
        <pt x="134" y="654" on="0"/>
        <pt x="224" y="739" on="0"/>
        <pt x="224" y="830" on="1"/>
        <pt x="224" y="1352" on="1"/>
        <pt x="224" y="1493" on="0"/>
        <pt x="367" y="1636" on="0"/>
        <pt x="506" y="1636" on="1"/>
        <pt x="539" y="1636" on="0"/>
        <pt x="604" y="1631" on="0"/>
        <pt x="626" y="1626" on="1"/>
        <pt x="626" y="1570" on="1"/>
        <pt x="502" y="1570" on="1"/>
        <pt x="396" y="1570" on="0"/>
        <pt x="292" y="1467" on="0"/>
        <pt x="292" y="1360" on="1"/>
        <pt x="292" y="830" on="1"/>
        <pt x="292" y="743" on="0"/>
        <pt x="223" y="636" on="0"/>
        <pt x="152" y="616" on="1"/>
        <pt x="152" y="628" on="1"/>
        <pt x="223" y="609" on="0"/>
        <pt x="292" y="501" on="0"/>
        <pt x="292" y="414" on="1"/>
        <pt x="292" y="-184" on="1"/>
        <pt x="292" y="-290" on="0"/>
        <pt x="396" y="-394" on="0"/>
        <pt x="502" y="-394" on="1"/>
        <pt x="626" y="-394" on="1"/>
        <pt x="626" y="-450" on="1"/>
        <pt x="604" y="-454" on="0"/>
        <pt x="539" y="-460" on="0"/>
      </contour>
    </TTGlyph>
    <TTGlyph name="braceleft.sc" xMin="46" yMin="-260" xMax="606" yMax="1500">
      <contour>
        <pt x="486" y="-260" on="1"/>
        <pt x="362" y="-260" on="0"/>
        <pt x="224" y="-122" on="0"/>
        <pt x="224" y="4" on="1"/>
        <pt x="224" y="444" on="1"/>
        <pt x="224" y="536" on="0"/>
        <pt x="134" y="620" on="0"/>
        <pt x="50" y="620" on="1"/>
        <pt x="46" y="620" on="1"/>
        <pt x="46" y="684" on="1"/>
        <pt x="50" y="684" on="1"/>
        <pt x="134" y="684" on="0"/>
        <pt x="224" y="769" on="0"/>
        <pt x="224" y="860" on="1"/>
        <pt x="224" y="1236" on="1"/>
        <pt x="224" y="1362" on="0"/>
        <pt x="362" y="1500" on="0"/>
        <pt x="486" y="1500" on="1"/>
        <pt x="519" y="1500" on="0"/>
        <pt x="584" y="1495" on="0"/>
        <pt x="606" y="1490" on="1"/>
        <pt x="606" y="1434" on="1"/>
        <pt x="482" y="1434" on="1"/>
        <pt x="391" y="1434" on="0"/>
        <pt x="292" y="1336" on="0"/>
        <pt x="292" y="1244" on="1"/>
        <pt x="292" y="860" on="1"/>
        <pt x="292" y="773" on="0"/>
        <pt x="223" y="666" on="0"/>
        <pt x="152" y="646" on="1"/>
        <pt x="152" y="658" on="1"/>
        <pt x="223" y="639" on="0"/>
        <pt x="292" y="531" on="0"/>
        <pt x="292" y="444" on="1"/>
        <pt x="292" y="-4" on="1"/>
        <pt x="292" y="-95" on="0"/>
        <pt x="391" y="-194" on="0"/>
        <pt x="482" y="-194" on="1"/>
        <pt x="606" y="-194" on="1"/>
        <pt x="606" y="-250" on="1"/>
        <pt x="584" y="-254" on="0"/>
        <pt x="519" y="-260" on="0"/>
      </contour>
    </TTGlyph>
    <TTGlyph name="braceright" xMin="-40" yMin="-460" xMax="540" yMax="1636">
      <contour>
        <pt x="80" y="-460" on="1"/>
        <pt x="47" y="-460" on="0"/>
        <pt x="-17" y="-454" on="0"/>
        <pt x="-40" y="-450" on="1"/>
        <pt x="-40" y="-394" on="1"/>
        <pt x="84" y="-394" on="1"/>
        <pt x="191" y="-394" on="0"/>
        <pt x="294" y="-290" on="0"/>
        <pt x="294" y="-184" on="1"/>
        <pt x="294" y="414" on="1"/>
        <pt x="294" y="501" on="0"/>
        <pt x="364" y="609" on="0"/>
        <pt x="434" y="628" on="1"/>
        <pt x="434" y="616" on="1"/>
        <pt x="364" y="636" on="0"/>
        <pt x="294" y="743" on="0"/>
        <pt x="294" y="830" on="1"/>
        <pt x="294" y="1360" on="1"/>
        <pt x="294" y="1467" on="0"/>
        <pt x="191" y="1570" on="0"/>
        <pt x="84" y="1570" on="1"/>
        <pt x="-40" y="1570" on="1"/>
        <pt x="-40" y="1626" on="1"/>
        <pt x="-17" y="1631" on="0"/>
        <pt x="47" y="1636" on="0"/>
        <pt x="80" y="1636" on="1"/>
        <pt x="220" y="1636" on="0"/>
        <pt x="362" y="1493" on="0"/>
        <pt x="362" y="1352" on="1"/>
        <pt x="362" y="830" on="1"/>
        <pt x="362" y="739" on="0"/>
        <pt x="452" y="654" on="0"/>
        <pt x="536" y="654" on="1"/>
        <pt x="540" y="654" on="1"/>
        <pt x="540" y="590" on="1"/>
        <pt x="536" y="590" on="1"/>
        <pt x="452" y="590" on="0"/>
        <pt x="362" y="506" on="0"/>
        <pt x="362" y="414" on="1"/>
        <pt x="362" y="-176" on="1"/>
        <pt x="362" y="-317" on="0"/>
        <pt x="220" y="-460" on="0"/>
      </contour>
    </TTGlyph>
    <TTGlyph name="braceright.sc" xMin="-40" yMin="-260" xMax="520" yMax="1500">
      <contour>
        <pt x="80" y="-260" on="1"/>
        <pt x="47" y="-260" on="0"/>
        <pt x="-17" y="-254" on="0"/>
        <pt x="-40" y="-250" on="1"/>
        <pt x="-40" y="-194" on="1"/>
        <pt x="84" y="-194" on="1"/>
        <pt x="176" y="-194" on="0"/>
        <pt x="274" y="-95" on="0"/>
        <pt x="274" y="-4" on="1"/>
        <pt x="274" y="444" on="1"/>
        <pt x="274" y="531" on="0"/>
        <pt x="344" y="639" on="0"/>
        <pt x="414" y="658" on="1"/>
        <pt x="414" y="646" on="1"/>
        <pt x="344" y="666" on="0"/>
        <pt x="274" y="773" on="0"/>
        <pt x="274" y="860" on="1"/>
        <pt x="274" y="1244" on="1"/>
        <pt x="274" y="1336" on="0"/>
        <pt x="176" y="1434" on="0"/>
        <pt x="84" y="1434" on="1"/>
        <pt x="-40" y="1434" on="1"/>
        <pt x="-40" y="1490" on="1"/>
        <pt x="-17" y="1495" on="0"/>
        <pt x="47" y="1500" on="0"/>
        <pt x="80" y="1500" on="1"/>
        <pt x="205" y="1500" on="0"/>
        <pt x="342" y="1362" on="0"/>
        <pt x="342" y="1236" on="1"/>
        <pt x="342" y="860" on="1"/>
        <pt x="342" y="769" on="0"/>
        <pt x="432" y="684" on="0"/>
        <pt x="516" y="684" on="1"/>
        <pt x="520" y="684" on="1"/>
        <pt x="520" y="620" on="1"/>
        <pt x="516" y="620" on="1"/>
        <pt x="432" y="620" on="0"/>
        <pt x="342" y="536" on="0"/>
        <pt x="342" y="444" on="1"/>
        <pt x="342" y="4" on="1"/>
        <pt x="342" y="-122" on="0"/>
        <pt x="205" y="-260" on="0"/>
      </contour>
    </TTGlyph>
    <TTGlyph name="bracketleft" xMin="184" yMin="-440" xMax="586" yMax="1616">
      <contour>
        <pt x="184" y="-440" on="1"/>
        <pt x="184" y="1616" on="1"/>
        <pt x="586" y="1616" on="1"/>
        <pt x="586" y="1552" on="1"/>
        <pt x="252" y="1552" on="1"/>
        <pt x="252" y="-376" on="1"/>
        <pt x="586" y="-376" on="1"/>
        <pt x="586" y="-440" on="1"/>
      </contour>
    </TTGlyph>
    <TTGlyph name="bracketleft.sc" xMin="184" yMin="-240" xMax="546" yMax="1480">
      <contour>
        <pt x="184" y="-240" on="1"/>
        <pt x="184" y="1480" on="1"/>
        <pt x="546" y="1480" on="1"/>
        <pt x="546" y="1416" on="1"/>
        <pt x="252" y="1416" on="1"/>
        <pt x="252" y="-176" on="1"/>
        <pt x="546" y="-176" on="1"/>
        <pt x="546" y="-240" on="1"/>
      </contour>
    </TTGlyph>
    <TTGlyph name="bracketright" xMin="-40" yMin="-440" xMax="362" yMax="1616">
      <contour>
        <pt x="-40" y="-440" on="1"/>
        <pt x="-40" y="-376" on="1"/>
        <pt x="294" y="-376" on="1"/>
        <pt x="294" y="1552" on="1"/>
        <pt x="-40" y="1552" on="1"/>
        <pt x="-40" y="1616" on="1"/>
        <pt x="362" y="1616" on="1"/>
        <pt x="362" y="-440" on="1"/>
      </contour>
    </TTGlyph>
    <TTGlyph name="bracketright.sc" xMin="-40" yMin="-240" xMax="322" yMax="1480">
      <contour>
        <pt x="-40" y="-240" on="1"/>
        <pt x="-40" y="-176" on="1"/>
        <pt x="254" y="-176" on="1"/>
        <pt x="254" y="1416" on="1"/>
        <pt x="-40" y="1416" on="1"/>
        <pt x="-40" y="1480" on="1"/>
        <pt x="322" y="1480" on="1"/>
        <pt x="322" y="-240" on="1"/>
      </contour>
    </TTGlyph>
    <TTGlyph name="breve" xMin="178" yMin="1276" xMax="622" yMax="1588">
      <component glyphName="uni0306" x="0" y="0" flags="0x4"/>
    </TTGlyph>
    <TTGlyph name="brokenbar" xMin="164" yMin="-440" xMax="232" yMax="1616">
      <contour>
        <pt x="164" y="836" on="1"/>
        <pt x="164" y="1616" on="1"/>
        <pt x="232" y="1616" on="1"/>
        <pt x="232" y="836" on="1"/>
      </contour>
      <contour>
        <pt x="164" y="-440" on="1"/>
        <pt x="164" y="340" on="1"/>
        <pt x="232" y="340" on="1"/>
        <pt x="232" y="-440" on="1"/>
      </contour>
    </TTGlyph>
    <TTGlyph name="brokenbar.tf" xMin="466" yMin="-440" xMax="534" yMax="1616">
      <contour>
        <pt x="466" y="836" on="1"/>
        <pt x="466" y="1616" on="1"/>
        <pt x="534" y="1616" on="1"/>
        <pt x="534" y="836" on="1"/>
      </contour>
      <contour>
        <pt x="466" y="-440" on="1"/>
        <pt x="466" y="340" on="1"/>
        <pt x="534" y="340" on="1"/>
        <pt x="534" y="-440" on="1"/>
      </contour>
    </TTGlyph>
    <TTGlyph name="bullet" xMin="118" yMin="360" xMax="518" yMax="760">
      <contour>
        <pt x="318" y="360" on="1"/>
        <pt x="262" y="360" on="0"/>
        <pt x="171" y="412" on="0"/>
        <pt x="118" y="502" on="0"/>
        <pt x="118" y="560" on="1"/>
        <pt x="118" y="618" on="0"/>
        <pt x="171" y="708" on="0"/>
        <pt x="262" y="760" on="0"/>
        <pt x="318" y="760" on="1"/>
        <pt x="374" y="760" on="0"/>
        <pt x="465" y="708" on="0"/>
        <pt x="518" y="618" on="0"/>
        <pt x="518" y="560" on="1"/>
        <pt x="518" y="502" on="0"/>
        <pt x="465" y="412" on="0"/>
        <pt x="374" y="360" on="0"/>
      </contour>
    </TTGlyph>
    <TTGlyph name="c" xMin="88" yMin="-18" xMax="686" yMax="1096">
      <contour>
        <pt x="468" y="-18" on="1"/>
        <pt x="346" y="-18" on="0"/>
        <pt x="176" y="89" on="0"/>
        <pt x="88" y="333" on="0"/>
        <pt x="88" y="540" on="1"/>
        <pt x="88" y="747" on="0"/>
        <pt x="185" y="991" on="0"/>
        <pt x="375" y="1096" on="0"/>
        <pt x="514" y="1096" on="1"/>
        <pt x="553" y="1096" on="0"/>
        <pt x="643" y="1086" on="0"/>
        <pt x="686" y="1074" on="1"/>
        <pt x="686" y="1006" on="1"/>
        <pt x="637" y="1020" on="0"/>
        <pt x="547" y="1030" on="0"/>
        <pt x="518" y="1030" on="1"/>
        <pt x="397" y="1030" on="0"/>
        <pt x="238" y="945" on="0"/>
        <pt x="160" y="733" on="0"/>
        <pt x="160" y="544" on="1"/>
        <pt x="160" y="353" on="0"/>
        <pt x="231" y="137" on="0"/>
        <pt x="372" y="48" on="0"/>
        <pt x="476" y="48" on="1"/>
        <pt x="520" y="48" on="0"/>
        <pt x="623" y="68" on="0"/>
        <pt x="686" y="90" on="1"/>
        <pt x="686" y="22" on="1"/>
        <pt x="628" y="1" on="0"/>
        <pt x="521" y="-18" on="0"/>
      </contour>
    </TTGlyph>
    <TTGlyph name="c.sc" xMin="100" yMin="-14" xMax="802" yMax="1204">
      <contour>
        <pt x="564" y="-14" on="1"/>
        <pt x="422" y="-14" on="0"/>
        <pt x="214" y="98" on="0"/>
        <pt x="100" y="363" on="0"/>
        <pt x="100" y="594" on="1"/>
        <pt x="100" y="818" on="0"/>
        <pt x="213" y="1086" on="0"/>
        <pt x="426" y="1204" on="0"/>
        <pt x="576" y="1204" on="1"/>
        <pt x="632" y="1204" on="0"/>
        <pt x="753" y="1191" on="0"/>
        <pt x="802" y="1174" on="1"/>
        <pt x="802" y="1106" on="1"/>
        <pt x="738" y="1126" on="0"/>
        <pt x="630" y="1138" on="0"/>
        <pt x="574" y="1138" on="1"/>
        <pt x="444" y="1138" on="0"/>
        <pt x="265" y="1040" on="0"/>
        <pt x="172" y="803" on="0"/>
        <pt x="172" y="596" on="1"/>
        <pt x="172" y="384" on="0"/>
        <pt x="266" y="147" on="0"/>
        <pt x="442" y="52" on="0"/>
        <pt x="564" y="52" on="1"/>
        <pt x="624" y="52" on="0"/>
        <pt x="736" y="72" on="0"/>
        <pt x="802" y="94" on="1"/>
        <pt x="802" y="26" on="1"/>
        <pt x="753" y="8" on="0"/>
        <pt x="632" y="-14" on="0"/>
      </contour>
    </TTGlyph>
    <TTGlyph name="cacute" xMin="88" yMin="-18" xMax="686" yMax="1616">
      <component glyphName="c" x="0" y="0" flags="0x204"/>
      <component glyphName="acutecomb" x="26" y="0" flags="0x4"/>
    </TTGlyph>
    <TTGlyph name="cacute.sc" xMin="100" yMin="-14" xMax="802" yMax="1598">
      <component glyphName="c.sc" x="0" y="0" flags="0x204"/>
      <component glyphName="acutecomb.sc" x="124" y="-290" flags="0x4"/>
    </TTGlyph>
    <TTGlyph name="caron" xMin="186" yMin="1264" xMax="614" yMax="1616">
      <component glyphName="uni030C" x="0" y="0" flags="0x4"/>
    </TTGlyph>
    <TTGlyph name="caron.alt" xMin="382" yMin="1180" xMax="464" yMax="1616">
      <component glyphName="uni030C.alt" x="0" y="0" flags="0x4"/>
    </TTGlyph>
    <TTGlyph name="ccaron" xMin="88" yMin="-18" xMax="686" yMax="1616">
      <component glyphName="c" x="0" y="0" flags="0x204"/>
      <component glyphName="uni030C" x="26" y="0" flags="0x4"/>
    </TTGlyph>
    <TTGlyph name="ccaron.sc" xMin="100" yMin="-14" xMax="802" yMax="1598">
      <component glyphName="c.sc" x="0" y="0" flags="0x204"/>
      <component glyphName="uni030C.sc" x="124" y="-290" flags="0x4"/>
    </TTGlyph>
    <TTGlyph name="ccedilla" xMin="88" yMin="-400" xMax="686" yMax="1096">
      <component glyphName="c" x="0" y="0" flags="0x204"/>
      <component glyphName="uni0327" x="26" y="0" flags="0x4"/>
    </TTGlyph>
    <TTGlyph name="ccedilla.sc" xMin="100" yMin="-400" xMax="802" yMax="1204">
      <component glyphName="c.sc" x="0" y="0" flags="0x204"/>
      <component glyphName="uni0327.sc" x="132" y="0" flags="0x4"/>
    </TTGlyph>
    <TTGlyph name="ccircumflex" xMin="88" yMin="-18" xMax="686" yMax="1616">
      <component glyphName="c" x="0" y="0" flags="0x204"/>
      <component glyphName="uni0302" x="26" y="0" flags="0x4"/>
    </TTGlyph>
    <TTGlyph name="ccircumflex.sc" xMin="100" yMin="-14" xMax="802" yMax="1598">
      <component glyphName="c.sc" x="0" y="0" flags="0x204"/>
      <component glyphName="uni0302.sc" x="124" y="-290" flags="0x4"/>
    </TTGlyph>
    <TTGlyph name="cdotaccent" xMin="88" yMin="-18" xMax="686" yMax="1486">
      <component glyphName="c" x="0" y="0" flags="0x204"/>
      <component glyphName="uni0307" x="26" y="0" flags="0x4"/>
    </TTGlyph>
    <TTGlyph name="cdotaccent.sc" xMin="100" yMin="-14" xMax="802" yMax="1526">
      <component glyphName="c.sc" x="0" y="0" flags="0x204"/>
      <component glyphName="uni0307.sc" x="124" y="-290" flags="0x4"/>
    </TTGlyph>
    <TTGlyph name="cedilla" xMin="252" yMin="-400" xMax="562" yMax="20">
      <component glyphName="uni0327" x="0" y="0" flags="0x4"/>
    </TTGlyph>
    <TTGlyph name="cent" xMin="88" yMin="-240" xMax="686" yMax="1320">
      <contour>
        <pt x="468" y="-18" on="1"/>
        <pt x="346" y="-18" on="0"/>
        <pt x="176" y="89" on="0"/>
        <pt x="88" y="333" on="0"/>
        <pt x="88" y="540" on="1"/>
        <pt x="88" y="747" on="0"/>
        <pt x="185" y="991" on="0"/>
        <pt x="376" y="1096" on="0"/>
        <pt x="516" y="1096" on="1"/>
        <pt x="554" y="1096" on="0"/>
        <pt x="643" y="1086" on="0"/>
        <pt x="686" y="1074" on="1"/>
        <pt x="686" y="1006" on="1"/>
        <pt x="637" y="1020" on="0"/>
        <pt x="545" y="1030" on="0"/>
        <pt x="512" y="1030" on="1"/>
        <pt x="395" y="1030" on="0"/>
        <pt x="238" y="945" on="0"/>
        <pt x="160" y="733" on="0"/>
        <pt x="160" y="544" on="1"/>
        <pt x="160" y="353" on="0"/>
        <pt x="231" y="137" on="0"/>
        <pt x="372" y="48" on="0"/>
        <pt x="476" y="48" on="1"/>
        <pt x="520" y="48" on="0"/>
        <pt x="623" y="68" on="0"/>
        <pt x="686" y="90" on="1"/>
        <pt x="686" y="22" on="1"/>
        <pt x="628" y="1" on="0"/>
        <pt x="521" y="-18" on="0"/>
      </contour>
      <contour>
        <pt x="436" y="-240" on="1"/>
        <pt x="436" y="0" on="1"/>
        <pt x="500" y="0" on="1"/>
        <pt x="500" y="-240" on="1"/>
      </contour>
      <contour>
        <pt x="436" y="1080" on="1"/>
        <pt x="436" y="1320" on="1"/>
        <pt x="500" y="1320" on="1"/>
        <pt x="500" y="1080" on="1"/>
      </contour>
    </TTGlyph>
    <TTGlyph name="cent.tf" xMin="148" yMin="-240" xMax="920" yMax="1300">
      <contour>
        <pt x="628" y="-18" on="1"/>
        <pt x="399" y="-18" on="0"/>
        <pt x="148" y="252" on="0"/>
        <pt x="148" y="540" on="1"/>
        <pt x="148" y="827" on="0"/>
        <pt x="417" y="1096" on="0"/>
        <pt x="672" y="1096" on="1"/>
        <pt x="738" y="1096" on="0"/>
        <pt x="859" y="1078" on="0"/>
        <pt x="920" y="1060" on="1"/>
        <pt x="920" y="992" on="1"/>
        <pt x="859" y="1010" on="0"/>
        <pt x="739" y="1030" on="0"/>
        <pt x="670" y="1030" on="1"/>
        <pt x="442" y="1030" on="0"/>
        <pt x="220" y="802" on="0"/>
        <pt x="220" y="544" on="1"/>
        <pt x="220" y="280" on="0"/>
        <pt x="433" y="48" on="0"/>
        <pt x="634" y="48" on="1"/>
        <pt x="696" y="48" on="0"/>
        <pt x="836" y="74" on="0"/>
        <pt x="920" y="104" on="1"/>
        <pt x="920" y="36" on="1"/>
        <pt x="848" y="9" on="0"/>
        <pt x="700" y="-18" on="0"/>
      </contour>
      <contour>
        <pt x="596" y="-240" on="1"/>
        <pt x="596" y="0" on="1"/>
        <pt x="660" y="0" on="1"/>
        <pt x="660" y="-240" on="1"/>
      </contour>
      <contour>
        <pt x="596" y="1080" on="1"/>
        <pt x="596" y="1300" on="1"/>
        <pt x="660" y="1300" on="1"/>
        <pt x="660" y="1080" on="1"/>
      </contour>
    </TTGlyph>
    <TTGlyph name="circumflex" xMin="186" yMin="1264" xMax="614" yMax="1616">
      <component glyphName="uni0302" x="0" y="0" flags="0x4"/>
    </TTGlyph>
    <TTGlyph name="colon" xMin="118" yMin="-10" xMax="242" yMax="1090">
      <component glyphName="period" x="0" y="0" flags="0x204"/>
      <component glyphName="period" x="0" y="974" flags="0x4"/>
    </TTGlyph>
    <TTGlyph name="colon.tf" xMin="188" yMin="-10" xMax="312" yMax="1090">
      <contour>
        <pt x="250" y="-10" on="1"/>
        <pt x="223" y="-10" on="0"/>
        <pt x="188" y="24" on="0"/>
        <pt x="188" y="52" on="1"/>
        <pt x="188" y="81" on="0"/>
        <pt x="223" y="116" on="0"/>
        <pt x="250" y="116" on="1"/>
        <pt x="277" y="116" on="0"/>
        <pt x="312" y="81" on="0"/>
        <pt x="312" y="52" on="1"/>
        <pt x="312" y="24" on="0"/>
        <pt x="277" y="-10" on="0"/>
      </contour>
      <contour>
        <pt x="250" y="964" on="1"/>
        <pt x="223" y="964" on="0"/>
        <pt x="188" y="998" on="0"/>
        <pt x="188" y="1026" on="1"/>
        <pt x="188" y="1055" on="0"/>
        <pt x="223" y="1090" on="0"/>
        <pt x="250" y="1090" on="1"/>
        <pt x="277" y="1090" on="0"/>
        <pt x="312" y="1055" on="0"/>
        <pt x="312" y="1026" on="1"/>
        <pt x="312" y="998" on="0"/>
        <pt x="277" y="964" on="0"/>
      </contour>
    </TTGlyph>
    <TTGlyph name="colonmonetary" xMin="98" yMin="-240" xMax="912" yMax="1720">
      <contour>
        <pt x="634" y="-18" on="1"/>
        <pt x="464" y="-18" on="0"/>
        <pt x="224" y="128" on="0"/>
        <pt x="98" y="459" on="0"/>
        <pt x="98" y="738" on="1"/>
        <pt x="98" y="1018" on="0"/>
        <pt x="226" y="1351" on="0"/>
        <pt x="471" y="1498" on="0"/>
        <pt x="648" y="1498" on="1"/>
        <pt x="708" y="1498" on="0"/>
        <pt x="843" y="1479" on="0"/>
        <pt x="912" y="1458" on="1"/>
        <pt x="912" y="1390" on="1"/>
        <pt x="831" y="1417" on="0"/>
        <pt x="700" y="1432" on="0"/>
        <pt x="640" y="1432" on="1"/>
        <pt x="490" y="1432" on="0"/>
        <pt x="280" y="1308" on="0"/>
        <pt x="170" y="1007" on="0"/>
        <pt x="170" y="742" on="1"/>
        <pt x="170" y="475" on="0"/>
        <pt x="279" y="172" on="0"/>
        <pt x="486" y="48" on="0"/>
        <pt x="632" y="48" on="1"/>
        <pt x="698" y="48" on="0"/>
        <pt x="831" y="72" on="0"/>
        <pt x="912" y="100" on="1"/>
        <pt x="912" y="32" on="1"/>
        <pt x="846" y="8" on="0"/>
        <pt x="705" y="-18" on="0"/>
      </contour>
      <contour>
        <pt x="282" y="144" on="1"/>
        <pt x="182" y="-240" on="1"/>
        <pt x="118" y="-240" on="1"/>
        <pt x="236" y="214" on="1"/>
      </contour>
      <contour>
        <pt x="474" y="36" on="1"/>
        <pt x="402" y="-240" on="1"/>
        <pt x="338" y="-240" on="1"/>
        <pt x="414" y="52" on="1"/>
      </contour>
      <contour>
        <pt x="558" y="1452" on="1"/>
        <pt x="628" y="1720" on="1"/>
        <pt x="692" y="1720" on="1"/>
        <pt x="622" y="1452" on="1"/>
      </contour>
      <contour>
        <pt x="778" y="1452" on="1"/>
        <pt x="848" y="1720" on="1"/>
        <pt x="912" y="1720" on="1"/>
        <pt x="842" y="1452" on="1"/>
      </contour>
    </TTGlyph>
    <TTGlyph name="colonmonetary.tf" xMin="136" yMin="-240" xMax="950" yMax="1720">
      <contour>
        <pt x="672" y="-18" on="1"/>
        <pt x="502" y="-18" on="0"/>
        <pt x="262" y="128" on="0"/>
        <pt x="136" y="459" on="0"/>
        <pt x="136" y="738" on="1"/>
        <pt x="136" y="1018" on="0"/>
        <pt x="264" y="1351" on="0"/>
        <pt x="509" y="1498" on="0"/>
        <pt x="686" y="1498" on="1"/>
        <pt x="746" y="1498" on="0"/>
        <pt x="881" y="1479" on="0"/>
        <pt x="950" y="1458" on="1"/>
        <pt x="950" y="1390" on="1"/>
        <pt x="869" y="1417" on="0"/>
        <pt x="738" y="1432" on="0"/>
        <pt x="678" y="1432" on="1"/>
        <pt x="528" y="1432" on="0"/>
        <pt x="318" y="1308" on="0"/>
        <pt x="208" y="1007" on="0"/>
        <pt x="208" y="742" on="1"/>
        <pt x="208" y="475" on="0"/>
        <pt x="317" y="172" on="0"/>
        <pt x="524" y="48" on="0"/>
        <pt x="670" y="48" on="1"/>
        <pt x="736" y="48" on="0"/>
        <pt x="869" y="72" on="0"/>
        <pt x="950" y="100" on="1"/>
        <pt x="950" y="32" on="1"/>
        <pt x="884" y="8" on="0"/>
        <pt x="743" y="-18" on="0"/>
      </contour>
      <contour>
        <pt x="156" y="-240" on="1"/>
        <pt x="274" y="214" on="1"/>
        <pt x="320" y="144" on="1"/>
        <pt x="220" y="-240" on="1"/>
      </contour>
      <contour>
        <pt x="376" y="-240" on="1"/>
        <pt x="452" y="52" on="1"/>
        <pt x="512" y="36" on="1"/>
        <pt x="440" y="-240" on="1"/>
      </contour>
      <contour>
        <pt x="596" y="1452" on="1"/>
        <pt x="666" y="1720" on="1"/>
        <pt x="730" y="1720" on="1"/>
        <pt x="660" y="1452" on="1"/>
      </contour>
      <contour>
        <pt x="816" y="1452" on="1"/>
        <pt x="886" y="1720" on="1"/>
        <pt x="950" y="1720" on="1"/>
        <pt x="880" y="1452" on="1"/>
      </contour>
    </TTGlyph>
    <TTGlyph name="comma" xMin="118" yMin="-300" xMax="242" yMax="116">
      <contour>
        <pt x="130" y="-300" on="1"/>
        <pt x="157" y="-214" on="0"/>
        <pt x="188" y="-64" on="0"/>
        <pt x="188" y="12" on="1"/>
        <pt x="192" y="-10" on="1"/>
        <pt x="180" y="-10" on="1"/>
        <pt x="153" y="-10" on="0"/>
        <pt x="118" y="26" on="0"/>
        <pt x="118" y="54" on="1"/>
        <pt x="118" y="81" on="0"/>
        <pt x="151" y="116" on="0"/>
        <pt x="178" y="116" on="1"/>
        <pt x="207" y="116" on="0"/>
        <pt x="242" y="77" on="0"/>
        <pt x="242" y="32" on="1"/>
        <pt x="242" y="-61" on="0"/>
        <pt x="203" y="-229" on="0"/>
        <pt x="174" y="-300" on="1"/>
      </contour>
    </TTGlyph>
    <TTGlyph name="comma.tf" xMin="188" yMin="-300" xMax="312" yMax="116">
      <contour>
        <pt x="200" y="-300" on="1"/>
        <pt x="227" y="-214" on="0"/>
        <pt x="258" y="-64" on="0"/>
        <pt x="258" y="12" on="1"/>
        <pt x="262" y="-10" on="1"/>
        <pt x="250" y="-10" on="1"/>
        <pt x="223" y="-10" on="0"/>
        <pt x="188" y="26" on="0"/>
        <pt x="188" y="54" on="1"/>
        <pt x="188" y="81" on="0"/>
        <pt x="221" y="116" on="0"/>
        <pt x="248" y="116" on="1"/>
        <pt x="277" y="116" on="0"/>
        <pt x="312" y="77" on="0"/>
        <pt x="312" y="32" on="1"/>
        <pt x="312" y="-61" on="0"/>
        <pt x="273" y="-229" on="0"/>
        <pt x="244" y="-300" on="1"/>
      </contour>
    </TTGlyph>
    <TTGlyph name="copyright" xMin="98" yMin="-22" xMax="1586" yMax="1502">
      <contour>
        <pt x="842" y="-22" on="1"/>
        <pt x="619" y="-22" on="0"/>
        <pt x="284" y="168" on="0"/>
        <pt x="98" y="511" on="0"/>
        <pt x="98" y="740" on="1"/>
        <pt x="98" y="969" on="0"/>
        <pt x="284" y="1312" on="0"/>
        <pt x="619" y="1502" on="0"/>
        <pt x="842" y="1502" on="1"/>
        <pt x="1065" y="1502" on="0"/>
        <pt x="1400" y="1312" on="0"/>
        <pt x="1586" y="969" on="0"/>
        <pt x="1586" y="740" on="1"/>
        <pt x="1586" y="511" on="0"/>
        <pt x="1400" y="168" on="0"/>
        <pt x="1065" y="-22" on="0"/>
      </contour>
      <contour>
        <pt x="876" y="324" on="1"/>
        <pt x="704" y="324" on="0"/>
        <pt x="492" y="530" on="0"/>
        <pt x="492" y="734" on="1"/>
        <pt x="492" y="931" on="0"/>
        <pt x="704" y="1144" on="0"/>
        <pt x="902" y="1144" on="1"/>
        <pt x="953" y="1144" on="0"/>
        <pt x="1046" y="1131" on="0"/>
        <pt x="1094" y="1116" on="1"/>
        <pt x="1094" y="1050" on="1"/>
        <pt x="1048" y="1064" on="0"/>
        <pt x="957" y="1078" on="0"/>
        <pt x="904" y="1078" on="1"/>
        <pt x="741" y="1078" on="0"/>
        <pt x="564" y="912" on="0"/>
        <pt x="564" y="738" on="1"/>
        <pt x="564" y="560" on="0"/>
        <pt x="735" y="390" on="0"/>
        <pt x="882" y="390" on="1"/>
        <pt x="926" y="390" on="0"/>
        <pt x="1033" y="408" on="0"/>
        <pt x="1094" y="432" on="1"/>
        <pt x="1094" y="366" on="1"/>
        <pt x="1043" y="344" on="0"/>
        <pt x="935" y="324" on="0"/>
      </contour>
      <contour>
        <pt x="842" y="46" on="1"/>
        <pt x="1045" y="46" on="0"/>
        <pt x="1349" y="219" on="0"/>
        <pt x="1518" y="531" on="0"/>
        <pt x="1518" y="740" on="1"/>
        <pt x="1518" y="949" on="0"/>
        <pt x="1349" y="1261" on="0"/>
        <pt x="1045" y="1434" on="0"/>
        <pt x="842" y="1434" on="1"/>
        <pt x="639" y="1434" on="0"/>
        <pt x="335" y="1261" on="0"/>
        <pt x="166" y="949" on="0"/>
        <pt x="166" y="740" on="1"/>
        <pt x="166" y="531" on="0"/>
        <pt x="335" y="219" on="0"/>
        <pt x="639" y="46" on="0"/>
      </contour>
    </TTGlyph>
    <TTGlyph name="currency" xMin="68" yMin="310" xMax="932" yMax="1170">
      <contour>
        <pt x="276" y="940" on="1"/>
        <pt x="170" y="1018" on="1"/>
        <pt x="68" y="1114" on="1"/>
        <pt x="124" y="1170" on="1"/>
        <pt x="220" y="1070" on="1"/>
        <pt x="300" y="962" on="1"/>
      </contour>
      <contour>
        <pt x="724" y="940" on="1"/>
        <pt x="700" y="962" on="1"/>
        <pt x="780" y="1070" on="1"/>
        <pt x="876" y="1170" on="1"/>
        <pt x="932" y="1114" on="1"/>
        <pt x="830" y="1018" on="1"/>
      </contour>
      <contour>
        <pt x="874" y="310" on="1"/>
        <pt x="778" y="410" on="1"/>
        <pt x="710" y="504" on="1"/>
        <pt x="734" y="530" on="1"/>
        <pt x="830" y="462" on="1"/>
        <pt x="930" y="366" on="1"/>
      </contour>
      <contour>
        <pt x="126" y="310" on="1"/>
        <pt x="70" y="366" on="1"/>
        <pt x="170" y="462" on="1"/>
        <pt x="266" y="530" on="1"/>
        <pt x="290" y="504" on="1"/>
        <pt x="222" y="410" on="1"/>
      </contour>
      <contour>
        <pt x="500" y="414" on="1"/>
        <pt x="407" y="414" on="0"/>
        <pt x="269" y="495" on="0"/>
        <pt x="192" y="642" on="0"/>
        <pt x="192" y="740" on="1"/>
        <pt x="192" y="837" on="0"/>
        <pt x="269" y="983" on="0"/>
        <pt x="407" y="1064" on="0"/>
        <pt x="500" y="1064" on="1"/>
        <pt x="592" y="1064" on="0"/>
        <pt x="731" y="983" on="0"/>
        <pt x="808" y="837" on="0"/>
        <pt x="808" y="740" on="1"/>
        <pt x="808" y="642" on="0"/>
        <pt x="731" y="495" on="0"/>
        <pt x="592" y="414" on="0"/>
      </contour>
      <contour>
        <pt x="500" y="476" on="1"/>
        <pt x="610" y="476" on="0"/>
        <pt x="746" y="614" on="0"/>
        <pt x="746" y="740" on="1"/>
        <pt x="746" y="856" on="0"/>
        <pt x="621" y="1004" on="0"/>
        <pt x="502" y="1004" on="1"/>
        <pt x="391" y="1004" on="0"/>
        <pt x="254" y="865" on="0"/>
        <pt x="254" y="740" on="1"/>
        <pt x="254" y="616" on="0"/>
        <pt x="391" y="476" on="0"/>
      </contour>
    </TTGlyph>
    <TTGlyph name="currency.tf" xMin="68" yMin="310" xMax="932" yMax="1170">
      <contour>
        <pt x="276" y="940" on="1"/>
        <pt x="170" y="1018" on="1"/>
        <pt x="68" y="1114" on="1"/>
        <pt x="124" y="1170" on="1"/>
        <pt x="220" y="1070" on="1"/>
        <pt x="300" y="962" on="1"/>
      </contour>
      <contour>
        <pt x="724" y="940" on="1"/>
        <pt x="700" y="962" on="1"/>
        <pt x="780" y="1070" on="1"/>
        <pt x="876" y="1170" on="1"/>
        <pt x="932" y="1114" on="1"/>
        <pt x="830" y="1018" on="1"/>
      </contour>
      <contour>
        <pt x="874" y="310" on="1"/>
        <pt x="778" y="410" on="1"/>
        <pt x="710" y="504" on="1"/>
        <pt x="734" y="530" on="1"/>
        <pt x="830" y="462" on="1"/>
        <pt x="930" y="366" on="1"/>
      </contour>
      <contour>
        <pt x="126" y="310" on="1"/>
        <pt x="70" y="366" on="1"/>
        <pt x="170" y="462" on="1"/>
        <pt x="266" y="530" on="1"/>
        <pt x="290" y="504" on="1"/>
        <pt x="222" y="410" on="1"/>
      </contour>
      <contour>
        <pt x="500" y="414" on="1"/>
        <pt x="407" y="414" on="0"/>
        <pt x="269" y="495" on="0"/>
        <pt x="192" y="642" on="0"/>
        <pt x="192" y="740" on="1"/>
        <pt x="192" y="837" on="0"/>
        <pt x="269" y="983" on="0"/>
        <pt x="407" y="1064" on="0"/>
        <pt x="500" y="1064" on="1"/>
        <pt x="592" y="1064" on="0"/>
        <pt x="731" y="983" on="0"/>
        <pt x="808" y="837" on="0"/>
        <pt x="808" y="740" on="1"/>
        <pt x="808" y="642" on="0"/>
        <pt x="731" y="495" on="0"/>
        <pt x="592" y="414" on="0"/>
      </contour>
      <contour>
        <pt x="500" y="476" on="1"/>
        <pt x="610" y="476" on="0"/>
        <pt x="746" y="614" on="0"/>
        <pt x="746" y="740" on="1"/>
        <pt x="746" y="856" on="0"/>
        <pt x="621" y="1004" on="0"/>
        <pt x="502" y="1004" on="1"/>
        <pt x="391" y="1004" on="0"/>
        <pt x="254" y="865" on="0"/>
        <pt x="254" y="740" on="1"/>
        <pt x="254" y="616" on="0"/>
        <pt x="391" y="476" on="0"/>
      </contour>
    </TTGlyph>
    <TTGlyph name="d" xMin="88" yMin="-18" xMax="770" yMax="1616">
      <contour>
        <pt x="446" y="-18" on="1"/>
        <pt x="350" y="-18" on="0"/>
        <pt x="187" y="77" on="0"/>
        <pt x="88" y="310" on="0"/>
        <pt x="88" y="518" on="1"/>
        <pt x="88" y="721" on="0"/>
        <pt x="196" y="976" on="0"/>
        <pt x="402" y="1096" on="0"/>
        <pt x="548" y="1096" on="1"/>
        <pt x="584" y="1096" on="0"/>
        <pt x="666" y="1091" on="0"/>
        <pt x="702" y="1086" on="1"/>
        <pt x="702" y="1616" on="1"/>
        <pt x="770" y="1616" on="1"/>
        <pt x="770" y="0" on="1"/>
        <pt x="710" y="0" on="1"/>
        <pt x="704" y="106" on="1"/>
        <pt x="696" y="106" on="1"/>
        <pt x="660" y="57" on="0"/>
        <pt x="532" y="-18" on="0"/>
      </contour>
      <contour>
        <pt x="448" y="48" on="1"/>
        <pt x="522" y="48" on="0"/>
        <pt x="663" y="129" on="0"/>
        <pt x="702" y="208" on="1"/>
        <pt x="702" y="1016" on="1"/>
        <pt x="672" y="1022" on="0"/>
        <pt x="584" y="1030" on="0"/>
        <pt x="546" y="1030" on="1"/>
        <pt x="360" y="1030" on="0"/>
        <pt x="160" y="801" on="0"/>
        <pt x="160" y="526" on="1"/>
        <pt x="160" y="331" on="0"/>
        <pt x="237" y="125" on="0"/>
        <pt x="368" y="48" on="0"/>
      </contour>
    </TTGlyph>
    <TTGlyph name="d.sc" xMin="166" yMin="-8" xMax="938" yMax="1202">
      <contour>
        <pt x="384" y="-8" on="1"/>
        <pt x="333" y="-8" on="0"/>
        <pt x="234" y="-3" on="0"/>
        <pt x="166" y="4" on="1"/>
        <pt x="166" y="1180" on="1"/>
        <pt x="203" y="1186" on="0"/>
        <pt x="284" y="1196" on="0"/>
        <pt x="367" y="1202" on="0"/>
        <pt x="408" y="1202" on="1"/>
        <pt x="674" y="1202" on="0"/>
        <pt x="938" y="908" on="0"/>
        <pt x="938" y="594" on="1"/>
        <pt x="938" y="380" on="0"/>
        <pt x="812" y="115" on="0"/>
        <pt x="565" y="-8" on="0"/>
      </contour>
      <contour>
        <pt x="392" y="56" on="1"/>
        <pt x="550" y="56" on="0"/>
        <pt x="761" y="163" on="0"/>
        <pt x="866" y="400" on="0"/>
        <pt x="866" y="594" on="1"/>
        <pt x="866" y="785" on="0"/>
        <pt x="769" y="1025" on="0"/>
        <pt x="566" y="1138" on="0"/>
        <pt x="408" y="1138" on="1"/>
        <pt x="366" y="1138" on="0"/>
        <pt x="278" y="1130" on="0"/>
        <pt x="234" y="1124" on="1"/>
        <pt x="234" y="64" on="1"/>
        <pt x="276" y="58" on="0"/>
        <pt x="350" y="56" on="0"/>
      </contour>
    </TTGlyph>
    <TTGlyph name="dagger" xMin="72" yMin="160" xMax="796" yMax="1616">
      <contour>
        <pt x="412" y="160" on="1"/>
        <pt x="400" y="380" on="1"/>
        <pt x="400" y="1012" on="1"/>
        <pt x="412" y="1234" on="1"/>
        <pt x="192" y="1222" on="1"/>
        <pt x="72" y="1222" on="1"/>
        <pt x="72" y="1286" on="1"/>
        <pt x="192" y="1286" on="1"/>
        <pt x="412" y="1274" on="1"/>
        <pt x="400" y="1496" on="1"/>
        <pt x="400" y="1616" on="1"/>
        <pt x="468" y="1616" on="1"/>
        <pt x="468" y="1496" on="1"/>
        <pt x="456" y="1274" on="1"/>
        <pt x="676" y="1286" on="1"/>
        <pt x="796" y="1286" on="1"/>
        <pt x="796" y="1222" on="1"/>
        <pt x="676" y="1222" on="1"/>
        <pt x="456" y="1234" on="1"/>
        <pt x="468" y="1012" on="1"/>
        <pt x="468" y="380" on="1"/>
        <pt x="456" y="160" on="1"/>
      </contour>
    </TTGlyph>
    <TTGlyph name="daggerdbl" xMin="72" yMin="160" xMax="796" yMax="1616">
      <contour>
        <pt x="398" y="160" on="1"/>
        <pt x="398" y="280" on="1"/>
        <pt x="410" y="500" on="1"/>
        <pt x="132" y="490" on="1"/>
        <pt x="72" y="490" on="1"/>
        <pt x="72" y="554" on="1"/>
        <pt x="132" y="554" on="1"/>
        <pt x="410" y="544" on="1"/>
        <pt x="398" y="784" on="1"/>
        <pt x="398" y="1012" on="1"/>
        <pt x="410" y="1232" on="1"/>
        <pt x="132" y="1222" on="1"/>
        <pt x="72" y="1222" on="1"/>
        <pt x="72" y="1286" on="1"/>
        <pt x="132" y="1286" on="1"/>
        <pt x="410" y="1276" on="1"/>
        <pt x="398" y="1496" on="1"/>
        <pt x="398" y="1616" on="1"/>
        <pt x="466" y="1616" on="1"/>
        <pt x="466" y="1496" on="1"/>
        <pt x="454" y="1276" on="1"/>
        <pt x="736" y="1286" on="1"/>
        <pt x="796" y="1286" on="1"/>
        <pt x="796" y="1222" on="1"/>
        <pt x="736" y="1222" on="1"/>
        <pt x="454" y="1232" on="1"/>
        <pt x="466" y="1012" on="1"/>
        <pt x="466" y="784" on="1"/>
        <pt x="454" y="544" on="1"/>
        <pt x="736" y="554" on="1"/>
        <pt x="796" y="554" on="1"/>
        <pt x="796" y="490" on="1"/>
        <pt x="736" y="490" on="1"/>
        <pt x="454" y="500" on="1"/>
        <pt x="466" y="280" on="1"/>
        <pt x="466" y="160" on="1"/>
      </contour>
    </TTGlyph>
    <TTGlyph name="dcaron" xMin="88" yMin="-18" xMax="934" yMax="1616">
      <component glyphName="d" x="0" y="0" flags="0x204"/>
      <component glyphName="uni030C.alt" x="470" y="0" flags="0x4"/>
    </TTGlyph>
    <TTGlyph name="dcaron.sc" xMin="166" yMin="-8" xMax="938" yMax="1598">
      <component glyphName="d.sc" x="0" y="0" flags="0x204"/>
      <component glyphName="uni030C.sc" x="72" y="-290" flags="0x4"/>
    </TTGlyph>
    <TTGlyph name="dcroat" xMin="88" yMin="-18" xMax="908" yMax="1616">
      <component glyphName="d" x="0" y="0" flags="0x204"/>
      <component glyphName="uni0335.d" x="170" y="276" flags="0x4"/>
    </TTGlyph>
    <TTGlyph name="dcroat.sc" xMin="0" yMin="-8" xMax="938" yMax="1202">
      <component glyphName="eth.sc" x="0" y="0" flags="0x204"/>
    </TTGlyph>
    <TTGlyph name="degree" xMin="134" yMin="852" xMax="778" yMax="1496">
      <contour>
        <pt x="456" y="852" on="1"/>
        <pt x="362" y="852" on="0"/>
        <pt x="217" y="936" on="0"/>
        <pt x="134" y="1081" on="0"/>
        <pt x="134" y="1174" on="1"/>
        <pt x="134" y="1267" on="0"/>
        <pt x="217" y="1413" on="0"/>
        <pt x="362" y="1496" on="0"/>
        <pt x="456" y="1496" on="1"/>
        <pt x="550" y="1496" on="0"/>
        <pt x="695" y="1413" on="0"/>
        <pt x="778" y="1267" on="0"/>
        <pt x="778" y="1174" on="1"/>
        <pt x="778" y="1081" on="0"/>
        <pt x="695" y="936" on="0"/>
        <pt x="550" y="852" on="0"/>
      </contour>
      <contour>
        <pt x="456" y="916" on="1"/>
        <pt x="567" y="916" on="0"/>
        <pt x="710" y="1056" on="0"/>
        <pt x="710" y="1174" on="1"/>
        <pt x="710" y="1293" on="0"/>
        <pt x="567" y="1432" on="0"/>
        <pt x="456" y="1432" on="1"/>
        <pt x="345" y="1432" on="0"/>
        <pt x="202" y="1293" on="0"/>
        <pt x="202" y="1174" on="1"/>
        <pt x="202" y="1056" on="0"/>
        <pt x="345" y="916" on="0"/>
      </contour>
    </TTGlyph>
    <TTGlyph name="degree.tf" xMin="178" yMin="852" xMax="822" yMax="1496">
      <contour>
        <pt x="500" y="852" on="1"/>
        <pt x="406" y="852" on="0"/>
        <pt x="261" y="936" on="0"/>
        <pt x="178" y="1081" on="0"/>
        <pt x="178" y="1174" on="1"/>
        <pt x="178" y="1267" on="0"/>
        <pt x="261" y="1413" on="0"/>
        <pt x="406" y="1496" on="0"/>
        <pt x="500" y="1496" on="1"/>
        <pt x="594" y="1496" on="0"/>
        <pt x="739" y="1413" on="0"/>
        <pt x="822" y="1267" on="0"/>
        <pt x="822" y="1174" on="1"/>
        <pt x="822" y="1081" on="0"/>
        <pt x="739" y="936" on="0"/>
        <pt x="594" y="852" on="0"/>
      </contour>
      <contour>
        <pt x="500" y="916" on="1"/>
        <pt x="611" y="916" on="0"/>
        <pt x="754" y="1056" on="0"/>
        <pt x="754" y="1174" on="1"/>
        <pt x="754" y="1293" on="0"/>
        <pt x="611" y="1432" on="0"/>
        <pt x="500" y="1432" on="1"/>
        <pt x="389" y="1432" on="0"/>
        <pt x="246" y="1293" on="0"/>
        <pt x="246" y="1174" on="1"/>
        <pt x="246" y="1056" on="0"/>
        <pt x="389" y="916" on="0"/>
      </contour>
    </TTGlyph>
    <TTGlyph name="dieresis" xMin="178" yMin="1360" xMax="622" yMax="1486">
      <component glyphName="uni0308" x="0" y="0" flags="0x4"/>
    </TTGlyph>
    <TTGlyph name="divide" xMin="144" yMin="368" xMax="872" yMax="1152">
      <contour>
        <pt x="144" y="728" on="1"/>
        <pt x="144" y="792" on="1"/>
        <pt x="872" y="792" on="1"/>
        <pt x="872" y="728" on="1"/>
      </contour>
      <contour>
        <pt x="508" y="368" on="1"/>
        <pt x="481" y="368" on="0"/>
        <pt x="446" y="402" on="0"/>
        <pt x="446" y="430" on="1"/>
        <pt x="446" y="459" on="0"/>
        <pt x="481" y="494" on="0"/>
        <pt x="508" y="494" on="1"/>
        <pt x="535" y="494" on="0"/>
        <pt x="570" y="459" on="0"/>
        <pt x="570" y="430" on="1"/>
        <pt x="570" y="402" on="0"/>
        <pt x="535" y="368" on="0"/>
      </contour>
      <contour>
        <pt x="508" y="1026" on="1"/>
        <pt x="481" y="1026" on="0"/>
        <pt x="446" y="1060" on="0"/>
        <pt x="446" y="1088" on="1"/>
        <pt x="446" y="1117" on="0"/>
        <pt x="481" y="1152" on="0"/>
        <pt x="508" y="1152" on="1"/>
        <pt x="535" y="1152" on="0"/>
        <pt x="570" y="1117" on="0"/>
        <pt x="570" y="1088" on="1"/>
        <pt x="570" y="1060" on="0"/>
        <pt x="535" y="1026" on="0"/>
      </contour>
    </TTGlyph>
    <TTGlyph name="divide.osf" xMin="144" yMin="168" xMax="872" yMax="952">
      <contour>
        <pt x="144" y="528" on="1"/>
        <pt x="144" y="592" on="1"/>
        <pt x="872" y="592" on="1"/>
        <pt x="872" y="528" on="1"/>
      </contour>
      <contour>
        <pt x="508" y="168" on="1"/>
        <pt x="481" y="168" on="0"/>
        <pt x="446" y="202" on="0"/>
        <pt x="446" y="230" on="1"/>
        <pt x="446" y="259" on="0"/>
        <pt x="481" y="294" on="0"/>
        <pt x="508" y="294" on="1"/>
        <pt x="535" y="294" on="0"/>
        <pt x="570" y="259" on="0"/>
        <pt x="570" y="230" on="1"/>
        <pt x="570" y="202" on="0"/>
        <pt x="535" y="168" on="0"/>
      </contour>
      <contour>
        <pt x="508" y="826" on="1"/>
        <pt x="481" y="826" on="0"/>
        <pt x="446" y="860" on="0"/>
        <pt x="446" y="888" on="1"/>
        <pt x="446" y="917" on="0"/>
        <pt x="481" y="952" on="0"/>
        <pt x="508" y="952" on="1"/>
        <pt x="535" y="952" on="0"/>
        <pt x="570" y="917" on="0"/>
        <pt x="570" y="888" on="1"/>
        <pt x="570" y="860" on="0"/>
        <pt x="535" y="826" on="0"/>
      </contour>
    </TTGlyph>
    <TTGlyph name="divide.tf" xMin="136" yMin="368" xMax="864" yMax="1152">
      <contour>
        <pt x="136" y="728" on="1"/>
        <pt x="136" y="792" on="1"/>
        <pt x="864" y="792" on="1"/>
        <pt x="864" y="728" on="1"/>
      </contour>
      <contour>
        <pt x="500" y="368" on="1"/>
        <pt x="473" y="368" on="0"/>
        <pt x="438" y="402" on="0"/>
        <pt x="438" y="430" on="1"/>
        <pt x="438" y="459" on="0"/>
        <pt x="473" y="494" on="0"/>
        <pt x="500" y="494" on="1"/>
        <pt x="527" y="494" on="0"/>
        <pt x="562" y="459" on="0"/>
        <pt x="562" y="430" on="1"/>
        <pt x="562" y="402" on="0"/>
        <pt x="527" y="368" on="0"/>
      </contour>
      <contour>
        <pt x="500" y="1026" on="1"/>
        <pt x="473" y="1026" on="0"/>
        <pt x="438" y="1060" on="0"/>
        <pt x="438" y="1088" on="1"/>
        <pt x="438" y="1117" on="0"/>
        <pt x="473" y="1152" on="0"/>
        <pt x="500" y="1152" on="1"/>
        <pt x="527" y="1152" on="0"/>
        <pt x="562" y="1117" on="0"/>
        <pt x="562" y="1088" on="1"/>
        <pt x="562" y="1060" on="0"/>
        <pt x="527" y="1026" on="0"/>
      </contour>
    </TTGlyph>
    <TTGlyph name="divide.tosf" xMin="136" yMin="168" xMax="864" yMax="952">
      <contour>
        <pt x="136" y="528" on="1"/>
        <pt x="136" y="592" on="1"/>
        <pt x="864" y="592" on="1"/>
        <pt x="864" y="528" on="1"/>
      </contour>
      <contour>
        <pt x="500" y="168" on="1"/>
        <pt x="473" y="168" on="0"/>
        <pt x="438" y="202" on="0"/>
        <pt x="438" y="230" on="1"/>
        <pt x="438" y="259" on="0"/>
        <pt x="473" y="294" on="0"/>
        <pt x="500" y="294" on="1"/>
        <pt x="527" y="294" on="0"/>
        <pt x="562" y="259" on="0"/>
        <pt x="562" y="230" on="1"/>
        <pt x="562" y="202" on="0"/>
        <pt x="527" y="168" on="0"/>
      </contour>
      <contour>
        <pt x="500" y="826" on="1"/>
        <pt x="473" y="826" on="0"/>
        <pt x="438" y="860" on="0"/>
        <pt x="438" y="888" on="1"/>
        <pt x="438" y="917" on="0"/>
        <pt x="473" y="952" on="0"/>
        <pt x="500" y="952" on="1"/>
        <pt x="527" y="952" on="0"/>
        <pt x="562" y="917" on="0"/>
        <pt x="562" y="888" on="1"/>
        <pt x="562" y="860" on="0"/>
        <pt x="527" y="826" on="0"/>
      </contour>
    </TTGlyph>
    <TTGlyph name="dollar" xMin="68" yMin="-240" xMax="798" yMax="1720">
      <contour>
        <pt x="364" y="-18" on="1"/>
        <pt x="301" y="-18" on="0"/>
        <pt x="153" y="7" on="0"/>
        <pt x="82" y="32" on="1"/>
        <pt x="82" y="100" on="1"/>
        <pt x="134" y="82" on="0"/>
        <pt x="232" y="59" on="0"/>
        <pt x="325" y="48" on="0"/>
        <pt x="370" y="48" on="1"/>
        <pt x="486" y="48" on="0"/>
        <pt x="645" y="120" on="0"/>
        <pt x="726" y="264" on="0"/>
        <pt x="726" y="372" on="1"/>
        <pt x="726" y="510" on="0"/>
        <pt x="591" y="658" on="0"/>
        <pt x="436" y="712" on="1"/>
        <pt x="384" y="730" on="1"/>
        <pt x="230" y="784" on="0"/>
        <pt x="68" y="969" on="0"/>
        <pt x="68" y="1120" on="1"/>
        <pt x="68" y="1297" on="0"/>
        <pt x="288" y="1498" on="0"/>
        <pt x="498" y="1498" on="1"/>
        <pt x="557" y="1498" on="0"/>
        <pt x="693" y="1480" on="0"/>
        <pt x="744" y="1462" on="1"/>
        <pt x="744" y="1394" on="1"/>
        <pt x="680" y="1415" on="0"/>
        <pt x="557" y="1432" on="0"/>
        <pt x="494" y="1432" on="1"/>
        <pt x="375" y="1432" on="0"/>
        <pt x="218" y="1361" on="0"/>
        <pt x="140" y="1223" on="0"/>
        <pt x="140" y="1124" on="1"/>
        <pt x="140" y="992" on="0"/>
        <pt x="270" y="847" on="0"/>
        <pt x="420" y="794" on="1"/>
        <pt x="472" y="776" on="1"/>
        <pt x="579" y="739" on="0"/>
        <pt x="724" y="631" on="0"/>
        <pt x="798" y="479" on="0"/>
        <pt x="798" y="376" on="1"/>
        <pt x="798" y="249" on="0"/>
        <pt x="697" y="73" on="0"/>
        <pt x="503" y="-18" on="0"/>
      </contour>
      <contour>
        <pt x="402" y="-240" on="1"/>
        <pt x="402" y="0" on="1"/>
        <pt x="466" y="20" on="1"/>
        <pt x="466" y="-240" on="1"/>
      </contour>
      <contour>
        <pt x="402" y="1480" on="1"/>
        <pt x="402" y="1720" on="1"/>
        <pt x="466" y="1720" on="1"/>
        <pt x="466" y="1480" on="1"/>
      </contour>
    </TTGlyph>
    <TTGlyph name="dollar.tf" xMin="94" yMin="-240" xMax="904" yMax="1720">
      <contour>
        <pt x="422" y="-18" on="1"/>
        <pt x="353" y="-18" on="0"/>
        <pt x="188" y="7" on="0"/>
        <pt x="110" y="32" on="1"/>
        <pt x="110" y="100" on="1"/>
        <pt x="167" y="82" on="0"/>
        <pt x="276" y="59" on="0"/>
        <pt x="380" y="48" on="0"/>
        <pt x="430" y="48" on="1"/>
        <pt x="558" y="48" on="0"/>
        <pt x="738" y="120" on="0"/>
        <pt x="832" y="264" on="0"/>
        <pt x="832" y="372" on="1"/>
        <pt x="832" y="464" on="0"/>
        <pt x="767" y="588" on="0"/>
        <pt x="623" y="675" on="0"/>
        <pt x="504" y="712" on="1"/>
        <pt x="446" y="730" on="1"/>
        <pt x="332" y="765" on="0"/>
        <pt x="175" y="864" on="0"/>
        <pt x="94" y="1012" on="0"/>
        <pt x="94" y="1120" on="1"/>
        <pt x="94" y="1300" on="0"/>
        <pt x="338" y="1498" on="0"/>
        <pt x="572" y="1498" on="1"/>
        <pt x="637" y="1498" on="0"/>
        <pt x="787" y="1480" on="0"/>
        <pt x="844" y="1462" on="1"/>
        <pt x="844" y="1394" on="1"/>
        <pt x="772" y="1415" on="0"/>
        <pt x="637" y="1432" on="0"/>
        <pt x="566" y="1432" on="1"/>
        <pt x="430" y="1432" on="0"/>
        <pt x="253" y="1361" on="0"/>
        <pt x="166" y="1223" on="0"/>
        <pt x="166" y="1124" on="1"/>
        <pt x="166" y="1036" on="0"/>
        <pt x="228" y="916" on="0"/>
        <pt x="367" y="830" on="0"/>
        <pt x="482" y="794" on="1"/>
        <pt x="540" y="776" on="1"/>
        <pt x="659" y="739" on="0"/>
        <pt x="821" y="637" on="0"/>
        <pt x="904" y="486" on="0"/>
        <pt x="904" y="376" on="1"/>
        <pt x="904" y="249" on="0"/>
        <pt x="791" y="73" on="0"/>
        <pt x="576" y="-18" on="0"/>
      </contour>
      <contour>
        <pt x="468" y="-240" on="1"/>
        <pt x="468" y="0" on="1"/>
        <pt x="532" y="20" on="1"/>
        <pt x="532" y="-240" on="1"/>
      </contour>
      <contour>
        <pt x="468" y="1480" on="1"/>
        <pt x="468" y="1720" on="1"/>
        <pt x="532" y="1720" on="1"/>
        <pt x="532" y="1480" on="1"/>
      </contour>
    </TTGlyph>
    <TTGlyph name="dong" xMin="88" yMin="-240" xMax="908" yMax="1616">
      <contour>
        <pt x="446" y="-18" on="1"/>
        <pt x="350" y="-18" on="0"/>
        <pt x="187" y="77" on="0"/>
        <pt x="88" y="310" on="0"/>
        <pt x="88" y="518" on="1"/>
        <pt x="88" y="721" on="0"/>
        <pt x="196" y="976" on="0"/>
        <pt x="402" y="1096" on="0"/>
        <pt x="548" y="1096" on="1"/>
        <pt x="584" y="1096" on="0"/>
        <pt x="666" y="1091" on="0"/>
        <pt x="702" y="1086" on="1"/>
        <pt x="702" y="1616" on="1"/>
        <pt x="770" y="1616" on="1"/>
        <pt x="770" y="0" on="1"/>
        <pt x="710" y="0" on="1"/>
        <pt x="704" y="106" on="1"/>
        <pt x="696" y="106" on="1"/>
        <pt x="660" y="57" on="0"/>
        <pt x="532" y="-18" on="0"/>
      </contour>
      <contour>
        <pt x="128" y="-240" on="1"/>
        <pt x="128" y="-180" on="1"/>
        <pt x="770" y="-180" on="1"/>
        <pt x="770" y="-240" on="1"/>
      </contour>
      <contour>
        <pt x="448" y="48" on="1"/>
        <pt x="522" y="48" on="0"/>
        <pt x="663" y="129" on="0"/>
        <pt x="702" y="208" on="1"/>
        <pt x="702" y="1016" on="1"/>
        <pt x="672" y="1022" on="0"/>
        <pt x="584" y="1030" on="0"/>
        <pt x="546" y="1030" on="1"/>
        <pt x="360" y="1030" on="0"/>
        <pt x="160" y="801" on="0"/>
        <pt x="160" y="526" on="1"/>
        <pt x="160" y="331" on="0"/>
        <pt x="237" y="125" on="0"/>
        <pt x="368" y="48" on="0"/>
      </contour>
      <contour>
        <pt x="402" y="1326" on="1"/>
        <pt x="402" y="1386" on="1"/>
        <pt x="908" y="1386" on="1"/>
        <pt x="908" y="1326" on="1"/>
      </contour>
    </TTGlyph>
    <TTGlyph name="dong.tf" xMin="140" yMin="-240" xMax="960" yMax="1616">
      <contour>
        <pt x="498" y="-18" on="1"/>
        <pt x="402" y="-18" on="0"/>
        <pt x="239" y="77" on="0"/>
        <pt x="140" y="310" on="0"/>
        <pt x="140" y="518" on="1"/>
        <pt x="140" y="721" on="0"/>
        <pt x="248" y="976" on="0"/>
        <pt x="454" y="1096" on="0"/>
        <pt x="600" y="1096" on="1"/>
        <pt x="636" y="1096" on="0"/>
        <pt x="718" y="1091" on="0"/>
        <pt x="754" y="1086" on="1"/>
        <pt x="754" y="1616" on="1"/>
        <pt x="822" y="1616" on="1"/>
        <pt x="822" y="0" on="1"/>
        <pt x="762" y="0" on="1"/>
        <pt x="756" y="106" on="1"/>
        <pt x="748" y="106" on="1"/>
        <pt x="712" y="57" on="0"/>
        <pt x="584" y="-18" on="0"/>
      </contour>
      <contour>
        <pt x="180" y="-240" on="1"/>
        <pt x="180" y="-180" on="1"/>
        <pt x="822" y="-180" on="1"/>
        <pt x="822" y="-240" on="1"/>
      </contour>
      <contour>
        <pt x="500" y="48" on="1"/>
        <pt x="574" y="48" on="0"/>
        <pt x="715" y="129" on="0"/>
        <pt x="754" y="208" on="1"/>
        <pt x="754" y="1016" on="1"/>
        <pt x="724" y="1022" on="0"/>
        <pt x="636" y="1030" on="0"/>
        <pt x="598" y="1030" on="1"/>
        <pt x="412" y="1030" on="0"/>
        <pt x="212" y="801" on="0"/>
        <pt x="212" y="526" on="1"/>
        <pt x="212" y="331" on="0"/>
        <pt x="289" y="125" on="0"/>
        <pt x="420" y="48" on="0"/>
      </contour>
      <contour>
        <pt x="454" y="1326" on="1"/>
        <pt x="454" y="1386" on="1"/>
        <pt x="960" y="1386" on="1"/>
        <pt x="960" y="1326" on="1"/>
      </contour>
    </TTGlyph>
    <TTGlyph name="dotaccent" xMin="338" yMin="1360" xMax="462" yMax="1486">
      <component glyphName="uni0307" x="0" y="0" flags="0x4"/>
    </TTGlyph>
    <TTGlyph name="dotbelowcomb" xMin="338" yMin="-310" xMax="462" yMax="-184">
      <contour>
        <pt x="400" y="-310" on="1"/>
        <pt x="373" y="-310" on="0"/>
        <pt x="338" y="-276" on="0"/>
        <pt x="338" y="-248" on="1"/>
        <pt x="338" y="-219" on="0"/>
        <pt x="373" y="-184" on="0"/>
        <pt x="400" y="-184" on="1"/>
        <pt x="427" y="-184" on="0"/>
        <pt x="462" y="-219" on="0"/>
        <pt x="462" y="-248" on="1"/>
        <pt x="462" y="-276" on="0"/>
        <pt x="427" y="-310" on="0"/>
      </contour>
    </TTGlyph>
    <TTGlyph name="dotbelowcomb.case" xMin="338" yMin="-310" xMax="462" yMax="-184">
      <contour>
        <pt x="400" y="-310" on="1"/>
        <pt x="373" y="-310" on="0"/>
        <pt x="338" y="-276" on="0"/>
        <pt x="338" y="-248" on="1"/>
        <pt x="338" y="-219" on="0"/>
        <pt x="373" y="-184" on="0"/>
        <pt x="400" y="-184" on="1"/>
        <pt x="427" y="-184" on="0"/>
        <pt x="462" y="-219" on="0"/>
        <pt x="462" y="-248" on="1"/>
        <pt x="462" y="-276" on="0"/>
        <pt x="427" y="-310" on="0"/>
      </contour>
    </TTGlyph>
    <TTGlyph name="dotbelowcomb.sc" xMin="338" yMin="-310" xMax="462" yMax="-184">
      <component glyphName="dotbelowcomb.case" x="0" y="0" flags="0x204"/>
    </TTGlyph>
    <TTGlyph name="dotlessi" xMin="144" yMin="0" xMax="212" yMax="1080">
      <contour>
        <pt x="144" y="0" on="1"/>
        <pt x="144" y="1080" on="1"/>
        <pt x="212" y="1080" on="1"/>
        <pt x="212" y="0" on="1"/>
      </contour>
    </TTGlyph>
    <TTGlyph name="e" xMin="88" yMin="-18" xMax="772" yMax="1096">
      <contour>
        <pt x="496" y="-18" on="1"/>
        <pt x="364" y="-18" on="0"/>
        <pt x="182" y="89" on="0"/>
        <pt x="88" y="333" on="0"/>
        <pt x="88" y="540" on="1"/>
        <pt x="88" y="747" on="0"/>
        <pt x="180" y="991" on="0"/>
        <pt x="338" y="1096" on="0"/>
        <pt x="438" y="1096" on="1"/>
        <pt x="539" y="1096" on="0"/>
        <pt x="689" y="992" on="0"/>
        <pt x="772" y="749" on="0"/>
        <pt x="772" y="540" on="1"/>
        <pt x="772" y="510" on="1"/>
        <pt x="132" y="510" on="1"/>
        <pt x="132" y="576" on="1"/>
        <pt x="716" y="576" on="1"/>
        <pt x="700" y="552" on="1"/>
        <pt x="700" y="740" on="0"/>
        <pt x="633" y="948" on="0"/>
        <pt x="515" y="1030" on="0"/>
        <pt x="438" y="1030" on="1"/>
        <pt x="360" y="1030" on="0"/>
        <pt x="234" y="948" on="0"/>
        <pt x="160" y="740" on="0"/>
        <pt x="160" y="552" on="1"/>
        <pt x="160" y="534" on="1"/>
        <pt x="160" y="349" on="0"/>
        <pt x="237" y="137" on="0"/>
        <pt x="388" y="48" on="0"/>
        <pt x="500" y="48" on="1"/>
        <pt x="547" y="48" on="0"/>
        <pt x="654" y="68" on="0"/>
        <pt x="724" y="90" on="1"/>
        <pt x="724" y="22" on="1"/>
        <pt x="660" y="0" on="0"/>
        <pt x="549" y="-18" on="0"/>
      </contour>
    </TTGlyph>
    <TTGlyph name="e.sc" xMin="166" yMin="0" xMax="812" yMax="1190">
      <contour>
        <pt x="166" y="0" on="1"/>
        <pt x="166" y="1190" on="1"/>
        <pt x="804" y="1190" on="1"/>
        <pt x="804" y="1126" on="1"/>
        <pt x="234" y="1126" on="1"/>
        <pt x="234" y="64" on="1"/>
        <pt x="812" y="64" on="1"/>
        <pt x="812" y="0" on="1"/>
      </contour>
      <contour>
        <pt x="224" y="578" on="1"/>
        <pt x="224" y="642" on="1"/>
        <pt x="726" y="642" on="1"/>
        <pt x="726" y="578" on="1"/>
      </contour>
    </TTGlyph>
    <TTGlyph name="eacute" xMin="88" yMin="-18" xMax="772" yMax="1616">
      <component glyphName="e" x="0" y="0" flags="0x204"/>
      <component glyphName="acutecomb" x="34" y="0" flags="0x4"/>
    </TTGlyph>
    <TTGlyph name="eacute.sc" xMin="166" yMin="0" xMax="812" yMax="1598">
      <component glyphName="e.sc" x="0" y="0" flags="0x204"/>
      <component glyphName="acutecomb.sc" x="104" y="-290" flags="0x4"/>
    </TTGlyph>
    <TTGlyph name="ebreve" xMin="88" yMin="-18" xMax="772" yMax="1588">
      <component glyphName="e" x="0" y="0" flags="0x204"/>
      <component glyphName="uni0306" x="34" y="0" flags="0x4"/>
    </TTGlyph>
    <TTGlyph name="ebreve.sc" xMin="166" yMin="0" xMax="812" yMax="1570">
      <component glyphName="e.sc" x="0" y="0" flags="0x204"/>
      <component glyphName="uni0306.sc" x="104" y="-290" flags="0x4"/>
    </TTGlyph>
    <TTGlyph name="ecaron" xMin="88" yMin="-18" xMax="772" yMax="1616">
      <component glyphName="e" x="0" y="0" flags="0x204"/>
      <component glyphName="uni030C" x="34" y="0" flags="0x4"/>
    </TTGlyph>
    <TTGlyph name="ecaron.sc" xMin="166" yMin="0" xMax="812" yMax="1598">
      <component glyphName="e.sc" x="0" y="0" flags="0x204"/>
      <component glyphName="uni030C.sc" x="104" y="-290" flags="0x4"/>
    </TTGlyph>
    <TTGlyph name="ecircumflex" xMin="88" yMin="-18" xMax="772" yMax="1616">
      <component glyphName="e" x="0" y="0" flags="0x204"/>
      <component glyphName="uni0302" x="34" y="0" flags="0x4"/>
    </TTGlyph>
    <TTGlyph name="ecircumflex.sc" xMin="166" yMin="0" xMax="812" yMax="1598">
      <component glyphName="e.sc" x="0" y="0" flags="0x204"/>
      <component glyphName="uni0302.sc" x="104" y="-290" flags="0x4"/>
    </TTGlyph>
    <TTGlyph name="edieresis" xMin="88" yMin="-18" xMax="772" yMax="1486">
      <component glyphName="e" x="0" y="0" flags="0x204"/>
      <component glyphName="uni0308" x="34" y="0" flags="0x4"/>
    </TTGlyph>
    <TTGlyph name="edieresis.sc" xMin="166" yMin="0" xMax="812" yMax="1526">
      <component glyphName="e.sc" x="0" y="0" flags="0x204"/>
      <component glyphName="uni0308.sc" x="104" y="-290" flags="0x4"/>
    </TTGlyph>
    <TTGlyph name="edotaccent" xMin="88" yMin="-18" xMax="772" yMax="1486">
      <component glyphName="e" x="0" y="0" flags="0x204"/>
      <component glyphName="uni0307" x="34" y="0" flags="0x4"/>
    </TTGlyph>
    <TTGlyph name="edotaccent.sc" xMin="166" yMin="0" xMax="812" yMax="1526">
      <component glyphName="e.sc" x="0" y="0" flags="0x204"/>
      <component glyphName="uni0307.sc" x="104" y="-290" flags="0x4"/>
    </TTGlyph>
    <TTGlyph name="egrave" xMin="88" yMin="-18" xMax="772" yMax="1616">
      <component glyphName="e" x="0" y="0" flags="0x204"/>
      <component glyphName="gravecomb" x="34" y="0" flags="0x4"/>
    </TTGlyph>
    <TTGlyph name="egrave.sc" xMin="166" yMin="0" xMax="812" yMax="1598">
      <component glyphName="e.sc" x="0" y="0" flags="0x204"/>
      <component glyphName="gravecomb.sc" x="104" y="-290" flags="0x4"/>
    </TTGlyph>
    <TTGlyph name="eight" xMin="90" yMin="-18" xMax="946" yMax="1498">
      <contour>
        <pt x="530" y="-18" on="1"/>
        <pt x="390" y="-18" on="0"/>
        <pt x="193" y="73" on="0"/>
        <pt x="90" y="245" on="0"/>
        <pt x="90" y="366" on="1"/>
        <pt x="90" y="510" on="0"/>
        <pt x="251" y="732" on="0"/>
        <pt x="386" y="780" on="1"/>
        <pt x="452" y="748" on="1"/>
        <pt x="319" y="706" on="0"/>
        <pt x="162" y="509" on="0"/>
        <pt x="162" y="366" on="1"/>
        <pt x="162" y="215" on="0"/>
        <pt x="344" y="48" on="0"/>
        <pt x="530" y="48" on="1"/>
        <pt x="691" y="48" on="0"/>
        <pt x="874" y="208" on="0"/>
        <pt x="874" y="352" on="1"/>
        <pt x="874" y="448" on="0"/>
        <pt x="811" y="577" on="0"/>
        <pt x="662" y="669" on="0"/>
        <pt x="532" y="710" on="1"/>
        <pt x="389" y="755" on="0"/>
        <pt x="214" y="870" on="0"/>
        <pt x="134" y="1026" on="0"/>
        <pt x="134" y="1132" on="1"/>
        <pt x="134" y="1243" on="0"/>
        <pt x="227" y="1407" on="0"/>
        <pt x="398" y="1498" on="0"/>
        <pt x="514" y="1498" on="1"/>
        <pt x="693" y="1498" on="0"/>
        <pt x="902" y="1298" on="0"/>
        <pt x="902" y="1128" on="1"/>
        <pt x="902" y="1038" on="0"/>
        <pt x="839" y="888" on="0"/>
        <pt x="720" y="773" on="0"/>
        <pt x="636" y="734" on="1"/>
        <pt x="566" y="762" on="1"/>
        <pt x="706" y="827" on="0"/>
        <pt x="834" y="993" on="0"/>
        <pt x="834" y="1128" on="1"/>
        <pt x="834" y="1275" on="0"/>
        <pt x="664" y="1432" on="0"/>
        <pt x="514" y="1432" on="1"/>
        <pt x="366" y="1432" on="0"/>
        <pt x="206" y="1272" on="0"/>
        <pt x="206" y="1134" on="1"/>
        <pt x="206" y="1045" on="0"/>
        <pt x="266" y="916" on="0"/>
        <pt x="412" y="819" on="0"/>
        <pt x="542" y="778" on="1"/>
        <pt x="690" y="731" on="0"/>
        <pt x="867" y="618" on="0"/>
        <pt x="946" y="465" on="0"/>
        <pt x="946" y="358" on="1"/>
        <pt x="946" y="245" on="0"/>
        <pt x="845" y="76" on="0"/>
        <pt x="658" y="-18" on="0"/>
      </contour>
    </TTGlyph>
    <TTGlyph name="eight.dnom" xMin="60" yMin="-148" xMax="620" yMax="876">
      <contour>
        <pt x="348" y="-148" on="1"/>
        <pt x="255" y="-148" on="0"/>
        <pt x="127" y="-86" on="0"/>
        <pt x="60" y="30" on="0"/>
        <pt x="60" y="112" on="1"/>
        <pt x="60" y="208" on="0"/>
        <pt x="161" y="355" on="0"/>
        <pt x="248" y="388" on="1"/>
        <pt x="300" y="362" on="1"/>
        <pt x="218" y="334" on="0"/>
        <pt x="124" y="206" on="0"/>
        <pt x="124" y="114" on="1"/>
        <pt x="124" y="18" on="0"/>
        <pt x="234" y="-88" on="0"/>
        <pt x="348" y="-88" on="1"/>
        <pt x="446" y="-88" on="0"/>
        <pt x="556" y="13" on="0"/>
        <pt x="556" y="104" on="1"/>
        <pt x="556" y="166" on="0"/>
        <pt x="517" y="248" on="0"/>
        <pt x="423" y="308" on="0"/>
        <pt x="342" y="336" on="1"/>
        <pt x="249" y="368" on="0"/>
        <pt x="137" y="448" on="0"/>
        <pt x="86" y="554" on="0"/>
        <pt x="86" y="626" on="1"/>
        <pt x="86" y="740" on="0"/>
        <pt x="224" y="876" on="0"/>
        <pt x="338" y="876" on="1"/>
        <pt x="455" y="876" on="0"/>
        <pt x="594" y="742" on="0"/>
        <pt x="594" y="626" on="1"/>
        <pt x="594" y="538" on="0"/>
        <pt x="505" y="403" on="0"/>
        <pt x="424" y="362" on="1"/>
        <pt x="370" y="386" on="1"/>
        <pt x="456" y="430" on="0"/>
        <pt x="532" y="537" on="0"/>
        <pt x="532" y="624" on="1"/>
        <pt x="532" y="717" on="0"/>
        <pt x="430" y="818" on="0"/>
        <pt x="338" y="818" on="1"/>
        <pt x="248" y="818" on="0"/>
        <pt x="150" y="715" on="0"/>
        <pt x="150" y="628" on="1"/>
        <pt x="150" y="571" on="0"/>
        <pt x="187" y="489" on="0"/>
        <pt x="278" y="426" on="0"/>
        <pt x="360" y="398" on="1"/>
        <pt x="455" y="365" on="0"/>
        <pt x="569" y="287" on="0"/>
        <pt x="620" y="182" on="0"/>
        <pt x="620" y="110" on="1"/>
        <pt x="620" y="32" on="0"/>
        <pt x="554" y="-84" on="0"/>
        <pt x="432" y="-148" on="0"/>
      </contour>
    </TTGlyph>
    <TTGlyph name="eight.numr" xMin="60" yMin="604" xMax="620" yMax="1628">
      <contour>
        <pt x="348" y="604" on="1"/>
        <pt x="255" y="604" on="0"/>
        <pt x="127" y="666" on="0"/>
        <pt x="60" y="782" on="0"/>
        <pt x="60" y="864" on="1"/>
        <pt x="60" y="960" on="0"/>
        <pt x="161" y="1107" on="0"/>
        <pt x="248" y="1140" on="1"/>
        <pt x="300" y="1114" on="1"/>
        <pt x="218" y="1086" on="0"/>
        <pt x="124" y="958" on="0"/>
        <pt x="124" y="866" on="1"/>
        <pt x="124" y="770" on="0"/>
        <pt x="234" y="664" on="0"/>
        <pt x="348" y="664" on="1"/>
        <pt x="446" y="664" on="0"/>
        <pt x="556" y="765" on="0"/>
        <pt x="556" y="856" on="1"/>
        <pt x="556" y="918" on="0"/>
        <pt x="517" y="1000" on="0"/>
        <pt x="423" y="1060" on="0"/>
        <pt x="342" y="1088" on="1"/>
        <pt x="249" y="1120" on="0"/>
        <pt x="137" y="1200" on="0"/>
        <pt x="86" y="1306" on="0"/>
        <pt x="86" y="1378" on="1"/>
        <pt x="86" y="1492" on="0"/>
        <pt x="224" y="1628" on="0"/>
        <pt x="338" y="1628" on="1"/>
        <pt x="455" y="1628" on="0"/>
        <pt x="594" y="1494" on="0"/>
        <pt x="594" y="1378" on="1"/>
        <pt x="594" y="1290" on="0"/>
        <pt x="505" y="1155" on="0"/>
        <pt x="424" y="1114" on="1"/>
        <pt x="370" y="1138" on="1"/>
        <pt x="456" y="1182" on="0"/>
        <pt x="532" y="1289" on="0"/>
        <pt x="532" y="1376" on="1"/>
        <pt x="532" y="1469" on="0"/>
        <pt x="430" y="1570" on="0"/>
        <pt x="338" y="1570" on="1"/>
        <pt x="248" y="1570" on="0"/>
        <pt x="150" y="1467" on="0"/>
        <pt x="150" y="1380" on="1"/>
        <pt x="150" y="1323" on="0"/>
        <pt x="187" y="1241" on="0"/>
        <pt x="278" y="1178" on="0"/>
        <pt x="360" y="1150" on="1"/>
        <pt x="455" y="1117" on="0"/>
        <pt x="569" y="1039" on="0"/>
        <pt x="620" y="934" on="0"/>
        <pt x="620" y="862" on="1"/>
        <pt x="620" y="784" on="0"/>
        <pt x="554" y="668" on="0"/>
        <pt x="432" y="604" on="0"/>
      </contour>
    </TTGlyph>
    <TTGlyph name="eight.osf" xMin="90" yMin="-18" xMax="946" yMax="1498">
      <contour>
        <pt x="530" y="-18" on="1"/>
        <pt x="390" y="-18" on="0"/>
        <pt x="193" y="73" on="0"/>
        <pt x="90" y="245" on="0"/>
        <pt x="90" y="366" on="1"/>
        <pt x="90" y="510" on="0"/>
        <pt x="251" y="732" on="0"/>
        <pt x="386" y="780" on="1"/>
        <pt x="452" y="748" on="1"/>
        <pt x="319" y="706" on="0"/>
        <pt x="162" y="509" on="0"/>
        <pt x="162" y="366" on="1"/>
        <pt x="162" y="215" on="0"/>
        <pt x="344" y="48" on="0"/>
        <pt x="530" y="48" on="1"/>
        <pt x="691" y="48" on="0"/>
        <pt x="874" y="208" on="0"/>
        <pt x="874" y="352" on="1"/>
        <pt x="874" y="448" on="0"/>
        <pt x="811" y="577" on="0"/>
        <pt x="662" y="669" on="0"/>
        <pt x="532" y="710" on="1"/>
        <pt x="389" y="755" on="0"/>
        <pt x="214" y="870" on="0"/>
        <pt x="134" y="1026" on="0"/>
        <pt x="134" y="1132" on="1"/>
        <pt x="134" y="1243" on="0"/>
        <pt x="227" y="1407" on="0"/>
        <pt x="398" y="1498" on="0"/>
        <pt x="514" y="1498" on="1"/>
        <pt x="693" y="1498" on="0"/>
        <pt x="902" y="1298" on="0"/>
        <pt x="902" y="1128" on="1"/>
        <pt x="902" y="1038" on="0"/>
        <pt x="839" y="888" on="0"/>
        <pt x="720" y="773" on="0"/>
        <pt x="636" y="734" on="1"/>
        <pt x="566" y="762" on="1"/>
        <pt x="706" y="827" on="0"/>
        <pt x="834" y="993" on="0"/>
        <pt x="834" y="1128" on="1"/>
        <pt x="834" y="1275" on="0"/>
        <pt x="664" y="1432" on="0"/>
        <pt x="514" y="1432" on="1"/>
        <pt x="366" y="1432" on="0"/>
        <pt x="206" y="1272" on="0"/>
        <pt x="206" y="1134" on="1"/>
        <pt x="206" y="1045" on="0"/>
        <pt x="266" y="916" on="0"/>
        <pt x="412" y="819" on="0"/>
        <pt x="542" y="778" on="1"/>
        <pt x="690" y="731" on="0"/>
        <pt x="867" y="618" on="0"/>
        <pt x="946" y="465" on="0"/>
        <pt x="946" y="358" on="1"/>
        <pt x="946" y="245" on="0"/>
        <pt x="845" y="76" on="0"/>
        <pt x="658" y="-18" on="0"/>
      </contour>
    </TTGlyph>
    <TTGlyph name="eight.tf" xMin="92" yMin="-18" xMax="908" yMax="1498">
      <contour>
        <pt x="512" y="-18" on="1"/>
        <pt x="378" y="-18" on="0"/>
        <pt x="190" y="73" on="0"/>
        <pt x="92" y="245" on="0"/>
        <pt x="92" y="366" on="1"/>
        <pt x="92" y="510" on="0"/>
        <pt x="245" y="732" on="0"/>
        <pt x="374" y="780" on="1"/>
        <pt x="438" y="748" on="1"/>
        <pt x="311" y="706" on="0"/>
        <pt x="164" y="509" on="0"/>
        <pt x="164" y="366" on="1"/>
        <pt x="164" y="215" on="0"/>
        <pt x="335" y="48" on="0"/>
        <pt x="512" y="48" on="1"/>
        <pt x="665" y="48" on="0"/>
        <pt x="836" y="208" on="0"/>
        <pt x="836" y="352" on="1"/>
        <pt x="836" y="448" on="0"/>
        <pt x="777" y="577" on="0"/>
        <pt x="636" y="669" on="0"/>
        <pt x="512" y="710" on="1"/>
        <pt x="375" y="755" on="0"/>
        <pt x="209" y="870" on="0"/>
        <pt x="134" y="1026" on="0"/>
        <pt x="134" y="1132" on="1"/>
        <pt x="134" y="1243" on="0"/>
        <pt x="223" y="1407" on="0"/>
        <pt x="386" y="1498" on="0"/>
        <pt x="496" y="1498" on="1"/>
        <pt x="667" y="1498" on="0"/>
        <pt x="866" y="1298" on="0"/>
        <pt x="866" y="1128" on="1"/>
        <pt x="866" y="993" on="0"/>
        <pt x="732" y="793" on="0"/>
        <pt x="612" y="734" on="1"/>
        <pt x="546" y="762" on="1"/>
        <pt x="680" y="827" on="0"/>
        <pt x="798" y="993" on="0"/>
        <pt x="798" y="1128" on="1"/>
        <pt x="798" y="1275" on="0"/>
        <pt x="639" y="1432" on="0"/>
        <pt x="496" y="1432" on="1"/>
        <pt x="355" y="1432" on="0"/>
        <pt x="206" y="1272" on="0"/>
        <pt x="206" y="1134" on="1"/>
        <pt x="206" y="1045" on="0"/>
        <pt x="261" y="916" on="0"/>
        <pt x="399" y="819" on="0"/>
        <pt x="522" y="778" on="1"/>
        <pt x="664" y="731" on="0"/>
        <pt x="833" y="618" on="0"/>
        <pt x="908" y="465" on="0"/>
        <pt x="908" y="358" on="1"/>
        <pt x="908" y="245" on="0"/>
        <pt x="812" y="76" on="0"/>
        <pt x="634" y="-18" on="0"/>
      </contour>
    </TTGlyph>
    <TTGlyph name="eight.tosf" xMin="92" yMin="-18" xMax="908" yMax="1498">
      <contour>
        <pt x="512" y="-18" on="1"/>
        <pt x="378" y="-18" on="0"/>
        <pt x="190" y="73" on="0"/>
        <pt x="92" y="245" on="0"/>
        <pt x="92" y="366" on="1"/>
        <pt x="92" y="510" on="0"/>
        <pt x="245" y="732" on="0"/>
        <pt x="374" y="780" on="1"/>
        <pt x="438" y="748" on="1"/>
        <pt x="311" y="706" on="0"/>
        <pt x="164" y="509" on="0"/>
        <pt x="164" y="366" on="1"/>
        <pt x="164" y="215" on="0"/>
        <pt x="335" y="48" on="0"/>
        <pt x="512" y="48" on="1"/>
        <pt x="665" y="48" on="0"/>
        <pt x="836" y="208" on="0"/>
        <pt x="836" y="352" on="1"/>
        <pt x="836" y="448" on="0"/>
        <pt x="777" y="577" on="0"/>
        <pt x="636" y="669" on="0"/>
        <pt x="512" y="710" on="1"/>
        <pt x="375" y="755" on="0"/>
        <pt x="209" y="870" on="0"/>
        <pt x="134" y="1026" on="0"/>
        <pt x="134" y="1132" on="1"/>
        <pt x="134" y="1243" on="0"/>
        <pt x="223" y="1407" on="0"/>
        <pt x="386" y="1498" on="0"/>
        <pt x="496" y="1498" on="1"/>
        <pt x="667" y="1498" on="0"/>
        <pt x="866" y="1298" on="0"/>
        <pt x="866" y="1128" on="1"/>
        <pt x="866" y="993" on="0"/>
        <pt x="732" y="793" on="0"/>
        <pt x="612" y="734" on="1"/>
        <pt x="546" y="762" on="1"/>
        <pt x="680" y="827" on="0"/>
        <pt x="798" y="993" on="0"/>
        <pt x="798" y="1128" on="1"/>
        <pt x="798" y="1275" on="0"/>
        <pt x="639" y="1432" on="0"/>
        <pt x="496" y="1432" on="1"/>
        <pt x="355" y="1432" on="0"/>
        <pt x="206" y="1272" on="0"/>
        <pt x="206" y="1134" on="1"/>
        <pt x="206" y="1045" on="0"/>
        <pt x="261" y="916" on="0"/>
        <pt x="399" y="819" on="0"/>
        <pt x="522" y="778" on="1"/>
        <pt x="664" y="731" on="0"/>
        <pt x="833" y="618" on="0"/>
        <pt x="908" y="465" on="0"/>
        <pt x="908" y="358" on="1"/>
        <pt x="908" y="245" on="0"/>
        <pt x="812" y="76" on="0"/>
        <pt x="634" y="-18" on="0"/>
      </contour>
    </TTGlyph>
    <TTGlyph name="ellipsis" xMin="118" yMin="-10" xMax="922" yMax="116">
      <component glyphName="period" x="0" y="0" flags="0x4"/>
      <component glyphName="period" x="340" y="0" flags="0x4"/>
      <component glyphName="period" x="680" y="0" flags="0x4"/>
    </TTGlyph>
    <TTGlyph name="emacron" xMin="88" yMin="-18" xMax="772" yMax="1452">
      <component glyphName="e" x="0" y="0" flags="0x204"/>
      <component glyphName="uni0304" x="34" y="0" flags="0x4"/>
    </TTGlyph>
    <TTGlyph name="emacron.sc" xMin="166" yMin="0" xMax="812" yMax="1492">
      <component glyphName="e.sc" x="0" y="0" flags="0x204"/>
      <component glyphName="uni0304.sc" x="104" y="-290" flags="0x4"/>
    </TTGlyph>
    <TTGlyph name="emdash" xMin="0" yMin="528" xMax="1600" yMax="592">
      <contour>
        <pt x="0" y="528" on="1"/>
        <pt x="0" y="592" on="1"/>
        <pt x="1600" y="592" on="1"/>
        <pt x="1600" y="528" on="1"/>
      </contour>
    </TTGlyph>
    <TTGlyph name="endash" xMin="0" yMin="528" xMax="800" yMax="592">
      <contour>
        <pt x="0" y="528" on="1"/>
        <pt x="0" y="592" on="1"/>
        <pt x="800" y="592" on="1"/>
        <pt x="800" y="528" on="1"/>
      </contour>
    </TTGlyph>
    <TTGlyph name="eng" xMin="144" yMin="-460" xMax="796" yMax="1096">
      <contour>
        <pt x="608" y="-460" on="1"/>
        <pt x="558" y="-426" on="1"/>
        <pt x="618" y="-331" on="0"/>
        <pt x="693" y="-155" on="0"/>
        <pt x="728" y="41" on="0"/>
        <pt x="728" y="166" on="1"/>
        <pt x="728" y="774" on="1"/>
        <pt x="728" y="920" on="0"/>
        <pt x="608" y="1030" on="0"/>
        <pt x="510" y="1030" on="1"/>
        <pt x="464" y="1030" on="0"/>
        <pt x="354" y="997" on="0"/>
        <pt x="249" y="918" on="0"/>
        <pt x="212" y="850" on="1"/>
        <pt x="212" y="0" on="1"/>
        <pt x="144" y="0" on="1"/>
        <pt x="144" y="1080" on="1"/>
        <pt x="204" y="1080" on="1"/>
        <pt x="210" y="956" on="1"/>
        <pt x="218" y="956" on="1"/>
        <pt x="278" y="1028" on="0"/>
        <pt x="432" y="1096" on="0"/>
        <pt x="514" y="1096" on="1"/>
        <pt x="594" y="1096" on="0"/>
        <pt x="722" y="1037" on="0"/>
        <pt x="796" y="895" on="0"/>
        <pt x="796" y="770" on="1"/>
        <pt x="796" y="136" on="1"/>
        <pt x="792" y="19" on="0"/>
        <pt x="753" y="-174" on="0"/>
        <pt x="673" y="-358" on="0"/>
      </contour>
    </TTGlyph>
    <TTGlyph name="eng.sc" xMin="166" yMin="-460" xMax="960" yMax="1190">
      <contour>
        <pt x="166" y="0" on="1"/>
        <pt x="166" y="1190" on="1"/>
        <pt x="240" y="1190" on="1"/>
        <pt x="922" y="72" on="1"/>
        <pt x="905" y="-31" on="1"/>
        <pt x="204" y="1118" on="1"/>
        <pt x="232" y="1118" on="1"/>
        <pt x="232" y="0" on="1"/>
      </contour>
      <contour>
        <pt x="798" y="-460" on="1"/>
        <pt x="750" y="-426" on="1"/>
        <pt x="801" y="-350" on="0"/>
        <pt x="865" y="-210" on="0"/>
        <pt x="894" y="-55" on="0"/>
        <pt x="894" y="44" on="1"/>
        <pt x="894" y="1190" on="1"/>
        <pt x="960" y="1190" on="1"/>
        <pt x="960" y="24" on="1"/>
        <pt x="957" y="-71" on="0"/>
        <pt x="924" y="-229" on="0"/>
        <pt x="855" y="-378" on="0"/>
      </contour>
    </TTGlyph>
    <TTGlyph name="eogonek" xMin="88" yMin="-400" xMax="772" yMax="1096">
      <contour>
        <pt x="592" y="-400" on="1"/>
        <pt x="508" y="-400" on="0"/>
        <pt x="414" y="-311" on="0"/>
        <pt x="414" y="-232" on="1"/>
        <pt x="414" y="-166" on="0"/>
        <pt x="481" y="-49" on="0"/>
        <pt x="556" y="-4" on="1"/>
        <pt x="558" y="-14" on="1"/>
        <pt x="543" y="-15" on="0"/>
        <pt x="511" y="-18" on="0"/>
        <pt x="496" y="-18" on="1"/>
        <pt x="364" y="-18" on="0"/>
        <pt x="182" y="89" on="0"/>
        <pt x="88" y="333" on="0"/>
        <pt x="88" y="540" on="1"/>
        <pt x="88" y="747" on="0"/>
        <pt x="180" y="991" on="0"/>
        <pt x="338" y="1096" on="0"/>
        <pt x="438" y="1096" on="1"/>
        <pt x="539" y="1096" on="0"/>
        <pt x="689" y="992" on="0"/>
        <pt x="772" y="749" on="0"/>
        <pt x="772" y="540" on="1"/>
        <pt x="772" y="510" on="1"/>
        <pt x="132" y="510" on="1"/>
        <pt x="132" y="576" on="1"/>
        <pt x="716" y="576" on="1"/>
        <pt x="700" y="552" on="1"/>
        <pt x="700" y="740" on="0"/>
        <pt x="633" y="948" on="0"/>
        <pt x="515" y="1030" on="0"/>
        <pt x="438" y="1030" on="1"/>
        <pt x="360" y="1030" on="0"/>
        <pt x="234" y="948" on="0"/>
        <pt x="160" y="740" on="0"/>
        <pt x="160" y="552" on="1"/>
        <pt x="160" y="534" on="1"/>
        <pt x="160" y="349" on="0"/>
        <pt x="237" y="137" on="0"/>
        <pt x="388" y="48" on="0"/>
        <pt x="500" y="48" on="1"/>
        <pt x="547" y="48" on="0"/>
        <pt x="654" y="68" on="0"/>
        <pt x="724" y="90" on="1"/>
        <pt x="724" y="22" on="1"/>
        <pt x="618" y="-15" on="0"/>
        <pt x="509" y="-100" on="0"/>
        <pt x="470" y="-188" on="0"/>
        <pt x="470" y="-228" on="1"/>
        <pt x="470" y="-286" on="0"/>
        <pt x="533" y="-348" on="0"/>
        <pt x="590" y="-348" on="1"/>
        <pt x="626" y="-348" on="0"/>
        <pt x="694" y="-325" on="0"/>
        <pt x="724" y="-304" on="1"/>
        <pt x="724" y="-360" on="1"/>
        <pt x="697" y="-379" on="0"/>
        <pt x="627" y="-400" on="0"/>
      </contour>
    </TTGlyph>
    <TTGlyph name="eogonek.sc" xMin="166" yMin="-400" xMax="924" yMax="1190">
      <component glyphName="e.sc" x="0" y="0" flags="0x204"/>
      <component glyphName="uni0328.sc" x="412" y="0" flags="0x4"/>
    </TTGlyph>
    <TTGlyph name="equal" xMin="144" yMin="546" xMax="872" yMax="974">
      <contour>
        <pt x="144" y="910" on="1"/>
        <pt x="144" y="974" on="1"/>
        <pt x="872" y="974" on="1"/>
        <pt x="872" y="910" on="1"/>
      </contour>
      <contour>
        <pt x="144" y="546" on="1"/>
        <pt x="144" y="610" on="1"/>
        <pt x="872" y="610" on="1"/>
        <pt x="872" y="546" on="1"/>
      </contour>
    </TTGlyph>
    <TTGlyph name="equal.osf" xMin="144" yMin="346" xMax="872" yMax="774">
      <contour>
        <pt x="144" y="710" on="1"/>
        <pt x="144" y="774" on="1"/>
        <pt x="872" y="774" on="1"/>
        <pt x="872" y="710" on="1"/>
      </contour>
      <contour>
        <pt x="144" y="346" on="1"/>
        <pt x="144" y="410" on="1"/>
        <pt x="872" y="410" on="1"/>
        <pt x="872" y="346" on="1"/>
      </contour>
    </TTGlyph>
    <TTGlyph name="equal.tf" xMin="136" yMin="546" xMax="864" yMax="974">
      <contour>
        <pt x="136" y="910" on="1"/>
        <pt x="136" y="974" on="1"/>
        <pt x="864" y="974" on="1"/>
        <pt x="864" y="910" on="1"/>
      </contour>
      <contour>
        <pt x="136" y="546" on="1"/>
        <pt x="136" y="610" on="1"/>
        <pt x="864" y="610" on="1"/>
        <pt x="864" y="546" on="1"/>
      </contour>
    </TTGlyph>
    <TTGlyph name="equal.tosf" xMin="136" yMin="346" xMax="864" yMax="774">
      <contour>
        <pt x="136" y="710" on="1"/>
        <pt x="136" y="774" on="1"/>
        <pt x="864" y="774" on="1"/>
        <pt x="864" y="710" on="1"/>
      </contour>
      <contour>
        <pt x="136" y="346" on="1"/>
        <pt x="136" y="410" on="1"/>
        <pt x="864" y="410" on="1"/>
        <pt x="864" y="346" on="1"/>
      </contour>
    </TTGlyph>
    <TTGlyph name="estimated" xMin="98" yMin="-18" xMax="1492" yMax="1498">
      <contour>
        <pt x="794" y="-18" on="1"/>
        <pt x="645" y="-18" on="0"/>
        <pt x="391" y="96" on="0"/>
        <pt x="203" y="300" on="0"/>
        <pt x="98" y="576" on="0"/>
        <pt x="98" y="738" on="1"/>
        <pt x="98" y="962" on="0"/>
        <pt x="275" y="1305" on="0"/>
        <pt x="589" y="1498" on="0"/>
        <pt x="794" y="1498" on="1"/>
        <pt x="996" y="1498" on="0"/>
        <pt x="1302" y="1311" on="0"/>
        <pt x="1481" y="970" on="0"/>
        <pt x="1492" y="738" on="1"/>
        <pt x="348" y="738" on="1"/>
        <pt x="348" y="264" on="1"/>
        <pt x="419" y="165" on="0"/>
        <pt x="662" y="46" on="0"/>
        <pt x="794" y="46" on="1"/>
        <pt x="971" y="46" on="0"/>
        <pt x="1239" y="209" on="0"/>
        <pt x="1362" y="390" on="1"/>
        <pt x="1418" y="352" on="1"/>
        <pt x="1285" y="157" on="0"/>
        <pt x="991" y="-18" on="0"/>
      </contour>
      <contour>
        <pt x="348" y="802" on="1"/>
        <pt x="1222" y="802" on="1"/>
        <pt x="1222" y="1224" on="1"/>
        <pt x="1156" y="1326" on="0"/>
        <pt x="932" y="1434" on="0"/>
        <pt x="792" y="1434" on="1"/>
        <pt x="703" y="1434" on="0"/>
        <pt x="527" y="1379" on="0"/>
        <pt x="385" y="1284" on="0"/>
        <pt x="348" y="1224" on="1"/>
      </contour>
    </TTGlyph>
    <TTGlyph name="eth" xMin="88" yMin="-18" xMax="822" yMax="1616">
      <contour>
        <pt x="458" y="-18" on="1"/>
        <pt x="347" y="-18" on="0"/>
        <pt x="181" y="91" on="0"/>
        <pt x="88" y="336" on="0"/>
        <pt x="88" y="540" on="1"/>
        <pt x="88" y="744" on="0"/>
        <pt x="179" y="988" on="0"/>
        <pt x="344" y="1096" on="0"/>
        <pt x="456" y="1096" on="1"/>
        <pt x="527" y="1096" on="0"/>
        <pt x="657" y="1045" on="0"/>
        <pt x="712" y="968" on="1"/>
        <pt x="696" y="954" on="1"/>
        <pt x="666" y="1065" on="0"/>
        <pt x="565" y="1295" on="0"/>
        <pt x="405" y="1517" on="0"/>
        <pt x="288" y="1616" on="1"/>
        <pt x="376" y="1616" on="1"/>
        <pt x="467" y="1542" on="0"/>
        <pt x="628" y="1311" on="0"/>
        <pt x="752" y="1029" on="0"/>
        <pt x="822" y="722" on="0"/>
        <pt x="822" y="570" on="1"/>
        <pt x="822" y="361" on="0"/>
        <pt x="733" y="102" on="0"/>
        <pt x="569" y="-18" on="0"/>
      </contour>
      <contour>
        <pt x="458" y="48" on="1"/>
        <pt x="545" y="48" on="0"/>
        <pt x="678" y="144" on="0"/>
        <pt x="752" y="358" on="0"/>
        <pt x="752" y="536" on="1"/>
        <pt x="752" y="728" on="0"/>
        <pt x="679" y="943" on="0"/>
        <pt x="546" y="1030" on="0"/>
        <pt x="456" y="1030" on="1"/>
        <pt x="366" y="1030" on="0"/>
        <pt x="233" y="944" on="0"/>
        <pt x="160" y="732" on="0"/>
        <pt x="160" y="544" on="1"/>
        <pt x="160" y="352" on="0"/>
        <pt x="233" y="136" on="0"/>
        <pt x="367" y="48" on="0"/>
      </contour>
      <contour>
        <pt x="184" y="1260" on="1"/>
        <pt x="174" y="1318" on="1"/>
        <pt x="792" y="1422" on="1"/>
        <pt x="802" y="1364" on="1"/>
      </contour>
    </TTGlyph>
    <TTGlyph name="eth.sc" xMin="0" yMin="-8" xMax="938" yMax="1202">
      <component glyphName="d.sc" x="0" y="0" flags="0x204"/>
      <component glyphName="uni0335.dsc" x="0" y="-4" flags="0x4"/>
    </TTGlyph>
    <TTGlyph name="exclam" xMin="138" yMin="-10" xMax="262" yMax="1480">
      <contour>
        <pt x="176" y="316" on="1"/>
        <pt x="164" y="890" on="1"/>
        <pt x="164" y="1480" on="1"/>
        <pt x="236" y="1480" on="1"/>
        <pt x="236" y="890" on="1"/>
        <pt x="224" y="316" on="1"/>
      </contour>
      <contour>
        <pt x="200" y="-10" on="1"/>
        <pt x="173" y="-10" on="0"/>
        <pt x="138" y="24" on="0"/>
        <pt x="138" y="52" on="1"/>
        <pt x="138" y="81" on="0"/>
        <pt x="173" y="116" on="0"/>
        <pt x="200" y="116" on="1"/>
        <pt x="227" y="116" on="0"/>
        <pt x="262" y="81" on="0"/>
        <pt x="262" y="52" on="1"/>
        <pt x="262" y="24" on="0"/>
        <pt x="227" y="-10" on="0"/>
      </contour>
    </TTGlyph>
    <TTGlyph name="exclamdown" xMin="138" yMin="-380" xMax="262" yMax="1090">
      <contour>
        <pt x="176" y="764" on="1"/>
        <pt x="224" y="764" on="1"/>
        <pt x="236" y="190" on="1"/>
        <pt x="236" y="-380" on="1"/>
        <pt x="164" y="-380" on="1"/>
        <pt x="164" y="190" on="1"/>
      </contour>
      <contour>
        <pt x="200" y="1090" on="1"/>
        <pt x="227" y="1090" on="0"/>
        <pt x="262" y="1057" on="0"/>
        <pt x="262" y="1028" on="1"/>
        <pt x="262" y="1000" on="0"/>
        <pt x="227" y="964" on="0"/>
        <pt x="200" y="964" on="1"/>
        <pt x="173" y="964" on="0"/>
        <pt x="138" y="1000" on="0"/>
        <pt x="138" y="1028" on="1"/>
        <pt x="138" y="1057" on="0"/>
        <pt x="173" y="1090" on="0"/>
      </contour>
    </TTGlyph>
    <TTGlyph name="f" xMin="8" yMin="0" xMax="610" yMax="1636">
      <contour>
        <pt x="208" y="0" on="1"/>
        <pt x="208" y="1352" on="1"/>
        <pt x="208" y="1446" on="0"/>
        <pt x="272" y="1572" on="0"/>
        <pt x="397" y="1636" on="0"/>
        <pt x="490" y="1636" on="1"/>
        <pt x="516" y="1636" on="0"/>
        <pt x="580" y="1632" on="0"/>
        <pt x="610" y="1626" on="1"/>
        <pt x="610" y="1558" on="1"/>
        <pt x="579" y="1564" on="0"/>
        <pt x="522" y="1570" on="0"/>
        <pt x="486" y="1570" on="1"/>
        <pt x="384" y="1570" on="0"/>
        <pt x="276" y="1469" on="0"/>
        <pt x="276" y="1350" on="1"/>
        <pt x="276" y="0" on="1"/>
      </contour>
      <contour>
        <pt x="8" y="1016" on="1"/>
        <pt x="8" y="1080" on="1"/>
        <pt x="576" y="1080" on="1"/>
        <pt x="576" y="1016" on="1"/>
      </contour>
    </TTGlyph>
    <TTGlyph name="f.sc" xMin="166" yMin="0" xMax="794" yMax="1190">
      <contour>
        <pt x="166" y="0" on="1"/>
        <pt x="166" y="1190" on="1"/>
        <pt x="794" y="1190" on="1"/>
        <pt x="794" y="1126" on="1"/>
        <pt x="234" y="1126" on="1"/>
        <pt x="234" y="0" on="1"/>
      </contour>
      <contour>
        <pt x="224" y="576" on="1"/>
        <pt x="224" y="640" on="1"/>
        <pt x="718" y="640" on="1"/>
        <pt x="718" y="576" on="1"/>
      </contour>
    </TTGlyph>
    <TTGlyph name="f.short" xMin="8" yMin="0" xMax="610" yMax="1636">
      <contour>
        <pt x="208" y="0" on="1"/>
        <pt x="208" y="1352" on="1"/>
        <pt x="208" y="1446" on="0"/>
        <pt x="272" y="1572" on="0"/>
        <pt x="397" y="1636" on="0"/>
        <pt x="490" y="1636" on="1"/>
        <pt x="516" y="1636" on="0"/>
        <pt x="580" y="1632" on="0"/>
        <pt x="610" y="1626" on="1"/>
        <pt x="610" y="1558" on="1"/>
        <pt x="579" y="1564" on="0"/>
        <pt x="522" y="1570" on="0"/>
        <pt x="486" y="1570" on="1"/>
        <pt x="384" y="1570" on="0"/>
        <pt x="276" y="1469" on="0"/>
        <pt x="276" y="1350" on="1"/>
        <pt x="276" y="0" on="1"/>
      </contour>
      <contour>
        <pt x="8" y="1016" on="1"/>
        <pt x="8" y="1080" on="1"/>
        <pt x="576" y="1080" on="1"/>
        <pt x="576" y="1016" on="1"/>
      </contour>
    </TTGlyph>
    <TTGlyph name="f_i" xMin="8" yMin="0" xMax="802" yMax="1636">
      <component glyphName="f.short" x="0" y="0" flags="0x4"/>
      <component glyphName="i" x="562" y="0" flags="0x4"/>
    </TTGlyph>
    <TTGlyph name="f_j" xMin="8" yMin="-460" xMax="802" yMax="1636">
      <component glyphName="f.short" x="0" y="0" flags="0x4"/>
      <component glyphName="j" x="562" y="0" flags="0x4"/>
    </TTGlyph>
    <TTGlyph name="f_l" xMin="8" yMin="0" xMax="774" yMax="1636">
      <component glyphName="f.short" x="0" y="0" flags="0x4"/>
      <component glyphName="l" x="562" y="0" flags="0x4"/>
    </TTGlyph>
    <TTGlyph name="fi" xMin="8" yMin="0" xMax="802" yMax="1636">
      <component glyphName="f.short" x="0" y="0" flags="0x4"/>
      <component glyphName="i" x="562" y="0" flags="0x4"/>
    </TTGlyph>
    <TTGlyph name="figuredash" xMin="144" yMin="528" xMax="856" yMax="592">
      <contour>
        <pt x="144" y="528" on="1"/>
        <pt x="144" y="592" on="1"/>
        <pt x="856" y="592" on="1"/>
        <pt x="856" y="528" on="1"/>
      </contour>
    </TTGlyph>
    <TTGlyph name="five" xMin="74" yMin="-18" xMax="806" yMax="1480">
      <contour>
        <pt x="376" y="-18" on="1"/>
        <pt x="294" y="-18" on="0"/>
        <pt x="140" y="9" on="0"/>
        <pt x="74" y="36" on="1"/>
        <pt x="74" y="104" on="1"/>
        <pt x="146" y="77" on="0"/>
        <pt x="300" y="48" on="0"/>
        <pt x="376" y="48" on="1"/>
        <pt x="553" y="48" on="0"/>
        <pt x="736" y="224" on="0"/>
        <pt x="736" y="396" on="1"/>
        <pt x="736" y="514" on="0"/>
        <pt x="641" y="668" on="0"/>
        <pt x="444" y="749" on="0"/>
        <pt x="290" y="758" on="1"/>
        <pt x="124" y="768" on="1"/>
        <pt x="170" y="1480" on="1"/>
        <pt x="744" y="1480" on="1"/>
        <pt x="744" y="1416" on="1"/>
        <pt x="204" y="1416" on="1"/>
        <pt x="236" y="1444" on="1"/>
        <pt x="192" y="786" on="1"/>
        <pt x="140" y="834" on="1"/>
        <pt x="306" y="824" on="1"/>
        <pt x="471" y="814" on="0"/>
        <pt x="694" y="715" on="0"/>
        <pt x="806" y="533" on="0"/>
        <pt x="806" y="398" on="1"/>
        <pt x="806" y="196" on="0"/>
        <pt x="585" y="-18" on="0"/>
      </contour>
    </TTGlyph>
    <TTGlyph name="five.dnom" xMin="86" yMin="-148" xMax="608" yMax="864">
      <contour>
        <pt x="296" y="-148" on="1"/>
        <pt x="239" y="-148" on="0"/>
        <pt x="133" y="-130" on="0"/>
        <pt x="86" y="-112" on="1"/>
        <pt x="86" y="-48" on="1"/>
        <pt x="136" y="-67" on="0"/>
        <pt x="246" y="-86" on="0"/>
        <pt x="298" y="-86" on="1"/>
        <pt x="418" y="-86" on="0"/>
        <pt x="544" y="25" on="0"/>
        <pt x="544" y="134" on="1"/>
        <pt x="544" y="210" on="0"/>
        <pt x="478" y="308" on="0"/>
        <pt x="340" y="360" on="0"/>
        <pt x="232" y="366" on="1"/>
        <pt x="120" y="374" on="1"/>
        <pt x="152" y="864" on="1"/>
        <pt x="564" y="864" on="1"/>
        <pt x="564" y="804" on="1"/>
        <pt x="184" y="804" on="1"/>
        <pt x="212" y="832" on="1"/>
        <pt x="182" y="396" on="1"/>
        <pt x="142" y="434" on="1"/>
        <pt x="254" y="426" on="1"/>
        <pt x="430" y="414" on="0"/>
        <pt x="608" y="275" on="0"/>
        <pt x="608" y="138" on="1"/>
        <pt x="608" y="-1" on="0"/>
        <pt x="446" y="-148" on="0"/>
      </contour>
    </TTGlyph>
    <TTGlyph name="five.numr" xMin="86" yMin="604" xMax="608" yMax="1616">
      <contour>
        <pt x="296" y="604" on="1"/>
        <pt x="239" y="604" on="0"/>
        <pt x="133" y="622" on="0"/>
        <pt x="86" y="640" on="1"/>
        <pt x="86" y="704" on="1"/>
        <pt x="136" y="685" on="0"/>
        <pt x="246" y="666" on="0"/>
        <pt x="298" y="666" on="1"/>
        <pt x="418" y="666" on="0"/>
        <pt x="544" y="777" on="0"/>
        <pt x="544" y="886" on="1"/>
        <pt x="544" y="962" on="0"/>
        <pt x="478" y="1060" on="0"/>
        <pt x="340" y="1112" on="0"/>
        <pt x="232" y="1118" on="1"/>
        <pt x="120" y="1126" on="1"/>
        <pt x="152" y="1616" on="1"/>
        <pt x="564" y="1616" on="1"/>
        <pt x="564" y="1556" on="1"/>
        <pt x="184" y="1556" on="1"/>
        <pt x="212" y="1584" on="1"/>
        <pt x="182" y="1148" on="1"/>
        <pt x="142" y="1186" on="1"/>
        <pt x="254" y="1178" on="1"/>
        <pt x="430" y="1166" on="0"/>
        <pt x="608" y="1027" on="0"/>
        <pt x="608" y="890" on="1"/>
        <pt x="608" y="751" on="0"/>
        <pt x="446" y="604" on="0"/>
      </contour>
    </TTGlyph>
    <TTGlyph name="five.osf" xMin="52" yMin="-418" xMax="784" yMax="1080">
      <contour>
        <pt x="354" y="-418" on="1"/>
        <pt x="272" y="-418" on="0"/>
        <pt x="118" y="-391" on="0"/>
        <pt x="52" y="-364" on="1"/>
        <pt x="52" y="-296" on="1"/>
        <pt x="124" y="-323" on="0"/>
        <pt x="278" y="-352" on="0"/>
        <pt x="354" y="-352" on="1"/>
        <pt x="531" y="-352" on="0"/>
        <pt x="714" y="-176" on="0"/>
        <pt x="714" y="-4" on="1"/>
        <pt x="714" y="114" on="0"/>
        <pt x="619" y="268" on="0"/>
        <pt x="422" y="349" on="0"/>
        <pt x="268" y="358" on="1"/>
        <pt x="102" y="368" on="1"/>
        <pt x="148" y="1080" on="1"/>
        <pt x="722" y="1080" on="1"/>
        <pt x="722" y="1016" on="1"/>
        <pt x="182" y="1016" on="1"/>
        <pt x="214" y="1044" on="1"/>
        <pt x="170" y="386" on="1"/>
        <pt x="118" y="434" on="1"/>
        <pt x="284" y="424" on="1"/>
        <pt x="449" y="414" on="0"/>
        <pt x="672" y="315" on="0"/>
        <pt x="784" y="133" on="0"/>
        <pt x="784" y="-2" on="1"/>
        <pt x="784" y="-204" on="0"/>
        <pt x="563" y="-418" on="0"/>
      </contour>
    </TTGlyph>
    <TTGlyph name="five.tf" xMin="130" yMin="-18" xMax="892" yMax="1480">
      <contour>
        <pt x="444" y="-18" on="1"/>
        <pt x="357" y="-18" on="0"/>
        <pt x="198" y="9" on="0"/>
        <pt x="130" y="36" on="1"/>
        <pt x="130" y="104" on="1"/>
        <pt x="204" y="77" on="0"/>
        <pt x="365" y="48" on="0"/>
        <pt x="444" y="48" on="1"/>
        <pt x="629" y="48" on="0"/>
        <pt x="822" y="224" on="0"/>
        <pt x="822" y="396" on="1"/>
        <pt x="822" y="514" on="0"/>
        <pt x="721" y="668" on="0"/>
        <pt x="514" y="749" on="0"/>
        <pt x="354" y="758" on="1"/>
        <pt x="182" y="768" on="1"/>
        <pt x="228" y="1480" on="1"/>
        <pt x="826" y="1480" on="1"/>
        <pt x="826" y="1416" on="1"/>
        <pt x="264" y="1416" on="1"/>
        <pt x="294" y="1444" on="1"/>
        <pt x="248" y="786" on="1"/>
        <pt x="198" y="834" on="1"/>
        <pt x="370" y="824" on="1"/>
        <pt x="542" y="814" on="0"/>
        <pt x="774" y="715" on="0"/>
        <pt x="892" y="533" on="0"/>
        <pt x="892" y="398" on="1"/>
        <pt x="892" y="196" on="0"/>
        <pt x="660" y="-18" on="0"/>
      </contour>
    </TTGlyph>
    <TTGlyph name="five.tosf" xMin="118" yMin="-418" xMax="890" yMax="1080">
      <contour>
        <pt x="436" y="-418" on="1"/>
        <pt x="349" y="-418" on="0"/>
        <pt x="187" y="-391" on="0"/>
        <pt x="118" y="-364" on="1"/>
        <pt x="118" y="-296" on="1"/>
        <pt x="195" y="-323" on="0"/>
        <pt x="355" y="-352" on="0"/>
        <pt x="436" y="-352" on="1"/>
        <pt x="625" y="-352" on="0"/>
        <pt x="820" y="-176" on="0"/>
        <pt x="820" y="-4" on="1"/>
        <pt x="820" y="114" on="0"/>
        <pt x="719" y="268" on="0"/>
        <pt x="509" y="349" on="0"/>
        <pt x="346" y="358" on="1"/>
        <pt x="170" y="368" on="1"/>
        <pt x="220" y="1080" on="1"/>
        <pt x="824" y="1080" on="1"/>
        <pt x="824" y="1016" on="1"/>
        <pt x="256" y="1016" on="1"/>
        <pt x="284" y="1044" on="1"/>
        <pt x="238" y="386" on="1"/>
        <pt x="188" y="434" on="1"/>
        <pt x="362" y="424" on="1"/>
        <pt x="536" y="414" on="0"/>
        <pt x="771" y="315" on="0"/>
        <pt x="890" y="133" on="0"/>
        <pt x="890" y="-2" on="1"/>
        <pt x="890" y="-204" on="0"/>
        <pt x="657" y="-418" on="0"/>
      </contour>
    </TTGlyph>
    <TTGlyph name="fiveeighths" xMin="86" yMin="-148" xMax="1484" yMax="1616">
      <component glyphName="five.numr" x="0" y="0" flags="0x4"/>
      <component glyphName="fraction" x="680" y="0" flags="0x4"/>
      <component glyphName="eight.dnom" x="864" y="0" flags="0x4"/>
    </TTGlyph>
    <TTGlyph name="fl" xMin="8" yMin="0" xMax="774" yMax="1636">
      <component glyphName="f.short" x="0" y="0" flags="0x4"/>
      <component glyphName="l" x="562" y="0" flags="0x4"/>
    </TTGlyph>
    <TTGlyph name="florin" xMin="-126" yMin="-460" xMax="610" yMax="1636">
      <contour>
        <pt x="-6" y="-460" on="1"/>
        <pt x="-31" y="-460" on="0"/>
        <pt x="-96" y="-456" on="0"/>
        <pt x="-126" y="-450" on="1"/>
        <pt x="-126" y="-382" on="1"/>
        <pt x="-94" y="-386" on="0"/>
        <pt x="-38" y="-394" on="0"/>
        <pt x="-2" y="-394" on="1"/>
        <pt x="100" y="-394" on="0"/>
        <pt x="208" y="-295" on="0"/>
        <pt x="208" y="-184" on="1"/>
        <pt x="208" y="1352" on="1"/>
        <pt x="208" y="1446" on="0"/>
        <pt x="272" y="1572" on="0"/>
        <pt x="397" y="1636" on="0"/>
        <pt x="490" y="1636" on="1"/>
        <pt x="516" y="1636" on="0"/>
        <pt x="580" y="1632" on="0"/>
        <pt x="610" y="1626" on="1"/>
        <pt x="610" y="1558" on="1"/>
        <pt x="579" y="1563" on="0"/>
        <pt x="522" y="1570" on="0"/>
        <pt x="486" y="1570" on="1"/>
        <pt x="384" y="1570" on="0"/>
        <pt x="276" y="1471" on="0"/>
        <pt x="276" y="1360" on="1"/>
        <pt x="276" y="-176" on="1"/>
        <pt x="276" y="-270" on="0"/>
        <pt x="213" y="-396" on="0"/>
        <pt x="87" y="-460" on="0"/>
      </contour>
      <contour>
        <pt x="8" y="1014" on="1"/>
        <pt x="8" y="1080" on="1"/>
        <pt x="576" y="1080" on="1"/>
        <pt x="576" y="1014" on="1"/>
      </contour>
    </TTGlyph>
    <TTGlyph name="florin.tf" xMin="86" yMin="-460" xMax="822" yMax="1636">
      <contour>
        <pt x="206" y="-460" on="1"/>
        <pt x="181" y="-460" on="0"/>
        <pt x="116" y="-456" on="0"/>
        <pt x="86" y="-450" on="1"/>
        <pt x="86" y="-382" on="1"/>
        <pt x="118" y="-386" on="0"/>
        <pt x="174" y="-394" on="0"/>
        <pt x="210" y="-394" on="1"/>
        <pt x="312" y="-394" on="0"/>
        <pt x="420" y="-295" on="0"/>
        <pt x="420" y="-184" on="1"/>
        <pt x="420" y="1352" on="1"/>
        <pt x="420" y="1446" on="0"/>
        <pt x="484" y="1572" on="0"/>
        <pt x="609" y="1636" on="0"/>
        <pt x="702" y="1636" on="1"/>
        <pt x="728" y="1636" on="0"/>
        <pt x="792" y="1632" on="0"/>
        <pt x="822" y="1626" on="1"/>
        <pt x="822" y="1558" on="1"/>
        <pt x="791" y="1563" on="0"/>
        <pt x="734" y="1570" on="0"/>
        <pt x="698" y="1570" on="1"/>
        <pt x="596" y="1570" on="0"/>
        <pt x="488" y="1471" on="0"/>
        <pt x="488" y="1360" on="1"/>
        <pt x="488" y="-176" on="1"/>
        <pt x="488" y="-270" on="0"/>
        <pt x="425" y="-396" on="0"/>
        <pt x="299" y="-460" on="0"/>
      </contour>
      <contour>
        <pt x="220" y="1014" on="1"/>
        <pt x="220" y="1080" on="1"/>
        <pt x="788" y="1080" on="1"/>
        <pt x="788" y="1014" on="1"/>
      </contour>
    </TTGlyph>
    <TTGlyph name="four" xMin="50" yMin="0" xMax="952" yMax="1480">
      <contour>
        <pt x="50" y="384" on="1"/>
        <pt x="50" y="424" on="1"/>
        <pt x="574" y="1480" on="1"/>
        <pt x="648" y="1480" on="1"/>
        <pt x="122" y="422" on="1"/>
        <pt x="108" y="448" on="1"/>
        <pt x="952" y="448" on="1"/>
        <pt x="952" y="384" on="1"/>
      </contour>
      <contour>
        <pt x="684" y="0" on="1"/>
        <pt x="684" y="448" on="1"/>
        <pt x="698" y="980" on="1"/>
        <pt x="752" y="980" on="1"/>
        <pt x="752" y="0" on="1"/>
      </contour>
    </TTGlyph>
</ttFont>
